M48
INCH
T1C0.0157
T2C0.0300
T3C0.0394
T4C0.1260
%
G90
G05
T1
X4.708Y-4.088
X4.804Y-3.9
X4.824Y-4.052
X4.864Y-3.902
X4.92Y-3.59
X4.975Y-4.2
X5.03Y-2.768
X5.075Y-2.615
X5.124Y-3.562
X5.125Y-4.2
X5.132Y-4.34
X5.14Y-2.725
X5.142Y-2.98
X5.1609Y-3.4111
X5.17Y-3.59
X5.196Y-2.396
X5.228Y-2.77
X5.23Y-3.9
X5.235Y-4.89
X5.28Y-4.052
X5.285Y-3.8999
X5.425Y-4.4
X5.45Y-5.145
X5.45Y-5.255
X5.45Y-5.365
X5.45Y-5.905
X5.455Y-4.84
X5.49Y-5.02
X5.49Y-5.49
X5.495Y-5.785
X5.495Y-6.04
X5.5Y-3.375
X5.505Y-4.295
X5.505Y-4.4
X5.535Y-4.115
X5.535Y-4.58
X5.54Y-2.425
X5.546Y-4.034
X5.58Y-5.23
X5.58Y-5.28
X5.584Y-3.99
X5.585Y-3.94
X5.588Y-4.078
X5.765Y-4.315
X5.785Y-4.602
X5.785Y-4.78
X5.83Y-3.715
X5.8666Y-2.4734
X5.95Y-4.3
X5.955Y-4.435
T2
X4.6821Y-2.0734
X4.6821Y-2.1734
X4.6821Y-2.2734
X4.6821Y-2.3734
X4.6821Y-2.4734
X4.6821Y-2.5734
X4.6821Y-2.6734
X4.6821Y-2.7734
X4.6821Y-2.8734
X4.6821Y-2.9734
X4.6821Y-3.0734
X4.6821Y-3.1734
X4.6821Y-3.2734
X4.6821Y-3.3734
X4.6821Y-3.4734
X4.6821Y-3.5734
X4.6821Y-3.6734
X4.6821Y-3.7734
X4.6821Y-3.8734
X4.6821Y-3.9734
X5.3821Y-2.0734
X5.3821Y-2.1734
X5.3821Y-2.2734
X5.3821Y-2.3734
X5.3821Y-2.4734
X5.3821Y-2.5734
X5.3821Y-2.6734
X5.3821Y-2.7734
X5.3821Y-2.8734
X5.3821Y-2.9734
X5.3821Y-3.0734
X5.3821Y-3.1734
X5.3821Y-3.2734
X5.3821Y-3.3734
X5.3821Y-3.4734
X5.3821Y-3.5734
X5.3821Y-3.6734
X5.3821Y-3.7734
X5.3821Y-3.8734
X5.3821Y-3.9734
T3
X4.7644Y-4.4734
X4.7644Y-4.5734
X4.8644Y-4.4734
X4.8644Y-4.5734
X4.915Y-3.08
X4.9644Y-4.4734
X4.9644Y-4.5734
X5.015Y-3.08
X5.0644Y-4.4734
X5.0644Y-4.5734
X5.0665Y-5.09
X5.0665Y-5.19
X5.0665Y-5.29
X5.0665Y-5.39
X5.5392Y-2.5876
X5.5392Y-2.6876
X5.5392Y-2.7876
X5.5392Y-2.8876
X5.6392Y-2.5876
X5.6392Y-2.6876
X5.6392Y-2.7876
X5.6392Y-2.8876
X5.805Y-5.1
X5.805Y-5.2
X5.805Y-5.3
X5.805Y-5.4
X5.805Y-5.5
X5.805Y-5.6
X5.805Y-5.7
X5.805Y-5.8
X5.905Y-5.1
X5.905Y-5.2
X5.905Y-5.3
X5.905Y-5.4
X5.905Y-5.5
X5.905Y-5.6
X5.905Y-5.7
X5.905Y-5.8
X6.05Y-2.075
X6.05Y-2.175
X6.05Y-2.275
X6.05Y-2.375
T4
X5.356Y-4.205
T0
M30
