%TF.GenerationSoftware,KiCad,Pcbnew,7.0.2-0*%
%TF.CreationDate,2023-05-29T21:13:20+02:00*%
%TF.ProjectId,dac-board,6461632d-626f-4617-9264-2e6b69636164,rev?*%
%TF.SameCoordinates,Original*%
%TF.FileFunction,Soldermask,Bot*%
%TF.FilePolarity,Negative*%
%FSLAX46Y46*%
G04 Gerber Fmt 4.6, Leading zero omitted, Abs format (unit mm)*
G04 Created by KiCad (PCBNEW 7.0.2-0) date 2023-05-29 21:13:20*
%MOMM*%
%LPD*%
G01*
G04 APERTURE LIST*
G04 Aperture macros list*
%AMRoundRect*
0 Rectangle with rounded corners*
0 $1 Rounding radius*
0 $2 $3 $4 $5 $6 $7 $8 $9 X,Y pos of 4 corners*
0 Add a 4 corners polygon primitive as box body*
4,1,4,$2,$3,$4,$5,$6,$7,$8,$9,$2,$3,0*
0 Add four circle primitives for the rounded corners*
1,1,$1+$1,$2,$3*
1,1,$1+$1,$4,$5*
1,1,$1+$1,$6,$7*
1,1,$1+$1,$8,$9*
0 Add four rect primitives between the rounded corners*
20,1,$1+$1,$2,$3,$4,$5,0*
20,1,$1+$1,$4,$5,$6,$7,0*
20,1,$1+$1,$6,$7,$8,$9,0*
20,1,$1+$1,$8,$9,$2,$3,0*%
G04 Aperture macros list end*
%ADD10R,1.700000X1.700000*%
%ADD11O,1.700000X1.700000*%
%ADD12C,1.524000*%
%ADD13RoundRect,0.250000X0.600000X0.600000X-0.600000X0.600000X-0.600000X-0.600000X0.600000X-0.600000X0*%
%ADD14C,1.700000*%
G04 APERTURE END LIST*
D10*
%TO.C,J6*%
X128688981Y-129286000D03*
D11*
X128688981Y-131826000D03*
X128688981Y-134366000D03*
X128688981Y-136906000D03*
%TD*%
D12*
%TO.C,RPI1*%
X118925000Y-52665000D03*
X118925000Y-55205000D03*
X118925000Y-57745000D03*
X118925000Y-60285000D03*
X118925000Y-62825000D03*
X118925000Y-65365000D03*
X118925000Y-67905000D03*
X118925000Y-70445000D03*
X118925000Y-72985000D03*
X118925000Y-75525000D03*
X118925000Y-78065000D03*
X118925000Y-80605000D03*
X118925000Y-83145000D03*
X118925000Y-85685000D03*
X118925000Y-88225000D03*
X118925000Y-90765000D03*
X118925000Y-93305000D03*
X118925000Y-95845000D03*
X118925000Y-98385000D03*
X118925000Y-100925000D03*
X136705000Y-100925000D03*
X136705000Y-98385000D03*
X136705000Y-95845000D03*
X136705000Y-93305000D03*
X136705000Y-90765000D03*
X136705000Y-88225000D03*
X136705000Y-85685000D03*
X136705000Y-83145000D03*
X136705000Y-80605000D03*
X136705000Y-78065000D03*
X136705000Y-75525000D03*
X136705000Y-72985000D03*
X136705000Y-70445000D03*
X136705000Y-67905000D03*
X136705000Y-65365000D03*
X136705000Y-62825000D03*
X136705000Y-60285000D03*
X136705000Y-57745000D03*
X136705000Y-55205000D03*
X136705000Y-52665000D03*
%TD*%
D13*
%TO.C,J1*%
X149987000Y-147320000D03*
D14*
X147447000Y-147320000D03*
X149987000Y-144780000D03*
X147447000Y-144780000D03*
X149987000Y-142240000D03*
X147447000Y-142240000D03*
X149987000Y-139700000D03*
X147447000Y-139700000D03*
X149987000Y-137160000D03*
X147447000Y-137160000D03*
X149987000Y-134620000D03*
X147447000Y-134620000D03*
X149987000Y-132080000D03*
X147447000Y-132080000D03*
X149987000Y-129540000D03*
X147447000Y-129540000D03*
%TD*%
D10*
%TO.C,J4*%
X153670000Y-52705000D03*
D11*
X153670000Y-55245000D03*
X153670000Y-57785000D03*
X153670000Y-60325000D03*
%TD*%
D10*
%TO.C,J3*%
X121015000Y-113625000D03*
D11*
X121015000Y-116165000D03*
X123555000Y-113625000D03*
X123555000Y-116165000D03*
X126095000Y-113625000D03*
X126095000Y-116165000D03*
X128635000Y-113625000D03*
X128635000Y-116165000D03*
%TD*%
D10*
%TO.C,J2*%
X143235000Y-65725000D03*
D11*
X140695000Y-65725000D03*
X143235000Y-68265000D03*
X140695000Y-68265000D03*
X143235000Y-70805000D03*
X140695000Y-70805000D03*
X143235000Y-73345000D03*
X140695000Y-73345000D03*
%TD*%
D10*
%TO.C,J5*%
X127381000Y-78232000D03*
D11*
X124841000Y-78232000D03*
%TD*%
M02*
