%TF.GenerationSoftware,KiCad,Pcbnew,7.0.2-0*%
%TF.CreationDate,2023-05-29T21:13:20+02:00*%
%TF.ProjectId,dac-board,6461632d-626f-4617-9264-2e6b69636164,rev?*%
%TF.SameCoordinates,Original*%
%TF.FileFunction,Copper,L1,Top*%
%TF.FilePolarity,Positive*%
%FSLAX46Y46*%
G04 Gerber Fmt 4.6, Leading zero omitted, Abs format (unit mm)*
G04 Created by KiCad (PCBNEW 7.0.2-0) date 2023-05-29 21:13:20*
%MOMM*%
%LPD*%
G01*
G04 APERTURE LIST*
G04 Aperture macros list*
%AMRoundRect*
0 Rectangle with rounded corners*
0 $1 Rounding radius*
0 $2 $3 $4 $5 $6 $7 $8 $9 X,Y pos of 4 corners*
0 Add a 4 corners polygon primitive as box body*
4,1,4,$2,$3,$4,$5,$6,$7,$8,$9,$2,$3,0*
0 Add four circle primitives for the rounded corners*
1,1,$1+$1,$2,$3*
1,1,$1+$1,$4,$5*
1,1,$1+$1,$6,$7*
1,1,$1+$1,$8,$9*
0 Add four rect primitives between the rounded corners*
20,1,$1+$1,$2,$3,$4,$5,0*
20,1,$1+$1,$4,$5,$6,$7,0*
20,1,$1+$1,$6,$7,$8,$9,0*
20,1,$1+$1,$8,$9,$2,$3,0*%
G04 Aperture macros list end*
%TA.AperFunction,ComponentPad*%
%ADD10R,1.700000X1.700000*%
%TD*%
%TA.AperFunction,ComponentPad*%
%ADD11O,1.700000X1.700000*%
%TD*%
%TA.AperFunction,SMDPad,CuDef*%
%ADD12RoundRect,0.135000X0.185000X-0.135000X0.185000X0.135000X-0.185000X0.135000X-0.185000X-0.135000X0*%
%TD*%
%TA.AperFunction,SMDPad,CuDef*%
%ADD13RoundRect,0.140000X0.140000X0.170000X-0.140000X0.170000X-0.140000X-0.170000X0.140000X-0.170000X0*%
%TD*%
%TA.AperFunction,SMDPad,CuDef*%
%ADD14RoundRect,0.150000X0.587500X0.150000X-0.587500X0.150000X-0.587500X-0.150000X0.587500X-0.150000X0*%
%TD*%
%TA.AperFunction,SMDPad,CuDef*%
%ADD15RoundRect,0.250000X-0.325000X-0.650000X0.325000X-0.650000X0.325000X0.650000X-0.325000X0.650000X0*%
%TD*%
%TA.AperFunction,SMDPad,CuDef*%
%ADD16RoundRect,0.135000X0.135000X0.185000X-0.135000X0.185000X-0.135000X-0.185000X0.135000X-0.185000X0*%
%TD*%
%TA.AperFunction,SMDPad,CuDef*%
%ADD17RoundRect,0.112500X0.187500X0.112500X-0.187500X0.112500X-0.187500X-0.112500X0.187500X-0.112500X0*%
%TD*%
%TA.AperFunction,SMDPad,CuDef*%
%ADD18RoundRect,0.250000X-1.000000X-0.650000X1.000000X-0.650000X1.000000X0.650000X-1.000000X0.650000X0*%
%TD*%
%TA.AperFunction,SMDPad,CuDef*%
%ADD19RoundRect,0.135000X-0.135000X-0.185000X0.135000X-0.185000X0.135000X0.185000X-0.135000X0.185000X0*%
%TD*%
%TA.AperFunction,SMDPad,CuDef*%
%ADD20RoundRect,0.150000X0.150000X-0.587500X0.150000X0.587500X-0.150000X0.587500X-0.150000X-0.587500X0*%
%TD*%
%TA.AperFunction,SMDPad,CuDef*%
%ADD21RoundRect,0.135000X-0.185000X0.135000X-0.185000X-0.135000X0.185000X-0.135000X0.185000X0.135000X0*%
%TD*%
%TA.AperFunction,ComponentPad*%
%ADD22C,1.524000*%
%TD*%
%TA.AperFunction,SMDPad,CuDef*%
%ADD23RoundRect,0.150000X-0.825000X-0.150000X0.825000X-0.150000X0.825000X0.150000X-0.825000X0.150000X0*%
%TD*%
%TA.AperFunction,SMDPad,CuDef*%
%ADD24RoundRect,0.140000X-0.170000X0.140000X-0.170000X-0.140000X0.170000X-0.140000X0.170000X0.140000X0*%
%TD*%
%TA.AperFunction,SMDPad,CuDef*%
%ADD25RoundRect,0.250000X1.000000X0.650000X-1.000000X0.650000X-1.000000X-0.650000X1.000000X-0.650000X0*%
%TD*%
%TA.AperFunction,SMDPad,CuDef*%
%ADD26RoundRect,0.250000X0.475000X-0.250000X0.475000X0.250000X-0.475000X0.250000X-0.475000X-0.250000X0*%
%TD*%
%TA.AperFunction,SMDPad,CuDef*%
%ADD27RoundRect,0.218750X0.381250X-0.218750X0.381250X0.218750X-0.381250X0.218750X-0.381250X-0.218750X0*%
%TD*%
%TA.AperFunction,ComponentPad*%
%ADD28RoundRect,0.250000X0.600000X0.600000X-0.600000X0.600000X-0.600000X-0.600000X0.600000X-0.600000X0*%
%TD*%
%TA.AperFunction,ComponentPad*%
%ADD29C,1.700000*%
%TD*%
%TA.AperFunction,SMDPad,CuDef*%
%ADD30RoundRect,0.140000X-0.140000X-0.170000X0.140000X-0.170000X0.140000X0.170000X-0.140000X0.170000X0*%
%TD*%
%TA.AperFunction,SMDPad,CuDef*%
%ADD31RoundRect,0.218750X-0.381250X0.218750X-0.381250X-0.218750X0.381250X-0.218750X0.381250X0.218750X0*%
%TD*%
%TA.AperFunction,SMDPad,CuDef*%
%ADD32RoundRect,0.250000X-0.650000X1.000000X-0.650000X-1.000000X0.650000X-1.000000X0.650000X1.000000X0*%
%TD*%
%TA.AperFunction,SMDPad,CuDef*%
%ADD33RoundRect,0.140000X0.170000X-0.140000X0.170000X0.140000X-0.170000X0.140000X-0.170000X-0.140000X0*%
%TD*%
%TA.AperFunction,SMDPad,CuDef*%
%ADD34R,0.300000X1.400000*%
%TD*%
%TA.AperFunction,SMDPad,CuDef*%
%ADD35RoundRect,0.150000X0.825000X0.150000X-0.825000X0.150000X-0.825000X-0.150000X0.825000X-0.150000X0*%
%TD*%
%TA.AperFunction,ViaPad*%
%ADD36C,0.800000*%
%TD*%
%TA.AperFunction,ViaPad*%
%ADD37C,3.600000*%
%TD*%
%TA.AperFunction,Conductor*%
%ADD38C,0.500000*%
%TD*%
%TA.AperFunction,Conductor*%
%ADD39C,0.250000*%
%TD*%
%TA.AperFunction,Conductor*%
%ADD40C,0.300000*%
%TD*%
%TA.AperFunction,Conductor*%
%ADD41C,0.200000*%
%TD*%
G04 APERTURE END LIST*
D10*
%TO.P,J6,1,Pin_1*%
%TO.N,/+5V*%
X128688981Y-129286000D03*
D11*
%TO.P,J6,2,Pin_2*%
%TO.N,/+12V*%
X128688981Y-131826000D03*
%TO.P,J6,3,Pin_3*%
%TO.N,GND*%
X128688981Y-134366000D03*
%TO.P,J6,4,Pin_4*%
%TO.N,/-12V*%
X128688981Y-136906000D03*
%TD*%
D12*
%TO.P,R3,1*%
%TO.N,Net-(U4A-+)*%
X126238000Y-93263000D03*
%TO.P,R3,2*%
%TO.N,/DACA*%
X126238000Y-92243000D03*
%TD*%
D13*
%TO.P,C4,1*%
%TO.N,GND*%
X133830000Y-100299000D03*
%TO.P,C4,2*%
%TO.N,/-12V*%
X132870000Y-100299000D03*
%TD*%
D14*
%TO.P,U1,1*%
%TO.N,N/C*%
X132509500Y-67371000D03*
%TO.P,U1,2,K*%
%TO.N,/ADC_VREF*%
X132509500Y-65471000D03*
%TO.P,U1,3,A*%
%TO.N,GND*%
X130634500Y-66421000D03*
%TD*%
D15*
%TO.P,C25,1*%
%TO.N,/+5V*%
X136590333Y-132080000D03*
%TO.P,C25,2*%
%TO.N,GND*%
X139540333Y-132080000D03*
%TD*%
%TO.P,C20,1*%
%TO.N,/+5V*%
X136606666Y-129286000D03*
%TO.P,C20,2*%
%TO.N,GND*%
X139556666Y-129286000D03*
%TD*%
D16*
%TO.P,R27,1*%
%TO.N,/DIGITAL IN P*%
X133733000Y-75692000D03*
%TO.P,R27,2*%
%TO.N,Net-(D1-K)*%
X132713000Y-75692000D03*
%TD*%
D15*
%TO.P,C24,1*%
%TO.N,/-12V*%
X136701000Y-148590000D03*
%TO.P,C24,2*%
%TO.N,GND*%
X139651000Y-148590000D03*
%TD*%
D17*
%TO.P,D1,1,K*%
%TO.N,Net-(D1-K)*%
X132723600Y-77597000D03*
%TO.P,D1,2,A*%
%TO.N,GND*%
X130623600Y-77597000D03*
%TD*%
D18*
%TO.P,D4,1,K*%
%TO.N,/+12V*%
X137351000Y-141224000D03*
%TO.P,D4,2,A*%
%TO.N,Net-(D4-A)*%
X141351000Y-141224000D03*
%TD*%
D12*
%TO.P,R4,1*%
%TO.N,Net-(U4B-+)*%
X127508000Y-93261000D03*
%TO.P,R4,2*%
%TO.N,/DACB*%
X127508000Y-92241000D03*
%TD*%
D19*
%TO.P,R33,1*%
%TO.N,Net-(U4C--)*%
X132840000Y-101549200D03*
%TO.P,R33,2*%
%TO.N,GND*%
X133860000Y-101549200D03*
%TD*%
D16*
%TO.P,R22,1*%
%TO.N,Net-(R21-Pad2)*%
X147195000Y-103124000D03*
%TO.P,R22,2*%
%TO.N,Net-(U5A--)*%
X146175000Y-103124000D03*
%TD*%
D20*
%TO.P,Q1,1,E*%
%TO.N,GND*%
X130799800Y-73759300D03*
%TO.P,Q1,2,B*%
%TO.N,Net-(D1-K)*%
X132699800Y-73759300D03*
%TO.P,Q1,3,C*%
%TO.N,/DIG_IN*%
X131749800Y-71884300D03*
%TD*%
D13*
%TO.P,C10,1*%
%TO.N,Net-(U3D-+)*%
X141958000Y-111760000D03*
%TO.P,C10,2*%
%TO.N,GND*%
X140998000Y-111760000D03*
%TD*%
D21*
%TO.P,R24,1*%
%TO.N,/BUTTON 1 P*%
X143205200Y-61567600D03*
%TO.P,R24,2*%
%TO.N,/+3.3V P*%
X143205200Y-62587600D03*
%TD*%
D22*
%TO.P,RPI1,1,GPIO0*%
%TO.N,/OLED SDA P*%
X118925000Y-52665000D03*
%TO.P,RPI1,2,GPIO1*%
%TO.N,/OLED SCL P*%
X118925000Y-55205000D03*
%TO.P,RPI1,3,GND*%
%TO.N,GND*%
X118925000Y-57745000D03*
%TO.P,RPI1,4,GPIO2*%
%TO.N,/GP2*%
X118925000Y-60285000D03*
%TO.P,RPI1,5,GPIO3*%
%TO.N,/GP3*%
X118925000Y-62825000D03*
%TO.P,RPI1,6,GPIO4*%
%TO.N,/BUTTON 1 P*%
X118925000Y-65365000D03*
%TO.P,RPI1,7,GPIO5*%
%TO.N,/BUTTON 2 P*%
X118925000Y-67905000D03*
%TO.P,RPI1,8,GND*%
%TO.N,GND*%
X118925000Y-70445000D03*
%TO.P,RPI1,9,GPIO6*%
%TO.N,unconnected-(RPI1-GPIO6-Pad9)*%
X118925000Y-72985000D03*
%TO.P,RPI1,10,GPIO7*%
%TO.N,unconnected-(RPI1-GPIO7-Pad10)*%
X118925000Y-75525000D03*
%TO.P,RPI1,11,GPIO8*%
%TO.N,unconnected-(RPI1-GPIO8-Pad11)*%
X118925000Y-78065000D03*
%TO.P,RPI1,12,GPIO9*%
%TO.N,unconnected-(RPI1-GPIO9-Pad12)*%
X118925000Y-80605000D03*
%TO.P,RPI1,13,GND*%
%TO.N,GND*%
X118925000Y-83145000D03*
%TO.P,RPI1,14,GPIO10*%
%TO.N,unconnected-(RPI1-GPIO10-Pad14)*%
X118925000Y-85685000D03*
%TO.P,RPI1,15,GPIO11*%
%TO.N,unconnected-(RPI1-GPIO11-Pad15)*%
X118925000Y-88225000D03*
%TO.P,RPI1,16,GPIO12*%
%TO.N,/DAC_RDY_JP*%
X118925000Y-90765000D03*
%TO.P,RPI1,17,GPIO13*%
%TO.N,/DAC_LDAC*%
X118925000Y-93305000D03*
%TO.P,RPI1,18,GND*%
%TO.N,GND*%
X118925000Y-95845000D03*
%TO.P,RPI1,19,GPIO14*%
%TO.N,/DAC_SDA*%
X118925000Y-98385000D03*
%TO.P,RPI1,20,GPIO15*%
%TO.N,/DAC_SCL*%
X118925000Y-100925000D03*
%TO.P,RPI1,21,GPIO16*%
%TO.N,unconnected-(RPI1-GPIO16-Pad21)*%
X136705000Y-100925000D03*
%TO.P,RPI1,22,GPIO17*%
%TO.N,unconnected-(RPI1-GPIO17-Pad22)*%
X136705000Y-98385000D03*
%TO.P,RPI1,23,GND*%
%TO.N,GND*%
X136705000Y-95845000D03*
%TO.P,RPI1,24,GPIO18*%
%TO.N,unconnected-(RPI1-GPIO18-Pad24)*%
X136705000Y-93305000D03*
%TO.P,RPI1,25,GPIO19*%
%TO.N,unconnected-(RPI1-GPIO19-Pad25)*%
X136705000Y-90765000D03*
%TO.P,RPI1,26,GPIO20*%
%TO.N,/PWM2*%
X136705000Y-88225000D03*
%TO.P,RPI1,27,GPIO21*%
%TO.N,/PWM1*%
X136705000Y-85685000D03*
%TO.P,RPI1,28,GND*%
%TO.N,GND*%
X136705000Y-83145000D03*
%TO.P,RPI1,29,GPIO22*%
%TO.N,/DIG_IN*%
X136705000Y-80605000D03*
%TO.P,RPI1,30,RUN*%
%TO.N,unconnected-(RPI1-RUN-Pad30)*%
X136705000Y-78065000D03*
%TO.P,RPI1,31,GPIO26_ADC0*%
%TO.N,/AN_IN*%
X136705000Y-75525000D03*
%TO.P,RPI1,32,GPIO27_ADC1*%
%TO.N,/KNOB 1 P*%
X136705000Y-72985000D03*
%TO.P,RPI1,33,AGND*%
%TO.N,GND*%
X136705000Y-70445000D03*
%TO.P,RPI1,34,GPIO28_ADC2*%
%TO.N,/KNOB 2 P*%
X136705000Y-67905000D03*
%TO.P,RPI1,35,ADC_VREF*%
%TO.N,/ADC_VREF*%
X136705000Y-65365000D03*
%TO.P,RPI1,36,3V3*%
%TO.N,/+3.3V P*%
X136705000Y-62825000D03*
%TO.P,RPI1,37,3V3_EN*%
%TO.N,unconnected-(RPI1-3V3_EN-Pad37)*%
X136705000Y-60285000D03*
%TO.P,RPI1,38,GND*%
%TO.N,GND*%
X136705000Y-57745000D03*
%TO.P,RPI1,39,VSYS*%
%TO.N,Net-(D2-K)*%
X136705000Y-55205000D03*
%TO.P,RPI1,40,VBUS*%
%TO.N,unconnected-(RPI1-VBUS-Pad40)*%
X136705000Y-52665000D03*
%TD*%
D15*
%TO.P,C22,1*%
%TO.N,/+12V*%
X136622999Y-137668000D03*
%TO.P,C22,2*%
%TO.N,GND*%
X139572999Y-137668000D03*
%TD*%
D23*
%TO.P,U5,1*%
%TO.N,/AN_IN*%
X144148000Y-97536000D03*
%TO.P,U5,2,-*%
%TO.N,Net-(U5A--)*%
X144148000Y-98806000D03*
%TO.P,U5,3,+*%
%TO.N,GND*%
X144148000Y-100076000D03*
%TO.P,U5,4,V-*%
X144148000Y-101346000D03*
%TO.P,U5,5,+*%
%TO.N,unconnected-(U5B-+-Pad5)*%
X149098000Y-101346000D03*
%TO.P,U5,6,-*%
%TO.N,unconnected-(U5B---Pad6)*%
X149098000Y-100076000D03*
%TO.P,U5,7*%
%TO.N,unconnected-(U5-Pad7)*%
X149098000Y-98806000D03*
%TO.P,U5,8,V+*%
%TO.N,/+3.3V P*%
X149098000Y-97536000D03*
%TD*%
D16*
%TO.P,R2,1*%
%TO.N,Net-(U3D-+)*%
X141988000Y-113030000D03*
%TO.P,R2,2*%
%TO.N,/PWM2*%
X140968000Y-113030000D03*
%TD*%
D21*
%TO.P,R30,1*%
%TO.N,Net-(U3D--)*%
X140589000Y-114298000D03*
%TO.P,R30,2*%
%TO.N,GND*%
X140589000Y-115318000D03*
%TD*%
D12*
%TO.P,R21,1*%
%TO.N,Net-(U3B--)*%
X151257000Y-107825000D03*
%TO.P,R21,2*%
%TO.N,Net-(R21-Pad2)*%
X151257000Y-106805000D03*
%TD*%
%TO.P,R39,1*%
%TO.N,/OUTPUT 5 P*%
X132892800Y-103989600D03*
%TO.P,R39,2*%
%TO.N,Net-(U4C--)*%
X132892800Y-102969600D03*
%TD*%
D23*
%TO.P,U4,1*%
%TO.N,/OUTPUT 6 P*%
X125793000Y-96489000D03*
%TO.P,U4,2,-*%
%TO.N,Net-(U4A--)*%
X125793000Y-97759000D03*
%TO.P,U4,3,+*%
%TO.N,Net-(U4A-+)*%
X125793000Y-99029000D03*
%TO.P,U4,4,V+*%
%TO.N,/+12V*%
X125793000Y-100299000D03*
%TO.P,U4,5,+*%
%TO.N,Net-(U4B-+)*%
X125793000Y-101569000D03*
%TO.P,U4,6,-*%
%TO.N,Net-(U4B--)*%
X125793000Y-102839000D03*
%TO.P,U4,7*%
%TO.N,/OUTPUT 4 P*%
X125793000Y-104109000D03*
%TO.P,U4,8*%
%TO.N,/OUTPUT 5 P*%
X130743000Y-104109000D03*
%TO.P,U4,9,-*%
%TO.N,Net-(U4C--)*%
X130743000Y-102839000D03*
%TO.P,U4,10,+*%
%TO.N,Net-(U4C-+)*%
X130743000Y-101569000D03*
%TO.P,U4,11,V-*%
%TO.N,/-12V*%
X130743000Y-100299000D03*
%TO.P,U4,12,+*%
%TO.N,Net-(U4D-+)*%
X130743000Y-99029000D03*
%TO.P,U4,13,-*%
%TO.N,Net-(U4D--)*%
X130743000Y-97759000D03*
%TO.P,U4,14*%
%TO.N,/OUTPUT 3 P*%
X130743000Y-96489000D03*
%TD*%
D24*
%TO.P,C8,1*%
%TO.N,/+3.3V P*%
X131064000Y-84711600D03*
%TO.P,C8,2*%
%TO.N,GND*%
X131064000Y-85671600D03*
%TD*%
D12*
%TO.P,R38,1*%
%TO.N,/OUTPUT 4 P*%
X123647200Y-103989600D03*
%TO.P,R38,2*%
%TO.N,Net-(U4B--)*%
X123647200Y-102969600D03*
%TD*%
D24*
%TO.P,C13,1*%
%TO.N,Net-(U4C-+)*%
X129030000Y-105733000D03*
%TO.P,C13,2*%
%TO.N,GND*%
X129030000Y-106693000D03*
%TD*%
%TO.P,C2,1*%
%TO.N,/ADC_VREF*%
X128879600Y-64216400D03*
%TO.P,C2,2*%
%TO.N,GND*%
X128879600Y-65176400D03*
%TD*%
D19*
%TO.P,R34,1*%
%TO.N,Net-(U4D--)*%
X132840000Y-97776000D03*
%TO.P,R34,2*%
%TO.N,GND*%
X133860000Y-97776000D03*
%TD*%
%TO.P,R26,1*%
%TO.N,/+3.3V P*%
X130706400Y-79603600D03*
%TO.P,R26,2*%
%TO.N,/DIG_IN*%
X131726400Y-79603600D03*
%TD*%
D12*
%TO.P,R36,1*%
%TO.N,/OUTPUT 2 P*%
X141986000Y-115318000D03*
%TO.P,R36,2*%
%TO.N,Net-(U3D--)*%
X141986000Y-114298000D03*
%TD*%
%TO.P,R29,1*%
%TO.N,Net-(U3C--)*%
X140589000Y-106553000D03*
%TO.P,R29,2*%
%TO.N,GND*%
X140589000Y-105533000D03*
%TD*%
D24*
%TO.P,C5,1*%
%TO.N,/+12V*%
X151257000Y-110495200D03*
%TO.P,C5,2*%
%TO.N,GND*%
X151257000Y-111455200D03*
%TD*%
D13*
%TO.P,C9,1*%
%TO.N,Net-(U3C-+)*%
X141958000Y-109093000D03*
%TO.P,C9,2*%
%TO.N,GND*%
X140998000Y-109093000D03*
%TD*%
D18*
%TO.P,D5,1,K*%
%TO.N,/+5V*%
X137287000Y-125730000D03*
%TO.P,D5,2,A*%
%TO.N,Net-(D5-A)*%
X141287000Y-125730000D03*
%TD*%
D25*
%TO.P,D3,1,K*%
%TO.N,Net-(D3-K)*%
X141351000Y-145161000D03*
%TO.P,D3,2,A*%
%TO.N,/-12V*%
X137351000Y-145161000D03*
%TD*%
D12*
%TO.P,R6,1*%
%TO.N,Net-(U4D-+)*%
X130048000Y-93261000D03*
%TO.P,R6,2*%
%TO.N,/DACD*%
X130048000Y-92241000D03*
%TD*%
D26*
%TO.P,C1,1*%
%TO.N,/+3.3V P*%
X133654800Y-62773600D03*
%TO.P,C1,2*%
%TO.N,GND*%
X133654800Y-60873600D03*
%TD*%
D12*
%TO.P,R28,1*%
%TO.N,/ANALOGUE IN P*%
X152527000Y-108866400D03*
%TO.P,R28,2*%
%TO.N,Net-(U3B--)*%
X152527000Y-107846400D03*
%TD*%
D27*
%TO.P,FB1,1*%
%TO.N,/Euro+5*%
X141859000Y-131110500D03*
%TO.P,FB1,2*%
%TO.N,Net-(D5-A)*%
X141859000Y-128985500D03*
%TD*%
D28*
%TO.P,J1,1,Pin_1*%
%TO.N,/Euro-12*%
X149987000Y-147320000D03*
D29*
%TO.P,J1,2,Pin_2*%
X147447000Y-147320000D03*
%TO.P,J1,3,Pin_3*%
%TO.N,GND*%
X149987000Y-144780000D03*
%TO.P,J1,4,Pin_4*%
X147447000Y-144780000D03*
%TO.P,J1,5,Pin_5*%
X149987000Y-142240000D03*
%TO.P,J1,6,Pin_6*%
X147447000Y-142240000D03*
%TO.P,J1,7,Pin_7*%
X149987000Y-139700000D03*
%TO.P,J1,8,Pin_8*%
X147447000Y-139700000D03*
%TO.P,J1,9,Pin_9*%
%TO.N,/Euro+12*%
X149987000Y-137160000D03*
%TO.P,J1,10,Pin_10*%
X147447000Y-137160000D03*
%TO.P,J1,11,Pin_11*%
%TO.N,/Euro+5*%
X149987000Y-134620000D03*
%TO.P,J1,12,Pin_12*%
X147447000Y-134620000D03*
%TO.P,J1,13,Pin_13*%
%TO.N,unconnected-(J1-Pin_13-Pad13)*%
X149987000Y-132080000D03*
%TO.P,J1,14,Pin_14*%
%TO.N,unconnected-(J1-Pin_14-Pad14)*%
X147447000Y-132080000D03*
%TO.P,J1,15,Pin_15*%
%TO.N,unconnected-(J1-Pin_15-Pad15)*%
X149987000Y-129540000D03*
%TO.P,J1,16,Pin_16*%
%TO.N,unconnected-(J1-Pin_16-Pad16)*%
X147447000Y-129540000D03*
%TD*%
D30*
%TO.P,C6,1*%
%TO.N,GND*%
X140998000Y-110490000D03*
%TO.P,C6,2*%
%TO.N,/-12V*%
X141958000Y-110490000D03*
%TD*%
D15*
%TO.P,C23,1*%
%TO.N,/-12V*%
X136701000Y-151384000D03*
%TO.P,C23,2*%
%TO.N,GND*%
X139651000Y-151384000D03*
%TD*%
D16*
%TO.P,R32,1*%
%TO.N,Net-(U4B--)*%
X123571000Y-101549200D03*
%TO.P,R32,2*%
%TO.N,GND*%
X122551000Y-101549200D03*
%TD*%
D31*
%TO.P,FB2,1*%
%TO.N,/Euro+12*%
X141859000Y-135843500D03*
%TO.P,FB2,2*%
%TO.N,Net-(D4-A)*%
X141859000Y-137968500D03*
%TD*%
D16*
%TO.P,R31,1*%
%TO.N,Net-(U4A--)*%
X123573000Y-97790000D03*
%TO.P,R31,2*%
%TO.N,GND*%
X122553000Y-97790000D03*
%TD*%
D32*
%TO.P,D2,1,K*%
%TO.N,Net-(D2-K)*%
X144780000Y-55150000D03*
%TO.P,D2,2,A*%
%TO.N,/+5V*%
X144780000Y-59150000D03*
%TD*%
D33*
%TO.P,C14,1*%
%TO.N,Net-(U4D-+)*%
X131318000Y-93231000D03*
%TO.P,C14,2*%
%TO.N,GND*%
X131318000Y-92271000D03*
%TD*%
D16*
%TO.P,R40,1*%
%TO.N,/OUTPUT 3 P*%
X133860000Y-96393000D03*
%TO.P,R40,2*%
%TO.N,Net-(U4D--)*%
X132840000Y-96393000D03*
%TD*%
D13*
%TO.P,C3,1*%
%TO.N,/+12V*%
X123565000Y-100299000D03*
%TO.P,C3,2*%
%TO.N,GND*%
X122605000Y-100299000D03*
%TD*%
D12*
%TO.P,R5,1*%
%TO.N,Net-(U4C-+)*%
X128778000Y-93259000D03*
%TO.P,R5,2*%
%TO.N,/DACC*%
X128778000Y-92239000D03*
%TD*%
D13*
%TO.P,C7,1*%
%TO.N,/+3.3V P*%
X149070000Y-95631000D03*
%TO.P,C7,2*%
%TO.N,GND*%
X148110000Y-95631000D03*
%TD*%
D34*
%TO.P,U2,1,VDD*%
%TO.N,/+3.3V P*%
X129381000Y-84709000D03*
%TO.P,U2,2,SCL*%
%TO.N,/DAC_SCL*%
X128881000Y-84709000D03*
%TO.P,U2,3,SDA*%
%TO.N,/DAC_SDA*%
X128381000Y-84709000D03*
%TO.P,U2,4,~{LDAC}*%
%TO.N,/DAC_LDAC*%
X127881000Y-84709000D03*
%TO.P,U2,5,RDY/~{BSY}*%
%TO.N,/DAC_RDY*%
X127381000Y-84709000D03*
%TO.P,U2,6,VOUTA*%
%TO.N,/DACA*%
X127381000Y-89109000D03*
%TO.P,U2,7,VOUTB*%
%TO.N,/DACB*%
X127881000Y-89109000D03*
%TO.P,U2,8,VOUTC*%
%TO.N,/DACC*%
X128381000Y-89109000D03*
%TO.P,U2,9,VOUTD*%
%TO.N,/DACD*%
X128881000Y-89109000D03*
%TO.P,U2,10,VSS*%
%TO.N,GND*%
X129381000Y-89109000D03*
%TD*%
D15*
%TO.P,C21,1*%
%TO.N,/+12V*%
X136574000Y-134874000D03*
%TO.P,C21,2*%
%TO.N,GND*%
X139524000Y-134874000D03*
%TD*%
D10*
%TO.P,J4,1,Pin_1*%
%TO.N,/GP2*%
X153670000Y-52705000D03*
D11*
%TO.P,J4,2,Pin_2*%
%TO.N,/GP3*%
X153670000Y-55245000D03*
%TO.P,J4,3,Pin_3*%
%TO.N,/+3.3V P*%
X153670000Y-57785000D03*
%TO.P,J4,4,Pin_4*%
%TO.N,GND*%
X153670000Y-60325000D03*
%TD*%
D27*
%TO.P,FB3,1*%
%TO.N,/Euro-12*%
X141859000Y-150922500D03*
%TO.P,FB3,2*%
%TO.N,Net-(D3-K)*%
X141859000Y-148797500D03*
%TD*%
D35*
%TO.P,U3,1*%
%TO.N,unconnected-(U3-Pad1)*%
X149083800Y-114300000D03*
%TO.P,U3,2,-*%
%TO.N,unconnected-(U3A---Pad2)*%
X149083800Y-113030000D03*
%TO.P,U3,3,+*%
%TO.N,unconnected-(U3A-+-Pad3)*%
X149083800Y-111760000D03*
%TO.P,U3,4,V+*%
%TO.N,/+12V*%
X149083800Y-110490000D03*
%TO.P,U3,5,+*%
%TO.N,GND*%
X149083800Y-109220000D03*
%TO.P,U3,6,-*%
%TO.N,Net-(U3B--)*%
X149083800Y-107950000D03*
%TO.P,U3,7*%
%TO.N,Net-(R21-Pad2)*%
X149083800Y-106680000D03*
%TO.P,U3,8*%
%TO.N,/OUTPUT 1 P*%
X144133800Y-106680000D03*
%TO.P,U3,9,-*%
%TO.N,Net-(U3C--)*%
X144133800Y-107950000D03*
%TO.P,U3,10,+*%
%TO.N,Net-(U3C-+)*%
X144133800Y-109220000D03*
%TO.P,U3,11,V-*%
%TO.N,/-12V*%
X144133800Y-110490000D03*
%TO.P,U3,12,+*%
%TO.N,Net-(U3D-+)*%
X144133800Y-111760000D03*
%TO.P,U3,13,-*%
%TO.N,Net-(U3D--)*%
X144133800Y-113030000D03*
%TO.P,U3,14*%
%TO.N,/OUTPUT 2 P*%
X144133800Y-114300000D03*
%TD*%
D24*
%TO.P,C12,1*%
%TO.N,Net-(U4B-+)*%
X127508000Y-105733000D03*
%TO.P,C12,2*%
%TO.N,GND*%
X127508000Y-106693000D03*
%TD*%
D16*
%TO.P,R1,1*%
%TO.N,Net-(U3C-+)*%
X141988000Y-107823000D03*
%TO.P,R1,2*%
%TO.N,/PWM1*%
X140968000Y-107823000D03*
%TD*%
D12*
%TO.P,R23,1*%
%TO.N,Net-(U5A--)*%
X141732000Y-98681000D03*
%TO.P,R23,2*%
%TO.N,/AN_IN*%
X141732000Y-97661000D03*
%TD*%
D19*
%TO.P,R37,1*%
%TO.N,/OUTPUT 6 P*%
X122553000Y-96393000D03*
%TO.P,R37,2*%
%TO.N,Net-(U4A--)*%
X123573000Y-96393000D03*
%TD*%
D21*
%TO.P,R25,1*%
%TO.N,/BUTTON 2 P*%
X143256000Y-76350400D03*
%TO.P,R25,2*%
%TO.N,/+3.3V P*%
X143256000Y-77370400D03*
%TD*%
%TO.P,R35,1*%
%TO.N,/OUTPUT 1 P*%
X141986000Y-105533000D03*
%TO.P,R35,2*%
%TO.N,Net-(U3C--)*%
X141986000Y-106553000D03*
%TD*%
D33*
%TO.P,C11,1*%
%TO.N,Net-(U4A-+)*%
X124968000Y-93231000D03*
%TO.P,C11,2*%
%TO.N,GND*%
X124968000Y-92271000D03*
%TD*%
D10*
%TO.P,J3,1,Pin_1*%
%TO.N,/OUTPUT 6 P*%
X121015000Y-113625000D03*
D11*
%TO.P,J3,2,Pin_2*%
%TO.N,/OUTPUT 5 P*%
X121015000Y-116165000D03*
%TO.P,J3,3,Pin_3*%
%TO.N,/OUTPUT 4 P*%
X123555000Y-113625000D03*
%TO.P,J3,4,Pin_4*%
%TO.N,/ANALOGUE IN P*%
X123555000Y-116165000D03*
%TO.P,J3,5,Pin_5*%
%TO.N,/OUTPUT 1 P*%
X126095000Y-113625000D03*
%TO.P,J3,6,Pin_6*%
%TO.N,/OUTPUT 2 P*%
X126095000Y-116165000D03*
%TO.P,J3,7,Pin_7*%
%TO.N,/OUTPUT 3 P*%
X128635000Y-113625000D03*
%TO.P,J3,8,Pin_8*%
%TO.N,/DIGITAL IN P*%
X128635000Y-116165000D03*
%TD*%
D10*
%TO.P,J2,1,Pin_1*%
%TO.N,GND*%
X143235000Y-65725000D03*
D11*
%TO.P,J2,2,Pin_2*%
%TO.N,/BUTTON 1 P*%
X140695000Y-65725000D03*
%TO.P,J2,3,Pin_3*%
%TO.N,/OLED SDA P*%
X143235000Y-68265000D03*
%TO.P,J2,4,Pin_4*%
%TO.N,/OLED SCL P*%
X140695000Y-68265000D03*
%TO.P,J2,5,Pin_5*%
%TO.N,/KNOB 2 P*%
X143235000Y-70805000D03*
%TO.P,J2,6,Pin_6*%
%TO.N,/KNOB 1 P*%
X140695000Y-70805000D03*
%TO.P,J2,7,Pin_7*%
%TO.N,/BUTTON 2 P*%
X143235000Y-73345000D03*
%TO.P,J2,8,Pin_8*%
%TO.N,/+3.3V P*%
X140695000Y-73345000D03*
%TD*%
D10*
%TO.P,J5,1,Pin_1*%
%TO.N,/DAC_RDY*%
X127381000Y-78232000D03*
D11*
%TO.P,J5,2,Pin_2*%
%TO.N,/DAC_RDY_JP*%
X124841000Y-78232000D03*
%TD*%
D36*
%TO.N,/+5V*%
X138557000Y-122936000D03*
%TO.N,GND*%
X130149600Y-90474800D03*
X139827000Y-109093000D03*
X139446000Y-127508000D03*
X139573000Y-146939000D03*
X138430000Y-136271000D03*
X126365000Y-106680000D03*
X141732000Y-134112000D03*
X131085977Y-86642823D03*
X140589000Y-116332000D03*
X134239000Y-99058000D03*
X139573000Y-153416000D03*
X140589000Y-104521000D03*
X131318000Y-91186000D03*
X138430000Y-133477000D03*
X138430000Y-149987000D03*
X130606800Y-75692000D03*
X128905000Y-66421000D03*
X141833600Y-101346000D03*
X148082000Y-94361000D03*
D37*
X136042400Y-106807000D03*
D36*
X138430000Y-130683000D03*
X122021600Y-99060000D03*
X122529600Y-102920800D03*
X151257000Y-112649000D03*
X151130000Y-109220000D03*
X134112000Y-102920800D03*
X139446000Y-139446000D03*
X124968000Y-91186000D03*
X130175000Y-106680000D03*
X139827000Y-111760000D03*
X131978400Y-60858400D03*
X141732000Y-132842000D03*
X141859000Y-100076000D03*
%TO.N,/PWM1*%
X139700000Y-85725000D03*
%TO.N,/PWM2*%
X137795000Y-111760000D03*
%TO.N,/OLED SCL P*%
X130556000Y-69215000D03*
%TO.N,/BUTTON 1 P*%
X140716000Y-61595000D03*
%TO.N,/BUTTON 2 P*%
X127762000Y-70307200D03*
X132791200Y-70358000D03*
%TO.N,/OUTPUT 1 P*%
X130352800Y-110236000D03*
X141935200Y-103581200D03*
%TO.N,/+12V*%
X123545600Y-99110800D03*
X146939000Y-116890800D03*
X146939000Y-121412000D03*
X119583200Y-103835200D03*
%TO.N,/-12V*%
X132969000Y-124206000D03*
X132842000Y-99060000D03*
X146431000Y-109601000D03*
X140868400Y-102463600D03*
%TO.N,/+3.3V P*%
X149011000Y-62825000D03*
%TD*%
D38*
%TO.N,/+12V*%
X134620000Y-122301000D02*
X125780800Y-122301000D01*
X125844181Y-131114800D02*
X125844181Y-122301000D01*
X126555381Y-131826000D02*
X125844181Y-131114800D01*
X128688981Y-131826000D02*
X126555381Y-131826000D01*
X125780800Y-122301000D02*
X121158000Y-122301000D01*
%TO.N,/-12V*%
X132969000Y-141986000D02*
X132969000Y-136855200D01*
X132969000Y-136855200D02*
X132969000Y-125603000D01*
X128688981Y-136906000D02*
X132981581Y-136906000D01*
D39*
%TO.N,/BUTTON 1 P*%
X140716000Y-61595000D02*
X143177800Y-61595000D01*
X143177800Y-61595000D02*
X143205200Y-61567600D01*
D38*
%TO.N,/+3.3V P*%
X149098000Y-79705200D02*
X149098000Y-77368400D01*
X149096000Y-77370400D02*
X149098000Y-77368400D01*
X149098000Y-77368400D02*
X149098000Y-63754000D01*
X144729200Y-77370400D02*
X149096000Y-77370400D01*
X143256000Y-77370400D02*
X144729200Y-77370400D01*
X140695000Y-73345000D02*
X140695000Y-76433000D01*
X140695000Y-76433000D02*
X141632400Y-77370400D01*
X141632400Y-77370400D02*
X143256000Y-77370400D01*
X149098000Y-81280000D02*
X149098000Y-79705200D01*
%TO.N,GND*%
X149083800Y-109220000D02*
X151130000Y-109220000D01*
D40*
X130623600Y-77597000D02*
X130623600Y-75708800D01*
X122551000Y-102899400D02*
X122529600Y-102920800D01*
D38*
X127508000Y-106693000D02*
X126505000Y-106693000D01*
D39*
X151257000Y-111455200D02*
X151257000Y-112649000D01*
X133860000Y-102618000D02*
X133985000Y-102743000D01*
D38*
X130634500Y-66421000D02*
X128905000Y-66421000D01*
D40*
X129381000Y-89109000D02*
X129381000Y-90214200D01*
D39*
X124968000Y-92271000D02*
X124968000Y-91186000D01*
X133860000Y-101768000D02*
X133860000Y-102412800D01*
X128879600Y-66395600D02*
X128905000Y-66421000D01*
X126505000Y-106693000D02*
X126492000Y-106680000D01*
D38*
X131993600Y-60873600D02*
X131978400Y-60858400D01*
D40*
X122605000Y-100299000D02*
X122605000Y-99643400D01*
X122553000Y-97790000D02*
X122553000Y-98528600D01*
X129381000Y-90214200D02*
X129641600Y-90474800D01*
D39*
X140998000Y-110490000D02*
X140998000Y-111760000D01*
D38*
X148110000Y-95631000D02*
X148110000Y-94389000D01*
D40*
X129641600Y-90474800D02*
X129997200Y-90474800D01*
X130799800Y-75499000D02*
X130606800Y-75692000D01*
D39*
X131318000Y-92271000D02*
X131318000Y-91186000D01*
X133860000Y-102668800D02*
X134112000Y-102920800D01*
X133830000Y-99467000D02*
X134239000Y-99058000D01*
X133830000Y-100299000D02*
X133830000Y-99467000D01*
D40*
X122605000Y-99643400D02*
X122021600Y-99060000D01*
X133860000Y-97776000D02*
X133860000Y-98679000D01*
D38*
X148110000Y-94389000D02*
X148082000Y-94361000D01*
D39*
X140589000Y-105533000D02*
X140589000Y-104521000D01*
D38*
X140998000Y-111760000D02*
X139827000Y-111760000D01*
D39*
X128879600Y-65176400D02*
X128879600Y-66395600D01*
D40*
X122551000Y-101641000D02*
X122551000Y-102899400D01*
D39*
X131064000Y-85671600D02*
X131064000Y-86620846D01*
D38*
X129030000Y-106693000D02*
X130035000Y-106693000D01*
D39*
X140589000Y-115318000D02*
X140589000Y-116332000D01*
D40*
X133860000Y-98679000D02*
X134239000Y-99058000D01*
D38*
X133654800Y-60873600D02*
X131993600Y-60873600D01*
D40*
X130799800Y-73759300D02*
X130799800Y-75499000D01*
D39*
X133860000Y-102412800D02*
X133860000Y-102668800D01*
X131064000Y-86620846D02*
X131085977Y-86642823D01*
D38*
X144148000Y-101346000D02*
X141833600Y-101346000D01*
D40*
X130623600Y-75708800D02*
X130606800Y-75692000D01*
D38*
X140998000Y-109093000D02*
X139827000Y-109093000D01*
X144148000Y-100076000D02*
X142113000Y-100076000D01*
D39*
X133860000Y-102412800D02*
X133860000Y-102618000D01*
X130035000Y-106693000D02*
X130048000Y-106680000D01*
D40*
X122553000Y-98528600D02*
X122021600Y-99060000D01*
D41*
%TO.N,/ADC_VREF*%
X131561800Y-65471000D02*
X130302000Y-64211200D01*
X130302000Y-64211200D02*
X128884800Y-64211200D01*
X128884800Y-64211200D02*
X128879600Y-64216400D01*
X132509500Y-65471000D02*
X131561800Y-65471000D01*
X132560000Y-65420500D02*
X132509500Y-65471000D01*
X132509500Y-65471000D02*
X132615500Y-65365000D01*
X132615500Y-65365000D02*
X136705000Y-65365000D01*
D39*
%TO.N,Net-(U4A-+)*%
X126904000Y-99029000D02*
X127254000Y-98679000D01*
X127254000Y-98679000D02*
X127254000Y-95504000D01*
X126238000Y-94488000D02*
X126238000Y-93263000D01*
X126193000Y-93218000D02*
X126238000Y-93263000D01*
X124968000Y-93231000D02*
X124968000Y-93218000D01*
X124968000Y-93218000D02*
X126193000Y-93218000D01*
X125793000Y-99029000D02*
X126904000Y-99029000D01*
X127254000Y-95504000D02*
X126238000Y-94488000D01*
%TO.N,Net-(U4B-+)*%
X127889000Y-100711000D02*
X127571500Y-101028500D01*
X127889000Y-94869000D02*
X127889000Y-100711000D01*
X127508000Y-105733000D02*
X127508000Y-101600000D01*
X127508000Y-101600000D02*
X127508000Y-101092000D01*
X125793000Y-101569000D02*
X127477000Y-101569000D01*
X127508000Y-101092000D02*
X127571500Y-101028500D01*
X127508000Y-94488000D02*
X127889000Y-94869000D01*
X127477000Y-101569000D02*
X127508000Y-101600000D01*
X127508000Y-93261000D02*
X127508000Y-94488000D01*
%TO.N,Net-(U4C-+)*%
X129032000Y-101219000D02*
X129030000Y-101221000D01*
X130743000Y-101569000D02*
X129061000Y-101569000D01*
X128778000Y-94615000D02*
X128524000Y-94869000D01*
X128778000Y-93259000D02*
X128778000Y-94615000D01*
X128524000Y-100711000D02*
X129032000Y-101219000D01*
X129030000Y-101221000D02*
X129030000Y-105733000D01*
X128524000Y-94869000D02*
X128524000Y-100711000D01*
%TO.N,Net-(U4D-+)*%
X130048000Y-94615000D02*
X130048000Y-93261000D01*
X129159000Y-98552000D02*
X129159000Y-95504000D01*
X129636000Y-99029000D02*
X129159000Y-98552000D01*
X130078000Y-93231000D02*
X130048000Y-93261000D01*
X130743000Y-99029000D02*
X129636000Y-99029000D01*
X129159000Y-95504000D02*
X130048000Y-94615000D01*
X131318000Y-93231000D02*
X130078000Y-93231000D01*
%TO.N,Net-(U3C-+)*%
X141958000Y-109093000D02*
X144006800Y-109093000D01*
X141988000Y-107823000D02*
X141988000Y-109063000D01*
X141988000Y-109063000D02*
X141958000Y-109093000D01*
X144006800Y-109093000D02*
X144133800Y-109220000D01*
%TO.N,/GP2*%
X148844000Y-50292000D02*
X151257000Y-52705000D01*
X118925000Y-60285000D02*
X120309000Y-60285000D01*
X120309000Y-60285000D02*
X130302000Y-50292000D01*
X130302000Y-50292000D02*
X148844000Y-50292000D01*
X151257000Y-52705000D02*
X153670000Y-52705000D01*
%TO.N,/GP3*%
X120436000Y-62825000D02*
X118925000Y-62825000D01*
X146939000Y-50927000D02*
X132334000Y-50927000D01*
X151257000Y-55245000D02*
X146939000Y-50927000D01*
X132334000Y-50927000D02*
X120436000Y-62825000D01*
X153670000Y-55245000D02*
X151257000Y-55245000D01*
%TO.N,Net-(U3D-+)*%
X141958000Y-111760000D02*
X144133800Y-111760000D01*
X141988000Y-111790000D02*
X141958000Y-111760000D01*
X141988000Y-113030000D02*
X141988000Y-111790000D01*
D38*
%TO.N,/Euro+5*%
X144780000Y-133731000D02*
X144780000Y-131953000D01*
X147447000Y-134620000D02*
X145669000Y-134620000D01*
X147447000Y-134620000D02*
X149987000Y-134620000D01*
X144780000Y-131953000D02*
X143937500Y-131110500D01*
X141859000Y-131110500D02*
X143937500Y-131110500D01*
X145669000Y-134620000D02*
X144780000Y-133731000D01*
%TO.N,/Euro+12*%
X147447000Y-137160000D02*
X149987000Y-137160000D01*
X141859000Y-135843500D02*
X143717500Y-135843500D01*
X145034000Y-137160000D02*
X147447000Y-137160000D01*
X143717500Y-135843500D02*
X145034000Y-137160000D01*
%TO.N,/Euro-12*%
X141859000Y-150922500D02*
X146511500Y-150922500D01*
X146511500Y-150922500D02*
X147447000Y-149987000D01*
X147447000Y-147320000D02*
X149987000Y-147320000D01*
X147447000Y-149987000D02*
X147447000Y-147320000D01*
D39*
%TO.N,/DIG_IN*%
X134431400Y-80605000D02*
X136705000Y-80605000D01*
X131726400Y-79603600D02*
X133400800Y-79603600D01*
X133400800Y-79603600D02*
X134416800Y-80619600D01*
X131749800Y-79580200D02*
X131726400Y-79603600D01*
X131749800Y-71884300D02*
X131749800Y-79580200D01*
X134416800Y-80619600D02*
X134431400Y-80605000D01*
%TO.N,/PWM1*%
X139700000Y-107315000D02*
X140208000Y-107823000D01*
X139700000Y-85725000D02*
X139700000Y-107315000D01*
X140208000Y-107823000D02*
X140968000Y-107823000D01*
%TO.N,/PWM2*%
X139065000Y-113030000D02*
X139319000Y-113030000D01*
X137795000Y-111760000D02*
X139065000Y-113030000D01*
X140462000Y-113030000D02*
X140968000Y-113030000D01*
X140462000Y-113030000D02*
X139319000Y-113030000D01*
%TO.N,/AN_IN*%
X144023000Y-97661000D02*
X144148000Y-97536000D01*
X141732000Y-80552000D02*
X136705000Y-75525000D01*
X141732000Y-97661000D02*
X141732000Y-80552000D01*
X141732000Y-97661000D02*
X144023000Y-97661000D01*
%TO.N,/OLED SCL P*%
X135585200Y-66649600D02*
X134823200Y-67411600D01*
X140695000Y-68265000D02*
X139079600Y-66649600D01*
X134823200Y-68783200D02*
X134391400Y-69215000D01*
X134391400Y-69215000D02*
X130556000Y-69215000D01*
X134823200Y-67411600D02*
X134823200Y-68783200D01*
X139079600Y-66649600D02*
X135585200Y-66649600D01*
%TO.N,/DAC_RDY*%
X127381000Y-84709000D02*
X127381000Y-78232000D01*
%TO.N,/DAC_LDAC*%
X118925000Y-93305000D02*
X121375800Y-93305000D01*
X127881000Y-85783800D02*
X127881000Y-84709000D01*
X122732800Y-87122000D02*
X123342400Y-86512400D01*
X123342400Y-86512400D02*
X127152400Y-86512400D01*
X127152400Y-86512400D02*
X127881000Y-85783800D01*
X121375800Y-93305000D02*
X122732800Y-91948000D01*
X122732800Y-91948000D02*
X122732800Y-87122000D01*
%TO.N,/DAC_SDA*%
X128381000Y-84709000D02*
X128381000Y-86249000D01*
X128381000Y-86249000D02*
X127457200Y-87172800D01*
X119786400Y-97523600D02*
X119786400Y-96926400D01*
X119786400Y-96926400D02*
X123342400Y-93370400D01*
X127457200Y-87172800D02*
X123952000Y-87172800D01*
X123444000Y-87680800D02*
X123444000Y-93268800D01*
X118925000Y-98385000D02*
X119786400Y-97523600D01*
X123444000Y-93268800D02*
X123342400Y-93370400D01*
X123952000Y-87172800D02*
X123444000Y-87680800D01*
%TO.N,/DAC_SCL*%
X124053600Y-93421200D02*
X124053600Y-88442800D01*
X120548400Y-99301600D02*
X118925000Y-100925000D01*
X124612400Y-87884000D02*
X124053600Y-88442800D01*
X128881000Y-86714200D02*
X127711200Y-87884000D01*
X124053600Y-93421200D02*
X120548400Y-96926400D01*
X128881000Y-84709000D02*
X128881000Y-86714200D01*
X127711200Y-87884000D02*
X124612400Y-87884000D01*
X120548400Y-96926400D02*
X120548400Y-99301600D01*
%TO.N,/KNOB 2 P*%
X141975200Y-69545200D02*
X142153000Y-69723000D01*
X138345200Y-69545200D02*
X141975200Y-69545200D01*
X142153000Y-69723000D02*
X143235000Y-70805000D01*
X136705000Y-67905000D02*
X138345200Y-69545200D01*
%TO.N,/KNOB 1 P*%
X138885000Y-70805000D02*
X136705000Y-72985000D01*
X140695000Y-70805000D02*
X138885000Y-70805000D01*
D40*
%TO.N,Net-(D1-K)*%
X132723600Y-77597000D02*
X132723600Y-75702600D01*
D39*
X132699800Y-73759300D02*
X132699800Y-75679800D01*
%TO.N,Net-(U3B--)*%
X151257000Y-107825000D02*
X149208800Y-107825000D01*
X151257000Y-107825000D02*
X152527000Y-107825000D01*
X149208800Y-107825000D02*
X149083800Y-107950000D01*
D38*
%TO.N,Net-(D3-K)*%
X141859000Y-145669000D02*
X141351000Y-145161000D01*
X141859000Y-148797500D02*
X141859000Y-145669000D01*
%TO.N,Net-(D4-A)*%
X141351000Y-141224000D02*
X141859000Y-140716000D01*
X141859000Y-140716000D02*
X141859000Y-137968500D01*
D39*
%TO.N,Net-(R21-Pad2)*%
X148336000Y-103124000D02*
X147195000Y-103124000D01*
X149083800Y-103871800D02*
X148336000Y-103124000D01*
X149208800Y-106805000D02*
X149083800Y-106680000D01*
X149083800Y-106680000D02*
X149083800Y-103871800D01*
X151257000Y-106805000D02*
X149208800Y-106805000D01*
%TO.N,Net-(U5A--)*%
X144023000Y-98681000D02*
X144148000Y-98806000D01*
X145415000Y-98806000D02*
X146175000Y-99566000D01*
X146175000Y-99566000D02*
X146175000Y-103124000D01*
X144148000Y-98806000D02*
X145415000Y-98806000D01*
X141732000Y-98681000D02*
X144023000Y-98681000D01*
%TO.N,Net-(U4A--)*%
X123604000Y-97759000D02*
X123573000Y-97790000D01*
X123573000Y-97790000D02*
X123573000Y-96393000D01*
X125793000Y-97759000D02*
X123604000Y-97759000D01*
%TO.N,Net-(U4B--)*%
X125793000Y-102839000D02*
X123854000Y-102839000D01*
D40*
X123571000Y-101641000D02*
X123571000Y-102817200D01*
D39*
%TO.N,Net-(U4C--)*%
X132991000Y-101919000D02*
X132840000Y-101768000D01*
X130743000Y-102839000D02*
X132739000Y-102839000D01*
X132991000Y-103091000D02*
X132991000Y-101919000D01*
X132739000Y-102839000D02*
X132991000Y-103091000D01*
%TO.N,Net-(U4D--)*%
X132823000Y-97759000D02*
X132840000Y-97776000D01*
X132840000Y-97776000D02*
X132840000Y-96393000D01*
X130743000Y-97759000D02*
X132823000Y-97759000D01*
%TO.N,Net-(U3C--)*%
X140589000Y-106553000D02*
X141986000Y-106553000D01*
X141986000Y-106553000D02*
X143383000Y-107950000D01*
X143383000Y-107950000D02*
X144133800Y-107950000D01*
%TO.N,Net-(U3D--)*%
X144133800Y-113030000D02*
X143254000Y-113030000D01*
X141986000Y-114298000D02*
X140589000Y-114298000D01*
X143254000Y-113030000D02*
X141986000Y-114298000D01*
%TO.N,/BUTTON 1 P*%
X120381400Y-65365000D02*
X118925000Y-65365000D01*
X140716000Y-60960000D02*
X138785600Y-59029600D01*
X126746000Y-59029600D02*
X120396000Y-65379600D01*
X140716000Y-61595000D02*
X140716000Y-60960000D01*
X138785600Y-59029600D02*
X126746000Y-59029600D01*
X120396000Y-65379600D02*
X120381400Y-65365000D01*
D41*
%TO.N,/BUTTON 2 P*%
X134416800Y-73812400D02*
X134874000Y-74269600D01*
X120838600Y-67905000D02*
X118925000Y-67905000D01*
X123240800Y-70307200D02*
X127762000Y-70307200D01*
X134874000Y-74269600D02*
X138430000Y-74269600D01*
X138988800Y-72136000D02*
X142026000Y-72136000D01*
X138582400Y-74117200D02*
X138582400Y-72542400D01*
X138430000Y-74269600D02*
X138582400Y-74117200D01*
X134416800Y-70713600D02*
X134416800Y-73812400D01*
X138582400Y-72542400D02*
X138988800Y-72136000D01*
X142026000Y-72136000D02*
X143235000Y-73345000D01*
X123240800Y-70307200D02*
X120838600Y-67905000D01*
X134061200Y-70358000D02*
X134416800Y-70713600D01*
X143235000Y-76435000D02*
X143235000Y-73345000D01*
X132791200Y-70358000D02*
X134061200Y-70358000D01*
D39*
%TO.N,/OUTPUT 6 P*%
X121015000Y-113625000D02*
X121015000Y-97272600D01*
X125793000Y-95821000D02*
X125476000Y-95504000D01*
X125793000Y-96489000D02*
X125793000Y-95821000D01*
X121894600Y-96393000D02*
X122553000Y-96393000D01*
X125476000Y-95504000D02*
X122936000Y-95504000D01*
X122553000Y-95887000D02*
X122553000Y-96393000D01*
X121015000Y-97272600D02*
X121894600Y-96393000D01*
X122936000Y-95504000D02*
X122553000Y-95887000D01*
%TO.N,/OUTPUT 5 P*%
X124841000Y-114173000D02*
X124841000Y-109347000D01*
X130810000Y-108712000D02*
X131445000Y-108077000D01*
X131445000Y-106172000D02*
X130743000Y-105470000D01*
X130743000Y-104109000D02*
X132989000Y-104109000D01*
X124841000Y-109347000D02*
X125476000Y-108712000D01*
X124104400Y-114909600D02*
X124841000Y-114173000D01*
X122270400Y-114909600D02*
X124104400Y-114909600D01*
X121015000Y-116165000D02*
X122270400Y-114909600D01*
X125476000Y-108712000D02*
X130810000Y-108712000D01*
X130743000Y-105470000D02*
X130743000Y-104109000D01*
X131445000Y-108077000D02*
X131445000Y-106172000D01*
%TO.N,/OUTPUT 4 P*%
X123555000Y-104005600D02*
X123571000Y-103989600D01*
X125793000Y-104109000D02*
X123604000Y-104109000D01*
X123555000Y-113625000D02*
X123555000Y-104005600D01*
%TO.N,/ANALOGUE IN P*%
X123555000Y-118221000D02*
X124333000Y-118999000D01*
X123555000Y-116165000D02*
X123555000Y-118221000D01*
X124333000Y-118999000D02*
X149148800Y-118999000D01*
X152527000Y-108866400D02*
X152527000Y-115620800D01*
X152527000Y-115620800D02*
X149148800Y-118999000D01*
%TO.N,/OUTPUT 1 P*%
X141935200Y-105482200D02*
X141986000Y-105533000D01*
X126095000Y-113625000D02*
X126095000Y-111598200D01*
X141986000Y-105533000D02*
X142986800Y-105533000D01*
X127457200Y-110236000D02*
X130352800Y-110236000D01*
X142986800Y-105533000D02*
X144133800Y-106680000D01*
X126095000Y-111598200D02*
X127457200Y-110236000D01*
X141935200Y-103581200D02*
X141935200Y-105482200D01*
%TO.N,/OUTPUT 2 P*%
X140843000Y-118237000D02*
X141986000Y-117094000D01*
X141986000Y-115318000D02*
X142365000Y-115318000D01*
X143383000Y-114300000D02*
X144133800Y-114300000D01*
X126492000Y-118237000D02*
X140843000Y-118237000D01*
X142365000Y-115318000D02*
X143383000Y-114300000D01*
X126095000Y-117840000D02*
X126492000Y-118237000D01*
X141986000Y-117094000D02*
X141986000Y-115318000D01*
X126095000Y-116165000D02*
X126095000Y-117840000D01*
%TO.N,/OUTPUT 3 P*%
X132941000Y-105946000D02*
X135128000Y-103759000D01*
X131064000Y-95504000D02*
X133731000Y-95504000D01*
X135128000Y-103632000D02*
X135128000Y-97155000D01*
X130743000Y-95825000D02*
X131064000Y-95504000D01*
X135128000Y-96901000D02*
X135128000Y-97155000D01*
X132941000Y-109319000D02*
X132941000Y-105946000D01*
X133860000Y-95633000D02*
X133860000Y-96393000D01*
X133731000Y-95504000D02*
X133860000Y-95633000D01*
X133860000Y-96393000D02*
X134620000Y-96393000D01*
X134620000Y-96393000D02*
X135128000Y-96901000D01*
X130743000Y-96489000D02*
X130743000Y-95825000D01*
X135128000Y-103759000D02*
X135128000Y-103632000D01*
X128635000Y-113625000D02*
X132941000Y-109319000D01*
%TO.N,/DIGITAL IN P*%
X130977000Y-116165000D02*
X128635000Y-116165000D01*
X138303000Y-79375000D02*
X135509000Y-79375000D01*
X138938000Y-108204000D02*
X130977000Y-116165000D01*
X138938000Y-108204000D02*
X138938000Y-80010000D01*
X135509000Y-79375000D02*
X134747000Y-78613000D01*
X134747000Y-76073000D02*
X134366000Y-75692000D01*
X134747000Y-78613000D02*
X134747000Y-76073000D01*
X134366000Y-75692000D02*
X133733000Y-75692000D01*
X138303000Y-79375000D02*
X138938000Y-80010000D01*
D38*
%TO.N,/+5V*%
X151892000Y-122936000D02*
X154305000Y-120523000D01*
X147846800Y-59150000D02*
X148234400Y-59537600D01*
X136606666Y-129286000D02*
X136606666Y-126410334D01*
X144780000Y-59150000D02*
X147846800Y-59150000D01*
X154305000Y-120523000D02*
X154305000Y-98679000D01*
X136590333Y-132080000D02*
X136606666Y-132063667D01*
X150876000Y-95250000D02*
X150876000Y-62179200D01*
X137287000Y-125730000D02*
X137287000Y-124206000D01*
X138557000Y-122936000D02*
X151892000Y-122936000D01*
X136606666Y-132063667D02*
X136606666Y-129286000D01*
X136606666Y-126410334D02*
X137287000Y-125730000D01*
X154305000Y-98679000D02*
X150876000Y-95250000D01*
X150876000Y-62179200D02*
X148234400Y-59537600D01*
X137287000Y-124206000D02*
X138557000Y-122936000D01*
%TO.N,/+12V*%
X136574000Y-134874000D02*
X135636000Y-134874000D01*
X123565000Y-100299000D02*
X125793000Y-100299000D01*
X121158000Y-122301000D02*
X118110000Y-119253000D01*
X118110000Y-119253000D02*
X118110000Y-105308400D01*
X135636000Y-134874000D02*
X134620000Y-133858000D01*
X134620000Y-133858000D02*
X134620000Y-122301000D01*
D40*
X149083800Y-110490000D02*
X151251800Y-110490000D01*
D38*
X151251800Y-110490000D02*
X151257000Y-110495200D01*
X149083800Y-110490000D02*
X147955000Y-110490000D01*
X136574000Y-134874000D02*
X136574000Y-137619001D01*
X146939000Y-111506000D02*
X146939000Y-116890800D01*
X136622999Y-137668000D02*
X136622999Y-140495999D01*
X123565000Y-100299000D02*
X123565000Y-99447000D01*
X136574000Y-137619001D02*
X136622999Y-137668000D01*
X146875500Y-121412000D02*
X135509000Y-121412000D01*
X118110000Y-105308400D02*
X119583200Y-103835200D01*
X136622999Y-140495999D02*
X137351000Y-141224000D01*
X147955000Y-110490000D02*
X146939000Y-111506000D01*
X135509000Y-121412000D02*
X134620000Y-122301000D01*
%TO.N,/-12V*%
X132969000Y-124206000D02*
X132969000Y-125603000D01*
X135001000Y-145161000D02*
X132969000Y-143129000D01*
X130743000Y-100299000D02*
X132737000Y-100299000D01*
X146431000Y-109601000D02*
X146431000Y-106248200D01*
D39*
X132870000Y-99088000D02*
X132842000Y-99060000D01*
D38*
X136701000Y-145811000D02*
X137351000Y-145161000D01*
X132870000Y-100299000D02*
X132870000Y-99088000D01*
X146431000Y-106248200D02*
X142646400Y-102463600D01*
D39*
X141958000Y-110490000D02*
X144133800Y-110490000D01*
D38*
X145542000Y-110490000D02*
X144133800Y-110490000D01*
X136701000Y-148590000D02*
X136701000Y-145811000D01*
X137351000Y-145161000D02*
X135001000Y-145161000D01*
X132969000Y-143129000D02*
X132969000Y-141986000D01*
X142646400Y-102463600D02*
X140868400Y-102463600D01*
X146431000Y-109601000D02*
X145542000Y-110490000D01*
X136701000Y-151384000D02*
X136701000Y-148590000D01*
%TO.N,/+3.3V P*%
X149098000Y-62738000D02*
X149098000Y-63754000D01*
X128371600Y-62839600D02*
X132915600Y-62839600D01*
X133654800Y-62773600D02*
X136653600Y-62773600D01*
D40*
X129381000Y-84709000D02*
X129381000Y-83369400D01*
X130706400Y-79603600D02*
X129286000Y-79603600D01*
X130886200Y-84709000D02*
X130911600Y-84683600D01*
D38*
X127457200Y-68275200D02*
X127457200Y-63754000D01*
X132915600Y-62839600D02*
X132930200Y-62825000D01*
X136653600Y-62773600D02*
X136705000Y-62825000D01*
D40*
X129387600Y-83362800D02*
X129381000Y-83369400D01*
X129381000Y-84709000D02*
X130886200Y-84709000D01*
D38*
X149098000Y-81280000D02*
X149098000Y-86360000D01*
X127457200Y-63754000D02*
X128371600Y-62839600D01*
X129387600Y-83362800D02*
X129387600Y-70205600D01*
X136705000Y-62825000D02*
X149011000Y-62825000D01*
X149098000Y-86360000D02*
X149098000Y-97536000D01*
X129387600Y-70205600D02*
X127457200Y-68275200D01*
X149011000Y-62825000D02*
X149098000Y-62738000D01*
%TO.N,Net-(D5-A)*%
X141859000Y-128985500D02*
X141859000Y-126302000D01*
X141859000Y-126302000D02*
X141287000Y-125730000D01*
D39*
%TO.N,/DACA*%
X126238000Y-91694000D02*
X126238000Y-92243000D01*
X127381000Y-89109000D02*
X127381000Y-90551000D01*
X127381000Y-90551000D02*
X126238000Y-91694000D01*
%TO.N,/DACB*%
X127881000Y-91305000D02*
X127881000Y-89109000D01*
X127889000Y-91313000D02*
X127881000Y-91305000D01*
X127508000Y-92241000D02*
X127508000Y-91694000D01*
X127508000Y-91694000D02*
X127889000Y-91313000D01*
%TO.N,/DACC*%
X128778000Y-91694000D02*
X128778000Y-92239000D01*
X128381000Y-89109000D02*
X128381000Y-91297000D01*
X128381000Y-91297000D02*
X128778000Y-91694000D01*
%TO.N,/DACD*%
X128881000Y-90527000D02*
X128881000Y-89109000D01*
X130048000Y-91694000D02*
X128881000Y-90527000D01*
X130048000Y-92241000D02*
X130048000Y-91694000D01*
%TO.N,/DAC_RDY_JP*%
X124841000Y-78232000D02*
X124841000Y-80137000D01*
X122072400Y-82905600D02*
X122072400Y-89560400D01*
X120853200Y-90779600D02*
X118939600Y-90779600D01*
X122072400Y-89560400D02*
X120853200Y-90779600D01*
X118939600Y-90779600D02*
X118925000Y-90765000D01*
X124841000Y-80137000D02*
X122072400Y-82905600D01*
D38*
%TO.N,Net-(D2-K)*%
X144725000Y-55205000D02*
X144780000Y-55150000D01*
X136705000Y-55205000D02*
X141732000Y-55205000D01*
X141732000Y-55205000D02*
X144725000Y-55205000D01*
%TD*%
%TA.AperFunction,Conductor*%
%TO.N,GND*%
G36*
X140194176Y-146558642D02*
G01*
X140196573Y-146558886D01*
X140196574Y-146558887D01*
X140300455Y-146569500D01*
X140301236Y-146569499D01*
X140308097Y-146570124D01*
X140320446Y-146571750D01*
X140329228Y-146572907D01*
X140360491Y-146581284D01*
X140450918Y-146618740D01*
X140478952Y-146634925D01*
X140556602Y-146694509D01*
X140579491Y-146717398D01*
X140639074Y-146795048D01*
X140655259Y-146823081D01*
X140692715Y-146913508D01*
X140701093Y-146944775D01*
X140714939Y-147049939D01*
X140716000Y-147066125D01*
X140716000Y-153796874D01*
X140714939Y-153813060D01*
X140701093Y-153918224D01*
X140692715Y-153949491D01*
X140655259Y-154039918D01*
X140639074Y-154067951D01*
X140579491Y-154145601D01*
X140556601Y-154168491D01*
X140478951Y-154228074D01*
X140450918Y-154244259D01*
X140360491Y-154281715D01*
X140329224Y-154290093D01*
X140235398Y-154302446D01*
X140224058Y-154303939D01*
X140207874Y-154305000D01*
X138938126Y-154305000D01*
X138921941Y-154303939D01*
X138908917Y-154302224D01*
X138816775Y-154290093D01*
X138785508Y-154281715D01*
X138695081Y-154244259D01*
X138667048Y-154228074D01*
X138589398Y-154168491D01*
X138566508Y-154145601D01*
X138506925Y-154067951D01*
X138490740Y-154039918D01*
X138453284Y-153949491D01*
X138444906Y-153918223D01*
X138431061Y-153813059D01*
X138430000Y-153796874D01*
X138430000Y-147066125D01*
X138431061Y-147049940D01*
X138444906Y-146944776D01*
X138453284Y-146913508D01*
X138490740Y-146823081D01*
X138506923Y-146795050D01*
X138566513Y-146717392D01*
X138589392Y-146694513D01*
X138667050Y-146634923D01*
X138695079Y-146618740D01*
X138785509Y-146581283D01*
X138816775Y-146572906D01*
X138921940Y-146559061D01*
X138938126Y-146558000D01*
X140181573Y-146558000D01*
X140194176Y-146558642D01*
G37*
%TD.AperFunction*%
%TD*%
%TA.AperFunction,Conductor*%
%TO.N,GND*%
G36*
X140130176Y-127127642D02*
G01*
X140132573Y-127127886D01*
X140132574Y-127127887D01*
X140236455Y-127138500D01*
X140295233Y-127138499D01*
X140311398Y-127139559D01*
X140329228Y-127141906D01*
X140360491Y-127150284D01*
X140450918Y-127187740D01*
X140478951Y-127203925D01*
X140504526Y-127223549D01*
X140556602Y-127263509D01*
X140579491Y-127286398D01*
X140639074Y-127364048D01*
X140655259Y-127392081D01*
X140692715Y-127482508D01*
X140701093Y-127513775D01*
X140714939Y-127618939D01*
X140716000Y-127635125D01*
X140716000Y-132080000D01*
X142366874Y-132080000D01*
X142383059Y-132081061D01*
X142488223Y-132094906D01*
X142519491Y-132103284D01*
X142609918Y-132140740D01*
X142637952Y-132156925D01*
X142715602Y-132216509D01*
X142738491Y-132239398D01*
X142798074Y-132317048D01*
X142814259Y-132345081D01*
X142851715Y-132435508D01*
X142860093Y-132466775D01*
X142873939Y-132571939D01*
X142875000Y-132588125D01*
X142875000Y-134238874D01*
X142873939Y-134255060D01*
X142860093Y-134360224D01*
X142851715Y-134391491D01*
X142814259Y-134481918D01*
X142798074Y-134509951D01*
X142738491Y-134587601D01*
X142715601Y-134610491D01*
X142637951Y-134670074D01*
X142609918Y-134686259D01*
X142519491Y-134723715D01*
X142488224Y-134732093D01*
X142394398Y-134744446D01*
X142383058Y-134745939D01*
X142366874Y-134747000D01*
X140716000Y-134747000D01*
X140716000Y-135247000D01*
X140716000Y-135251053D01*
X140716000Y-139318874D01*
X140714939Y-139335060D01*
X140701093Y-139440224D01*
X140692715Y-139471491D01*
X140655259Y-139561918D01*
X140639074Y-139589951D01*
X140579491Y-139667601D01*
X140556601Y-139690491D01*
X140478951Y-139750074D01*
X140450918Y-139766259D01*
X140360495Y-139803714D01*
X140329226Y-139812092D01*
X140308086Y-139814875D01*
X140301226Y-139815500D01*
X140300456Y-139815501D01*
X140297335Y-139815819D01*
X140297331Y-139815820D01*
X140194176Y-139826358D01*
X140181574Y-139827000D01*
X139060104Y-139827000D01*
X139044021Y-139825953D01*
X138939500Y-139812281D01*
X138908417Y-139804007D01*
X138818470Y-139767013D01*
X138790560Y-139751023D01*
X138713154Y-139692138D01*
X138690296Y-139669508D01*
X138688815Y-139667601D01*
X138630635Y-139592687D01*
X138614371Y-139564947D01*
X138576475Y-139475365D01*
X138567892Y-139444368D01*
X138553177Y-139339995D01*
X138551969Y-139323924D01*
X138435131Y-127640161D01*
X138436042Y-127623888D01*
X138449005Y-127517925D01*
X138457170Y-127486401D01*
X138494184Y-127395111D01*
X138510281Y-127366799D01*
X138569783Y-127288311D01*
X138592697Y-127265165D01*
X138670593Y-127204876D01*
X138698744Y-127188498D01*
X138744197Y-127169538D01*
X138789647Y-127150579D01*
X138821098Y-127142095D01*
X138926919Y-127128073D01*
X138943206Y-127127000D01*
X140117573Y-127127000D01*
X140130176Y-127127642D01*
G37*
%TD.AperFunction*%
%TD*%
M02*
