%TF.GenerationSoftware,KiCad,Pcbnew,7.0.2-0*%
%TF.CreationDate,2023-05-29T21:13:20+02:00*%
%TF.ProjectId,dac-board,6461632d-626f-4617-9264-2e6b69636164,rev?*%
%TF.SameCoordinates,Original*%
%TF.FileFunction,Legend,Top*%
%TF.FilePolarity,Positive*%
%FSLAX46Y46*%
G04 Gerber Fmt 4.6, Leading zero omitted, Abs format (unit mm)*
G04 Created by KiCad (PCBNEW 7.0.2-0) date 2023-05-29 21:13:20*
%MOMM*%
%LPD*%
G01*
G04 APERTURE LIST*
G04 Aperture macros list*
%AMRoundRect*
0 Rectangle with rounded corners*
0 $1 Rounding radius*
0 $2 $3 $4 $5 $6 $7 $8 $9 X,Y pos of 4 corners*
0 Add a 4 corners polygon primitive as box body*
4,1,4,$2,$3,$4,$5,$6,$7,$8,$9,$2,$3,0*
0 Add four circle primitives for the rounded corners*
1,1,$1+$1,$2,$3*
1,1,$1+$1,$4,$5*
1,1,$1+$1,$6,$7*
1,1,$1+$1,$8,$9*
0 Add four rect primitives between the rounded corners*
20,1,$1+$1,$2,$3,$4,$5,0*
20,1,$1+$1,$4,$5,$6,$7,0*
20,1,$1+$1,$6,$7,$8,$9,0*
20,1,$1+$1,$8,$9,$2,$3,0*%
G04 Aperture macros list end*
%ADD10C,0.150000*%
%ADD11C,0.400000*%
%ADD12C,0.600000*%
%ADD13C,0.120000*%
%ADD14C,0.200000*%
%ADD15C,0.153000*%
%ADD16C,0.250000*%
%ADD17R,1.700000X1.700000*%
%ADD18O,1.700000X1.700000*%
%ADD19RoundRect,0.135000X0.185000X-0.135000X0.185000X0.135000X-0.185000X0.135000X-0.185000X-0.135000X0*%
%ADD20RoundRect,0.140000X0.140000X0.170000X-0.140000X0.170000X-0.140000X-0.170000X0.140000X-0.170000X0*%
%ADD21RoundRect,0.150000X0.587500X0.150000X-0.587500X0.150000X-0.587500X-0.150000X0.587500X-0.150000X0*%
%ADD22RoundRect,0.250000X-0.325000X-0.650000X0.325000X-0.650000X0.325000X0.650000X-0.325000X0.650000X0*%
%ADD23RoundRect,0.135000X0.135000X0.185000X-0.135000X0.185000X-0.135000X-0.185000X0.135000X-0.185000X0*%
%ADD24RoundRect,0.112500X0.187500X0.112500X-0.187500X0.112500X-0.187500X-0.112500X0.187500X-0.112500X0*%
%ADD25RoundRect,0.250000X-1.000000X-0.650000X1.000000X-0.650000X1.000000X0.650000X-1.000000X0.650000X0*%
%ADD26RoundRect,0.135000X-0.135000X-0.185000X0.135000X-0.185000X0.135000X0.185000X-0.135000X0.185000X0*%
%ADD27RoundRect,0.150000X0.150000X-0.587500X0.150000X0.587500X-0.150000X0.587500X-0.150000X-0.587500X0*%
%ADD28RoundRect,0.135000X-0.185000X0.135000X-0.185000X-0.135000X0.185000X-0.135000X0.185000X0.135000X0*%
%ADD29C,1.524000*%
%ADD30RoundRect,0.150000X-0.825000X-0.150000X0.825000X-0.150000X0.825000X0.150000X-0.825000X0.150000X0*%
%ADD31RoundRect,0.140000X-0.170000X0.140000X-0.170000X-0.140000X0.170000X-0.140000X0.170000X0.140000X0*%
%ADD32RoundRect,0.250000X1.000000X0.650000X-1.000000X0.650000X-1.000000X-0.650000X1.000000X-0.650000X0*%
%ADD33RoundRect,0.250000X0.475000X-0.250000X0.475000X0.250000X-0.475000X0.250000X-0.475000X-0.250000X0*%
%ADD34RoundRect,0.218750X0.381250X-0.218750X0.381250X0.218750X-0.381250X0.218750X-0.381250X-0.218750X0*%
%ADD35RoundRect,0.250000X0.600000X0.600000X-0.600000X0.600000X-0.600000X-0.600000X0.600000X-0.600000X0*%
%ADD36C,1.700000*%
%ADD37RoundRect,0.140000X-0.140000X-0.170000X0.140000X-0.170000X0.140000X0.170000X-0.140000X0.170000X0*%
%ADD38RoundRect,0.218750X-0.381250X0.218750X-0.381250X-0.218750X0.381250X-0.218750X0.381250X0.218750X0*%
%ADD39RoundRect,0.250000X-0.650000X1.000000X-0.650000X-1.000000X0.650000X-1.000000X0.650000X1.000000X0*%
%ADD40RoundRect,0.140000X0.170000X-0.140000X0.170000X0.140000X-0.170000X0.140000X-0.170000X-0.140000X0*%
%ADD41R,0.300000X1.400000*%
%ADD42RoundRect,0.150000X0.825000X0.150000X-0.825000X0.150000X-0.825000X-0.150000X0.825000X-0.150000X0*%
G04 APERTURE END LIST*
D10*
X153642952Y-95916761D02*
X153642952Y-95535809D01*
X154309619Y-95773904D02*
X153452476Y-95773904D01*
X153452476Y-95773904D02*
X153357238Y-95726285D01*
X153357238Y-95726285D02*
X153309619Y-95631047D01*
X153309619Y-95631047D02*
X153309619Y-95535809D01*
X154309619Y-95202475D02*
X153642952Y-95202475D01*
X153833428Y-95202475D02*
X153738190Y-95154856D01*
X153738190Y-95154856D02*
X153690571Y-95107237D01*
X153690571Y-95107237D02*
X153642952Y-95011999D01*
X153642952Y-95011999D02*
X153642952Y-94916761D01*
X154309619Y-94154856D02*
X153785809Y-94154856D01*
X153785809Y-94154856D02*
X153690571Y-94202475D01*
X153690571Y-94202475D02*
X153642952Y-94297713D01*
X153642952Y-94297713D02*
X153642952Y-94488189D01*
X153642952Y-94488189D02*
X153690571Y-94583427D01*
X154262000Y-94154856D02*
X154309619Y-94250094D01*
X154309619Y-94250094D02*
X154309619Y-94488189D01*
X154309619Y-94488189D02*
X154262000Y-94583427D01*
X154262000Y-94583427D02*
X154166761Y-94631046D01*
X154166761Y-94631046D02*
X154071523Y-94631046D01*
X154071523Y-94631046D02*
X153976285Y-94583427D01*
X153976285Y-94583427D02*
X153928666Y-94488189D01*
X153928666Y-94488189D02*
X153928666Y-94250094D01*
X153928666Y-94250094D02*
X153881047Y-94154856D01*
X153642952Y-93678665D02*
X154309619Y-93678665D01*
X153738190Y-93678665D02*
X153690571Y-93631046D01*
X153690571Y-93631046D02*
X153642952Y-93535808D01*
X153642952Y-93535808D02*
X153642952Y-93392951D01*
X153642952Y-93392951D02*
X153690571Y-93297713D01*
X153690571Y-93297713D02*
X153785809Y-93250094D01*
X153785809Y-93250094D02*
X154309619Y-93250094D01*
X154262000Y-92345332D02*
X154309619Y-92440570D01*
X154309619Y-92440570D02*
X154309619Y-92631046D01*
X154309619Y-92631046D02*
X154262000Y-92726284D01*
X154262000Y-92726284D02*
X154214380Y-92773903D01*
X154214380Y-92773903D02*
X154119142Y-92821522D01*
X154119142Y-92821522D02*
X153833428Y-92821522D01*
X153833428Y-92821522D02*
X153738190Y-92773903D01*
X153738190Y-92773903D02*
X153690571Y-92726284D01*
X153690571Y-92726284D02*
X153642952Y-92631046D01*
X153642952Y-92631046D02*
X153642952Y-92440570D01*
X153642952Y-92440570D02*
X153690571Y-92345332D01*
X154309619Y-91773903D02*
X154262000Y-91869141D01*
X154262000Y-91869141D02*
X154214380Y-91916760D01*
X154214380Y-91916760D02*
X154119142Y-91964379D01*
X154119142Y-91964379D02*
X153833428Y-91964379D01*
X153833428Y-91964379D02*
X153738190Y-91916760D01*
X153738190Y-91916760D02*
X153690571Y-91869141D01*
X153690571Y-91869141D02*
X153642952Y-91773903D01*
X153642952Y-91773903D02*
X153642952Y-91631046D01*
X153642952Y-91631046D02*
X153690571Y-91535808D01*
X153690571Y-91535808D02*
X153738190Y-91488189D01*
X153738190Y-91488189D02*
X153833428Y-91440570D01*
X153833428Y-91440570D02*
X154119142Y-91440570D01*
X154119142Y-91440570D02*
X154214380Y-91488189D01*
X154214380Y-91488189D02*
X154262000Y-91535808D01*
X154262000Y-91535808D02*
X154309619Y-91631046D01*
X154309619Y-91631046D02*
X154309619Y-91773903D01*
X154309619Y-91011998D02*
X153642952Y-91011998D01*
X153309619Y-91011998D02*
X153357238Y-91059617D01*
X153357238Y-91059617D02*
X153404857Y-91011998D01*
X153404857Y-91011998D02*
X153357238Y-90964379D01*
X153357238Y-90964379D02*
X153309619Y-91011998D01*
X153309619Y-91011998D02*
X153404857Y-91011998D01*
X154262000Y-90583427D02*
X154309619Y-90488189D01*
X154309619Y-90488189D02*
X154309619Y-90297713D01*
X154309619Y-90297713D02*
X154262000Y-90202475D01*
X154262000Y-90202475D02*
X154166761Y-90154856D01*
X154166761Y-90154856D02*
X154119142Y-90154856D01*
X154119142Y-90154856D02*
X154023904Y-90202475D01*
X154023904Y-90202475D02*
X153976285Y-90297713D01*
X153976285Y-90297713D02*
X153976285Y-90440570D01*
X153976285Y-90440570D02*
X153928666Y-90535808D01*
X153928666Y-90535808D02*
X153833428Y-90583427D01*
X153833428Y-90583427D02*
X153785809Y-90583427D01*
X153785809Y-90583427D02*
X153690571Y-90535808D01*
X153690571Y-90535808D02*
X153642952Y-90440570D01*
X153642952Y-90440570D02*
X153642952Y-90297713D01*
X153642952Y-90297713D02*
X153690571Y-90202475D01*
X153642952Y-89297713D02*
X154452476Y-89297713D01*
X154452476Y-89297713D02*
X154547714Y-89345332D01*
X154547714Y-89345332D02*
X154595333Y-89392951D01*
X154595333Y-89392951D02*
X154642952Y-89488189D01*
X154642952Y-89488189D02*
X154642952Y-89631046D01*
X154642952Y-89631046D02*
X154595333Y-89726284D01*
X154262000Y-89297713D02*
X154309619Y-89392951D01*
X154309619Y-89392951D02*
X154309619Y-89583427D01*
X154309619Y-89583427D02*
X154262000Y-89678665D01*
X154262000Y-89678665D02*
X154214380Y-89726284D01*
X154214380Y-89726284D02*
X154119142Y-89773903D01*
X154119142Y-89773903D02*
X153833428Y-89773903D01*
X153833428Y-89773903D02*
X153738190Y-89726284D01*
X153738190Y-89726284D02*
X153690571Y-89678665D01*
X153690571Y-89678665D02*
X153642952Y-89583427D01*
X153642952Y-89583427D02*
X153642952Y-89392951D01*
X153642952Y-89392951D02*
X153690571Y-89297713D01*
X154262000Y-88440570D02*
X154309619Y-88535808D01*
X154309619Y-88535808D02*
X154309619Y-88726284D01*
X154309619Y-88726284D02*
X154262000Y-88821522D01*
X154262000Y-88821522D02*
X154166761Y-88869141D01*
X154166761Y-88869141D02*
X153785809Y-88869141D01*
X153785809Y-88869141D02*
X153690571Y-88821522D01*
X153690571Y-88821522D02*
X153642952Y-88726284D01*
X153642952Y-88726284D02*
X153642952Y-88535808D01*
X153642952Y-88535808D02*
X153690571Y-88440570D01*
X153690571Y-88440570D02*
X153785809Y-88392951D01*
X153785809Y-88392951D02*
X153881047Y-88392951D01*
X153881047Y-88392951D02*
X153976285Y-88869141D01*
X154309619Y-87821522D02*
X154262000Y-87916760D01*
X154262000Y-87916760D02*
X154214380Y-87964379D01*
X154214380Y-87964379D02*
X154119142Y-88011998D01*
X154119142Y-88011998D02*
X153833428Y-88011998D01*
X153833428Y-88011998D02*
X153738190Y-87964379D01*
X153738190Y-87964379D02*
X153690571Y-87916760D01*
X153690571Y-87916760D02*
X153642952Y-87821522D01*
X153642952Y-87821522D02*
X153642952Y-87678665D01*
X153642952Y-87678665D02*
X153690571Y-87583427D01*
X153690571Y-87583427D02*
X153738190Y-87535808D01*
X153738190Y-87535808D02*
X153833428Y-87488189D01*
X153833428Y-87488189D02*
X154119142Y-87488189D01*
X154119142Y-87488189D02*
X154214380Y-87535808D01*
X154214380Y-87535808D02*
X154262000Y-87583427D01*
X154262000Y-87583427D02*
X154309619Y-87678665D01*
X154309619Y-87678665D02*
X154309619Y-87821522D01*
X154309619Y-87059617D02*
X153642952Y-87059617D01*
X153833428Y-87059617D02*
X153738190Y-87011998D01*
X153738190Y-87011998D02*
X153690571Y-86964379D01*
X153690571Y-86964379D02*
X153642952Y-86869141D01*
X153642952Y-86869141D02*
X153642952Y-86773903D01*
X153642952Y-86011998D02*
X154452476Y-86011998D01*
X154452476Y-86011998D02*
X154547714Y-86059617D01*
X154547714Y-86059617D02*
X154595333Y-86107236D01*
X154595333Y-86107236D02*
X154642952Y-86202474D01*
X154642952Y-86202474D02*
X154642952Y-86345331D01*
X154642952Y-86345331D02*
X154595333Y-86440569D01*
X154262000Y-86011998D02*
X154309619Y-86107236D01*
X154309619Y-86107236D02*
X154309619Y-86297712D01*
X154309619Y-86297712D02*
X154262000Y-86392950D01*
X154262000Y-86392950D02*
X154214380Y-86440569D01*
X154214380Y-86440569D02*
X154119142Y-86488188D01*
X154119142Y-86488188D02*
X153833428Y-86488188D01*
X153833428Y-86488188D02*
X153738190Y-86440569D01*
X153738190Y-86440569D02*
X153690571Y-86392950D01*
X153690571Y-86392950D02*
X153642952Y-86297712D01*
X153642952Y-86297712D02*
X153642952Y-86107236D01*
X153642952Y-86107236D02*
X153690571Y-86011998D01*
X153642952Y-85631045D02*
X154309619Y-85392950D01*
X153642952Y-85154855D02*
X154309619Y-85392950D01*
X154309619Y-85392950D02*
X154547714Y-85488188D01*
X154547714Y-85488188D02*
X154595333Y-85535807D01*
X154595333Y-85535807D02*
X154642952Y-85631045D01*
X154214380Y-84773902D02*
X154262000Y-84726283D01*
X154262000Y-84726283D02*
X154309619Y-84773902D01*
X154309619Y-84773902D02*
X154262000Y-84821521D01*
X154262000Y-84821521D02*
X154214380Y-84773902D01*
X154214380Y-84773902D02*
X154309619Y-84773902D01*
X154262000Y-83869141D02*
X154309619Y-83964379D01*
X154309619Y-83964379D02*
X154309619Y-84154855D01*
X154309619Y-84154855D02*
X154262000Y-84250093D01*
X154262000Y-84250093D02*
X154214380Y-84297712D01*
X154214380Y-84297712D02*
X154119142Y-84345331D01*
X154119142Y-84345331D02*
X153833428Y-84345331D01*
X153833428Y-84345331D02*
X153738190Y-84297712D01*
X153738190Y-84297712D02*
X153690571Y-84250093D01*
X153690571Y-84250093D02*
X153642952Y-84154855D01*
X153642952Y-84154855D02*
X153642952Y-83964379D01*
X153642952Y-83964379D02*
X153690571Y-83869141D01*
X154309619Y-83440569D02*
X153309619Y-83440569D01*
X154309619Y-83011998D02*
X153785809Y-83011998D01*
X153785809Y-83011998D02*
X153690571Y-83059617D01*
X153690571Y-83059617D02*
X153642952Y-83154855D01*
X153642952Y-83154855D02*
X153642952Y-83297712D01*
X153642952Y-83297712D02*
X153690571Y-83392950D01*
X153690571Y-83392950D02*
X153738190Y-83440569D01*
X153404857Y-81821521D02*
X153357238Y-81773902D01*
X153357238Y-81773902D02*
X153309619Y-81678664D01*
X153309619Y-81678664D02*
X153309619Y-81440569D01*
X153309619Y-81440569D02*
X153357238Y-81345331D01*
X153357238Y-81345331D02*
X153404857Y-81297712D01*
X153404857Y-81297712D02*
X153500095Y-81250093D01*
X153500095Y-81250093D02*
X153595333Y-81250093D01*
X153595333Y-81250093D02*
X153738190Y-81297712D01*
X153738190Y-81297712D02*
X154309619Y-81869140D01*
X154309619Y-81869140D02*
X154309619Y-81250093D01*
X153309619Y-80631045D02*
X153309619Y-80535807D01*
X153309619Y-80535807D02*
X153357238Y-80440569D01*
X153357238Y-80440569D02*
X153404857Y-80392950D01*
X153404857Y-80392950D02*
X153500095Y-80345331D01*
X153500095Y-80345331D02*
X153690571Y-80297712D01*
X153690571Y-80297712D02*
X153928666Y-80297712D01*
X153928666Y-80297712D02*
X154119142Y-80345331D01*
X154119142Y-80345331D02*
X154214380Y-80392950D01*
X154214380Y-80392950D02*
X154262000Y-80440569D01*
X154262000Y-80440569D02*
X154309619Y-80535807D01*
X154309619Y-80535807D02*
X154309619Y-80631045D01*
X154309619Y-80631045D02*
X154262000Y-80726283D01*
X154262000Y-80726283D02*
X154214380Y-80773902D01*
X154214380Y-80773902D02*
X154119142Y-80821521D01*
X154119142Y-80821521D02*
X153928666Y-80869140D01*
X153928666Y-80869140D02*
X153690571Y-80869140D01*
X153690571Y-80869140D02*
X153500095Y-80821521D01*
X153500095Y-80821521D02*
X153404857Y-80773902D01*
X153404857Y-80773902D02*
X153357238Y-80726283D01*
X153357238Y-80726283D02*
X153309619Y-80631045D01*
X153404857Y-79916759D02*
X153357238Y-79869140D01*
X153357238Y-79869140D02*
X153309619Y-79773902D01*
X153309619Y-79773902D02*
X153309619Y-79535807D01*
X153309619Y-79535807D02*
X153357238Y-79440569D01*
X153357238Y-79440569D02*
X153404857Y-79392950D01*
X153404857Y-79392950D02*
X153500095Y-79345331D01*
X153500095Y-79345331D02*
X153595333Y-79345331D01*
X153595333Y-79345331D02*
X153738190Y-79392950D01*
X153738190Y-79392950D02*
X154309619Y-79964378D01*
X154309619Y-79964378D02*
X154309619Y-79345331D01*
X153309619Y-79011997D02*
X153309619Y-78392950D01*
X153309619Y-78392950D02*
X153690571Y-78726283D01*
X153690571Y-78726283D02*
X153690571Y-78583426D01*
X153690571Y-78583426D02*
X153738190Y-78488188D01*
X153738190Y-78488188D02*
X153785809Y-78440569D01*
X153785809Y-78440569D02*
X153881047Y-78392950D01*
X153881047Y-78392950D02*
X154119142Y-78392950D01*
X154119142Y-78392950D02*
X154214380Y-78440569D01*
X154214380Y-78440569D02*
X154262000Y-78488188D01*
X154262000Y-78488188D02*
X154309619Y-78583426D01*
X154309619Y-78583426D02*
X154309619Y-78869140D01*
X154309619Y-78869140D02*
X154262000Y-78964378D01*
X154262000Y-78964378D02*
X154214380Y-79011997D01*
X154214380Y-77964378D02*
X154262000Y-77916759D01*
X154262000Y-77916759D02*
X154309619Y-77964378D01*
X154309619Y-77964378D02*
X154262000Y-78011997D01*
X154262000Y-78011997D02*
X154214380Y-77964378D01*
X154214380Y-77964378D02*
X154309619Y-77964378D01*
X153309619Y-77297712D02*
X153309619Y-77202474D01*
X153309619Y-77202474D02*
X153357238Y-77107236D01*
X153357238Y-77107236D02*
X153404857Y-77059617D01*
X153404857Y-77059617D02*
X153500095Y-77011998D01*
X153500095Y-77011998D02*
X153690571Y-76964379D01*
X153690571Y-76964379D02*
X153928666Y-76964379D01*
X153928666Y-76964379D02*
X154119142Y-77011998D01*
X154119142Y-77011998D02*
X154214380Y-77059617D01*
X154214380Y-77059617D02*
X154262000Y-77107236D01*
X154262000Y-77107236D02*
X154309619Y-77202474D01*
X154309619Y-77202474D02*
X154309619Y-77297712D01*
X154309619Y-77297712D02*
X154262000Y-77392950D01*
X154262000Y-77392950D02*
X154214380Y-77440569D01*
X154214380Y-77440569D02*
X154119142Y-77488188D01*
X154119142Y-77488188D02*
X153928666Y-77535807D01*
X153928666Y-77535807D02*
X153690571Y-77535807D01*
X153690571Y-77535807D02*
X153500095Y-77488188D01*
X153500095Y-77488188D02*
X153404857Y-77440569D01*
X153404857Y-77440569D02*
X153357238Y-77392950D01*
X153357238Y-77392950D02*
X153309619Y-77297712D01*
X153309619Y-76059617D02*
X153309619Y-76535807D01*
X153309619Y-76535807D02*
X153785809Y-76583426D01*
X153785809Y-76583426D02*
X153738190Y-76535807D01*
X153738190Y-76535807D02*
X153690571Y-76440569D01*
X153690571Y-76440569D02*
X153690571Y-76202474D01*
X153690571Y-76202474D02*
X153738190Y-76107236D01*
X153738190Y-76107236D02*
X153785809Y-76059617D01*
X153785809Y-76059617D02*
X153881047Y-76011998D01*
X153881047Y-76011998D02*
X154119142Y-76011998D01*
X154119142Y-76011998D02*
X154214380Y-76059617D01*
X154214380Y-76059617D02*
X154262000Y-76107236D01*
X154262000Y-76107236D02*
X154309619Y-76202474D01*
X154309619Y-76202474D02*
X154309619Y-76440569D01*
X154309619Y-76440569D02*
X154262000Y-76535807D01*
X154262000Y-76535807D02*
X154214380Y-76583426D01*
X124634476Y-129417666D02*
X125396381Y-129417666D01*
X125015428Y-129798619D02*
X125015428Y-129036714D01*
X126348761Y-128798619D02*
X125872571Y-128798619D01*
X125872571Y-128798619D02*
X125824952Y-129274809D01*
X125824952Y-129274809D02*
X125872571Y-129227190D01*
X125872571Y-129227190D02*
X125967809Y-129179571D01*
X125967809Y-129179571D02*
X126205904Y-129179571D01*
X126205904Y-129179571D02*
X126301142Y-129227190D01*
X126301142Y-129227190D02*
X126348761Y-129274809D01*
X126348761Y-129274809D02*
X126396380Y-129370047D01*
X126396380Y-129370047D02*
X126396380Y-129608142D01*
X126396380Y-129608142D02*
X126348761Y-129703380D01*
X126348761Y-129703380D02*
X126301142Y-129751000D01*
X126301142Y-129751000D02*
X126205904Y-129798619D01*
X126205904Y-129798619D02*
X125967809Y-129798619D01*
X125967809Y-129798619D02*
X125872571Y-129751000D01*
X125872571Y-129751000D02*
X125824952Y-129703380D01*
X123682095Y-132084666D02*
X124444000Y-132084666D01*
X124063047Y-132465619D02*
X124063047Y-131703714D01*
X125443999Y-132465619D02*
X124872571Y-132465619D01*
X125158285Y-132465619D02*
X125158285Y-131465619D01*
X125158285Y-131465619D02*
X125063047Y-131608476D01*
X125063047Y-131608476D02*
X124967809Y-131703714D01*
X124967809Y-131703714D02*
X124872571Y-131751333D01*
X125824952Y-131560857D02*
X125872571Y-131513238D01*
X125872571Y-131513238D02*
X125967809Y-131465619D01*
X125967809Y-131465619D02*
X126205904Y-131465619D01*
X126205904Y-131465619D02*
X126301142Y-131513238D01*
X126301142Y-131513238D02*
X126348761Y-131560857D01*
X126348761Y-131560857D02*
X126396380Y-131656095D01*
X126396380Y-131656095D02*
X126396380Y-131751333D01*
X126396380Y-131751333D02*
X126348761Y-131894190D01*
X126348761Y-131894190D02*
X125777333Y-132465619D01*
X125777333Y-132465619D02*
X126396380Y-132465619D01*
X123682095Y-137164666D02*
X124444000Y-137164666D01*
X125443999Y-137545619D02*
X124872571Y-137545619D01*
X125158285Y-137545619D02*
X125158285Y-136545619D01*
X125158285Y-136545619D02*
X125063047Y-136688476D01*
X125063047Y-136688476D02*
X124967809Y-136783714D01*
X124967809Y-136783714D02*
X124872571Y-136831333D01*
X125824952Y-136640857D02*
X125872571Y-136593238D01*
X125872571Y-136593238D02*
X125967809Y-136545619D01*
X125967809Y-136545619D02*
X126205904Y-136545619D01*
X126205904Y-136545619D02*
X126301142Y-136593238D01*
X126301142Y-136593238D02*
X126348761Y-136640857D01*
X126348761Y-136640857D02*
X126396380Y-136736095D01*
X126396380Y-136736095D02*
X126396380Y-136831333D01*
X126396380Y-136831333D02*
X126348761Y-136974190D01*
X126348761Y-136974190D02*
X125777333Y-137545619D01*
X125777333Y-137545619D02*
X126396380Y-137545619D01*
X124301142Y-133926238D02*
X124205904Y-133878619D01*
X124205904Y-133878619D02*
X124063047Y-133878619D01*
X124063047Y-133878619D02*
X123920190Y-133926238D01*
X123920190Y-133926238D02*
X123824952Y-134021476D01*
X123824952Y-134021476D02*
X123777333Y-134116714D01*
X123777333Y-134116714D02*
X123729714Y-134307190D01*
X123729714Y-134307190D02*
X123729714Y-134450047D01*
X123729714Y-134450047D02*
X123777333Y-134640523D01*
X123777333Y-134640523D02*
X123824952Y-134735761D01*
X123824952Y-134735761D02*
X123920190Y-134831000D01*
X123920190Y-134831000D02*
X124063047Y-134878619D01*
X124063047Y-134878619D02*
X124158285Y-134878619D01*
X124158285Y-134878619D02*
X124301142Y-134831000D01*
X124301142Y-134831000D02*
X124348761Y-134783380D01*
X124348761Y-134783380D02*
X124348761Y-134450047D01*
X124348761Y-134450047D02*
X124158285Y-134450047D01*
X124777333Y-134878619D02*
X124777333Y-133878619D01*
X124777333Y-133878619D02*
X125348761Y-134878619D01*
X125348761Y-134878619D02*
X125348761Y-133878619D01*
X125824952Y-134878619D02*
X125824952Y-133878619D01*
X125824952Y-133878619D02*
X126063047Y-133878619D01*
X126063047Y-133878619D02*
X126205904Y-133926238D01*
X126205904Y-133926238D02*
X126301142Y-134021476D01*
X126301142Y-134021476D02*
X126348761Y-134116714D01*
X126348761Y-134116714D02*
X126396380Y-134307190D01*
X126396380Y-134307190D02*
X126396380Y-134450047D01*
X126396380Y-134450047D02*
X126348761Y-134640523D01*
X126348761Y-134640523D02*
X126301142Y-134735761D01*
X126301142Y-134735761D02*
X126205904Y-134831000D01*
X126205904Y-134831000D02*
X126063047Y-134878619D01*
X126063047Y-134878619D02*
X125824952Y-134878619D01*
D11*
X129587600Y-83007200D02*
G75*
G03*
X129587600Y-83007200I-200000J0D01*
G01*
X129740000Y-73761600D02*
G75*
G03*
X129740000Y-73761600I-200000J0D01*
G01*
D12*
X118410000Y-113588800D02*
G75*
G03*
X118410000Y-113588800I-300000J0D01*
G01*
X119172000Y-49784000D02*
G75*
G03*
X119172000Y-49784000I-300000J0D01*
G01*
D13*
X134874000Y-134048500D02*
X135128000Y-134048500D01*
X135128000Y-142049500D01*
X134874000Y-142049500D01*
X134874000Y-134048500D01*
G36*
X134874000Y-134048500D02*
G01*
X135128000Y-134048500D01*
X135128000Y-142049500D01*
X134874000Y-142049500D01*
X134874000Y-134048500D01*
G37*
D14*
X144145000Y-153797000D02*
X153289000Y-153797000D01*
X153289000Y-154432000D01*
X144145000Y-154432000D01*
X144145000Y-153797000D01*
G36*
X144145000Y-153797000D02*
G01*
X153289000Y-153797000D01*
X153289000Y-154432000D01*
X144145000Y-154432000D01*
X144145000Y-153797000D01*
G37*
D12*
X151531600Y-114300000D02*
G75*
G03*
X151531600Y-114300000I-300000J0D01*
G01*
D11*
X132788000Y-68707000D02*
G75*
G03*
X132788000Y-68707000I-200000J0D01*
G01*
D12*
X153970000Y-50038000D02*
G75*
G03*
X153970000Y-50038000I-300000J0D01*
G01*
D11*
X126031600Y-94996000D02*
G75*
G03*
X126031600Y-94996000I-200000J0D01*
G01*
D13*
X134874000Y-124841000D02*
X135128000Y-124841000D01*
X135128000Y-132842000D01*
X134874000Y-132842000D01*
X134874000Y-124841000D01*
G36*
X134874000Y-124841000D02*
G01*
X135128000Y-124841000D01*
X135128000Y-132842000D01*
X134874000Y-132842000D01*
X134874000Y-124841000D01*
G37*
D12*
X144445000Y-95758000D02*
G75*
G03*
X144445000Y-95758000I-300000J0D01*
G01*
D13*
X134874000Y-144335500D02*
X135128000Y-144335500D01*
X135128000Y-152336500D01*
X134874000Y-152336500D01*
X134874000Y-144335500D01*
G36*
X134874000Y-144335500D02*
G01*
X135128000Y-144335500D01*
X135128000Y-152336500D01*
X134874000Y-152336500D01*
X134874000Y-144335500D01*
G37*
D12*
X145486400Y-62890400D02*
G75*
G03*
X145486400Y-62890400I-300000J0D01*
G01*
D10*
X117173285Y-101477619D02*
X116697095Y-101477619D01*
X116697095Y-101477619D02*
X116697095Y-100477619D01*
X150301295Y-71200819D02*
X150301295Y-70200819D01*
X150872723Y-71200819D02*
X150444152Y-70629390D01*
X150872723Y-70200819D02*
X150301295Y-70772247D01*
X151253676Y-70296057D02*
X151301295Y-70248438D01*
X151301295Y-70248438D02*
X151396533Y-70200819D01*
X151396533Y-70200819D02*
X151634628Y-70200819D01*
X151634628Y-70200819D02*
X151729866Y-70248438D01*
X151729866Y-70248438D02*
X151777485Y-70296057D01*
X151777485Y-70296057D02*
X151825104Y-70391295D01*
X151825104Y-70391295D02*
X151825104Y-70486533D01*
X151825104Y-70486533D02*
X151777485Y-70629390D01*
X151777485Y-70629390D02*
X151206057Y-71200819D01*
X151206057Y-71200819D02*
X151825104Y-71200819D01*
D14*
X133762000Y-150580285D02*
X133762000Y-149666000D01*
X134219142Y-148466000D02*
X134219142Y-149151714D01*
X134219142Y-148808857D02*
X133019142Y-148808857D01*
X133019142Y-148808857D02*
X133190571Y-148923143D01*
X133190571Y-148923143D02*
X133304857Y-149037428D01*
X133304857Y-149037428D02*
X133362000Y-149151714D01*
X133133428Y-148008857D02*
X133076285Y-147951714D01*
X133076285Y-147951714D02*
X133019142Y-147837429D01*
X133019142Y-147837429D02*
X133019142Y-147551714D01*
X133019142Y-147551714D02*
X133076285Y-147437429D01*
X133076285Y-147437429D02*
X133133428Y-147380286D01*
X133133428Y-147380286D02*
X133247714Y-147323143D01*
X133247714Y-147323143D02*
X133362000Y-147323143D01*
X133362000Y-147323143D02*
X133533428Y-147380286D01*
X133533428Y-147380286D02*
X134219142Y-148066000D01*
X134219142Y-148066000D02*
X134219142Y-147323143D01*
X133019142Y-146980286D02*
X134219142Y-146580286D01*
X134219142Y-146580286D02*
X133019142Y-146180286D01*
D10*
X148440781Y-57119819D02*
X149059828Y-57119819D01*
X149059828Y-57119819D02*
X148726495Y-57500771D01*
X148726495Y-57500771D02*
X148869352Y-57500771D01*
X148869352Y-57500771D02*
X148964590Y-57548390D01*
X148964590Y-57548390D02*
X149012209Y-57596009D01*
X149012209Y-57596009D02*
X149059828Y-57691247D01*
X149059828Y-57691247D02*
X149059828Y-57929342D01*
X149059828Y-57929342D02*
X149012209Y-58024580D01*
X149012209Y-58024580D02*
X148964590Y-58072200D01*
X148964590Y-58072200D02*
X148869352Y-58119819D01*
X148869352Y-58119819D02*
X148583638Y-58119819D01*
X148583638Y-58119819D02*
X148488400Y-58072200D01*
X148488400Y-58072200D02*
X148440781Y-58024580D01*
X149488400Y-58024580D02*
X149536019Y-58072200D01*
X149536019Y-58072200D02*
X149488400Y-58119819D01*
X149488400Y-58119819D02*
X149440781Y-58072200D01*
X149440781Y-58072200D02*
X149488400Y-58024580D01*
X149488400Y-58024580D02*
X149488400Y-58119819D01*
X149869352Y-57119819D02*
X150488399Y-57119819D01*
X150488399Y-57119819D02*
X150155066Y-57500771D01*
X150155066Y-57500771D02*
X150297923Y-57500771D01*
X150297923Y-57500771D02*
X150393161Y-57548390D01*
X150393161Y-57548390D02*
X150440780Y-57596009D01*
X150440780Y-57596009D02*
X150488399Y-57691247D01*
X150488399Y-57691247D02*
X150488399Y-57929342D01*
X150488399Y-57929342D02*
X150440780Y-58024580D01*
X150440780Y-58024580D02*
X150393161Y-58072200D01*
X150393161Y-58072200D02*
X150297923Y-58119819D01*
X150297923Y-58119819D02*
X150012209Y-58119819D01*
X150012209Y-58119819D02*
X149916971Y-58072200D01*
X149916971Y-58072200D02*
X149869352Y-58024580D01*
X150774114Y-57119819D02*
X151107447Y-58119819D01*
X151107447Y-58119819D02*
X151440780Y-57119819D01*
X139445904Y-95394438D02*
X139350666Y-95346819D01*
X139350666Y-95346819D02*
X139207809Y-95346819D01*
X139207809Y-95346819D02*
X139064952Y-95394438D01*
X139064952Y-95394438D02*
X138969714Y-95489676D01*
X138969714Y-95489676D02*
X138922095Y-95584914D01*
X138922095Y-95584914D02*
X138874476Y-95775390D01*
X138874476Y-95775390D02*
X138874476Y-95918247D01*
X138874476Y-95918247D02*
X138922095Y-96108723D01*
X138922095Y-96108723D02*
X138969714Y-96203961D01*
X138969714Y-96203961D02*
X139064952Y-96299200D01*
X139064952Y-96299200D02*
X139207809Y-96346819D01*
X139207809Y-96346819D02*
X139303047Y-96346819D01*
X139303047Y-96346819D02*
X139445904Y-96299200D01*
X139445904Y-96299200D02*
X139493523Y-96251580D01*
X139493523Y-96251580D02*
X139493523Y-95918247D01*
X139493523Y-95918247D02*
X139303047Y-95918247D01*
X139922095Y-96346819D02*
X139922095Y-95346819D01*
X139922095Y-95346819D02*
X140493523Y-96346819D01*
X140493523Y-96346819D02*
X140493523Y-95346819D01*
X140969714Y-96346819D02*
X140969714Y-95346819D01*
X140969714Y-95346819D02*
X141207809Y-95346819D01*
X141207809Y-95346819D02*
X141350666Y-95394438D01*
X141350666Y-95394438D02*
X141445904Y-95489676D01*
X141445904Y-95489676D02*
X141493523Y-95584914D01*
X141493523Y-95584914D02*
X141541142Y-95775390D01*
X141541142Y-95775390D02*
X141541142Y-95918247D01*
X141541142Y-95918247D02*
X141493523Y-96108723D01*
X141493523Y-96108723D02*
X141445904Y-96203961D01*
X141445904Y-96203961D02*
X141350666Y-96299200D01*
X141350666Y-96299200D02*
X141207809Y-96346819D01*
X141207809Y-96346819D02*
X140969714Y-96346819D01*
X116887571Y-90841428D02*
X116887571Y-91317619D01*
X116554238Y-90317619D02*
X116887571Y-90841428D01*
X116887571Y-90841428D02*
X117220904Y-90317619D01*
X146367428Y-65647809D02*
X146510285Y-65695428D01*
X146510285Y-65695428D02*
X146557904Y-65743047D01*
X146557904Y-65743047D02*
X146605523Y-65838285D01*
X146605523Y-65838285D02*
X146605523Y-65981142D01*
X146605523Y-65981142D02*
X146557904Y-66076380D01*
X146557904Y-66076380D02*
X146510285Y-66124000D01*
X146510285Y-66124000D02*
X146415047Y-66171619D01*
X146415047Y-66171619D02*
X146034095Y-66171619D01*
X146034095Y-66171619D02*
X146034095Y-65171619D01*
X146034095Y-65171619D02*
X146367428Y-65171619D01*
X146367428Y-65171619D02*
X146462666Y-65219238D01*
X146462666Y-65219238D02*
X146510285Y-65266857D01*
X146510285Y-65266857D02*
X146557904Y-65362095D01*
X146557904Y-65362095D02*
X146557904Y-65457333D01*
X146557904Y-65457333D02*
X146510285Y-65552571D01*
X146510285Y-65552571D02*
X146462666Y-65600190D01*
X146462666Y-65600190D02*
X146367428Y-65647809D01*
X146367428Y-65647809D02*
X146034095Y-65647809D01*
X147462666Y-65504952D02*
X147462666Y-66171619D01*
X147034095Y-65504952D02*
X147034095Y-66028761D01*
X147034095Y-66028761D02*
X147081714Y-66124000D01*
X147081714Y-66124000D02*
X147176952Y-66171619D01*
X147176952Y-66171619D02*
X147319809Y-66171619D01*
X147319809Y-66171619D02*
X147415047Y-66124000D01*
X147415047Y-66124000D02*
X147462666Y-66076380D01*
X147796000Y-65504952D02*
X148176952Y-65504952D01*
X147938857Y-65171619D02*
X147938857Y-66028761D01*
X147938857Y-66028761D02*
X147986476Y-66124000D01*
X147986476Y-66124000D02*
X148081714Y-66171619D01*
X148081714Y-66171619D02*
X148176952Y-66171619D01*
X149034095Y-66171619D02*
X148462667Y-66171619D01*
X148748381Y-66171619D02*
X148748381Y-65171619D01*
X148748381Y-65171619D02*
X148653143Y-65314476D01*
X148653143Y-65314476D02*
X148557905Y-65409714D01*
X148557905Y-65409714D02*
X148462667Y-65457333D01*
D14*
X133762000Y-131085785D02*
X133762000Y-130171500D01*
X134219142Y-130628642D02*
X133304857Y-130628642D01*
X133019142Y-129028643D02*
X133019142Y-129600071D01*
X133019142Y-129600071D02*
X133590571Y-129657214D01*
X133590571Y-129657214D02*
X133533428Y-129600071D01*
X133533428Y-129600071D02*
X133476285Y-129485786D01*
X133476285Y-129485786D02*
X133476285Y-129200071D01*
X133476285Y-129200071D02*
X133533428Y-129085786D01*
X133533428Y-129085786D02*
X133590571Y-129028643D01*
X133590571Y-129028643D02*
X133704857Y-128971500D01*
X133704857Y-128971500D02*
X133990571Y-128971500D01*
X133990571Y-128971500D02*
X134104857Y-129028643D01*
X134104857Y-129028643D02*
X134162000Y-129085786D01*
X134162000Y-129085786D02*
X134219142Y-129200071D01*
X134219142Y-129200071D02*
X134219142Y-129485786D01*
X134219142Y-129485786D02*
X134162000Y-129600071D01*
X134162000Y-129600071D02*
X134104857Y-129657214D01*
X133019142Y-128628643D02*
X134219142Y-128228643D01*
X134219142Y-128228643D02*
X133019142Y-127828643D01*
D10*
X140954095Y-86110619D02*
X140954095Y-85110619D01*
X140954095Y-85110619D02*
X141335047Y-85110619D01*
X141335047Y-85110619D02*
X141430285Y-85158238D01*
X141430285Y-85158238D02*
X141477904Y-85205857D01*
X141477904Y-85205857D02*
X141525523Y-85301095D01*
X141525523Y-85301095D02*
X141525523Y-85443952D01*
X141525523Y-85443952D02*
X141477904Y-85539190D01*
X141477904Y-85539190D02*
X141430285Y-85586809D01*
X141430285Y-85586809D02*
X141335047Y-85634428D01*
X141335047Y-85634428D02*
X140954095Y-85634428D01*
X141858857Y-85110619D02*
X142096952Y-86110619D01*
X142096952Y-86110619D02*
X142287428Y-85396333D01*
X142287428Y-85396333D02*
X142477904Y-86110619D01*
X142477904Y-86110619D02*
X142716000Y-85110619D01*
X143096952Y-86110619D02*
X143096952Y-85110619D01*
X143096952Y-85110619D02*
X143430285Y-85824904D01*
X143430285Y-85824904D02*
X143763618Y-85110619D01*
X143763618Y-85110619D02*
X143763618Y-86110619D01*
X144763618Y-86110619D02*
X144192190Y-86110619D01*
X144477904Y-86110619D02*
X144477904Y-85110619D01*
X144477904Y-85110619D02*
X144382666Y-85253476D01*
X144382666Y-85253476D02*
X144287428Y-85348714D01*
X144287428Y-85348714D02*
X144192190Y-85396333D01*
X146034095Y-71251619D02*
X146034095Y-70251619D01*
X146605523Y-71251619D02*
X146176952Y-70680190D01*
X146605523Y-70251619D02*
X146034095Y-70823047D01*
X147557904Y-71251619D02*
X146986476Y-71251619D01*
X147272190Y-71251619D02*
X147272190Y-70251619D01*
X147272190Y-70251619D02*
X147176952Y-70394476D01*
X147176952Y-70394476D02*
X147081714Y-70489714D01*
X147081714Y-70489714D02*
X146986476Y-70537333D01*
D15*
X133878619Y-66706761D02*
X134878619Y-66373428D01*
X134878619Y-66373428D02*
X133878619Y-66040095D01*
X134878619Y-65706761D02*
X134211952Y-65706761D01*
X134402428Y-65706761D02*
X134307190Y-65659142D01*
X134307190Y-65659142D02*
X134259571Y-65611523D01*
X134259571Y-65611523D02*
X134211952Y-65516285D01*
X134211952Y-65516285D02*
X134211952Y-65421047D01*
X134831000Y-64706761D02*
X134878619Y-64801999D01*
X134878619Y-64801999D02*
X134878619Y-64992475D01*
X134878619Y-64992475D02*
X134831000Y-65087713D01*
X134831000Y-65087713D02*
X134735761Y-65135332D01*
X134735761Y-65135332D02*
X134354809Y-65135332D01*
X134354809Y-65135332D02*
X134259571Y-65087713D01*
X134259571Y-65087713D02*
X134211952Y-64992475D01*
X134211952Y-64992475D02*
X134211952Y-64801999D01*
X134211952Y-64801999D02*
X134259571Y-64706761D01*
X134259571Y-64706761D02*
X134354809Y-64659142D01*
X134354809Y-64659142D02*
X134450047Y-64659142D01*
X134450047Y-64659142D02*
X134545285Y-65135332D01*
X134211952Y-64373427D02*
X134211952Y-63992475D01*
X134878619Y-64230570D02*
X134021476Y-64230570D01*
X134021476Y-64230570D02*
X133926238Y-64182951D01*
X133926238Y-64182951D02*
X133878619Y-64087713D01*
X133878619Y-64087713D02*
X133878619Y-63992475D01*
D10*
X138953857Y-62377619D02*
X139572904Y-62377619D01*
X139572904Y-62377619D02*
X139239571Y-62758571D01*
X139239571Y-62758571D02*
X139382428Y-62758571D01*
X139382428Y-62758571D02*
X139477666Y-62806190D01*
X139477666Y-62806190D02*
X139525285Y-62853809D01*
X139525285Y-62853809D02*
X139572904Y-62949047D01*
X139572904Y-62949047D02*
X139572904Y-63187142D01*
X139572904Y-63187142D02*
X139525285Y-63282380D01*
X139525285Y-63282380D02*
X139477666Y-63330000D01*
X139477666Y-63330000D02*
X139382428Y-63377619D01*
X139382428Y-63377619D02*
X139096714Y-63377619D01*
X139096714Y-63377619D02*
X139001476Y-63330000D01*
X139001476Y-63330000D02*
X138953857Y-63282380D01*
X139858619Y-62377619D02*
X140191952Y-63377619D01*
X140191952Y-63377619D02*
X140525285Y-62377619D01*
X140763381Y-62377619D02*
X141382428Y-62377619D01*
X141382428Y-62377619D02*
X141049095Y-62758571D01*
X141049095Y-62758571D02*
X141191952Y-62758571D01*
X141191952Y-62758571D02*
X141287190Y-62806190D01*
X141287190Y-62806190D02*
X141334809Y-62853809D01*
X141334809Y-62853809D02*
X141382428Y-62949047D01*
X141382428Y-62949047D02*
X141382428Y-63187142D01*
X141382428Y-63187142D02*
X141334809Y-63282380D01*
X141334809Y-63282380D02*
X141287190Y-63330000D01*
X141287190Y-63330000D02*
X141191952Y-63377619D01*
X141191952Y-63377619D02*
X140906238Y-63377619D01*
X140906238Y-63377619D02*
X140811000Y-63330000D01*
X140811000Y-63330000D02*
X140763381Y-63282380D01*
X123543904Y-125488723D02*
X123543904Y-125012533D01*
X123829619Y-125583961D02*
X122829619Y-125250628D01*
X122829619Y-125250628D02*
X123829619Y-124917295D01*
X123162952Y-124583961D02*
X123829619Y-124583961D01*
X123258190Y-124583961D02*
X123210571Y-124536342D01*
X123210571Y-124536342D02*
X123162952Y-124441104D01*
X123162952Y-124441104D02*
X123162952Y-124298247D01*
X123162952Y-124298247D02*
X123210571Y-124203009D01*
X123210571Y-124203009D02*
X123305809Y-124155390D01*
X123305809Y-124155390D02*
X123829619Y-124155390D01*
X123829619Y-123250628D02*
X123305809Y-123250628D01*
X123305809Y-123250628D02*
X123210571Y-123298247D01*
X123210571Y-123298247D02*
X123162952Y-123393485D01*
X123162952Y-123393485D02*
X123162952Y-123583961D01*
X123162952Y-123583961D02*
X123210571Y-123679199D01*
X123782000Y-123250628D02*
X123829619Y-123345866D01*
X123829619Y-123345866D02*
X123829619Y-123583961D01*
X123829619Y-123583961D02*
X123782000Y-123679199D01*
X123782000Y-123679199D02*
X123686761Y-123726818D01*
X123686761Y-123726818D02*
X123591523Y-123726818D01*
X123591523Y-123726818D02*
X123496285Y-123679199D01*
X123496285Y-123679199D02*
X123448666Y-123583961D01*
X123448666Y-123583961D02*
X123448666Y-123345866D01*
X123448666Y-123345866D02*
X123401047Y-123250628D01*
X123829619Y-122631580D02*
X123782000Y-122726818D01*
X123782000Y-122726818D02*
X123686761Y-122774437D01*
X123686761Y-122774437D02*
X122829619Y-122774437D01*
X123829619Y-122107770D02*
X123782000Y-122203008D01*
X123782000Y-122203008D02*
X123734380Y-122250627D01*
X123734380Y-122250627D02*
X123639142Y-122298246D01*
X123639142Y-122298246D02*
X123353428Y-122298246D01*
X123353428Y-122298246D02*
X123258190Y-122250627D01*
X123258190Y-122250627D02*
X123210571Y-122203008D01*
X123210571Y-122203008D02*
X123162952Y-122107770D01*
X123162952Y-122107770D02*
X123162952Y-121964913D01*
X123162952Y-121964913D02*
X123210571Y-121869675D01*
X123210571Y-121869675D02*
X123258190Y-121822056D01*
X123258190Y-121822056D02*
X123353428Y-121774437D01*
X123353428Y-121774437D02*
X123639142Y-121774437D01*
X123639142Y-121774437D02*
X123734380Y-121822056D01*
X123734380Y-121822056D02*
X123782000Y-121869675D01*
X123782000Y-121869675D02*
X123829619Y-121964913D01*
X123829619Y-121964913D02*
X123829619Y-122107770D01*
X123162952Y-120917294D02*
X123972476Y-120917294D01*
X123972476Y-120917294D02*
X124067714Y-120964913D01*
X124067714Y-120964913D02*
X124115333Y-121012532D01*
X124115333Y-121012532D02*
X124162952Y-121107770D01*
X124162952Y-121107770D02*
X124162952Y-121250627D01*
X124162952Y-121250627D02*
X124115333Y-121345865D01*
X123782000Y-120917294D02*
X123829619Y-121012532D01*
X123829619Y-121012532D02*
X123829619Y-121203008D01*
X123829619Y-121203008D02*
X123782000Y-121298246D01*
X123782000Y-121298246D02*
X123734380Y-121345865D01*
X123734380Y-121345865D02*
X123639142Y-121393484D01*
X123639142Y-121393484D02*
X123353428Y-121393484D01*
X123353428Y-121393484D02*
X123258190Y-121345865D01*
X123258190Y-121345865D02*
X123210571Y-121298246D01*
X123210571Y-121298246D02*
X123162952Y-121203008D01*
X123162952Y-121203008D02*
X123162952Y-121012532D01*
X123162952Y-121012532D02*
X123210571Y-120917294D01*
X123829619Y-119679198D02*
X123162952Y-119679198D01*
X122829619Y-119679198D02*
X122877238Y-119726817D01*
X122877238Y-119726817D02*
X122924857Y-119679198D01*
X122924857Y-119679198D02*
X122877238Y-119631579D01*
X122877238Y-119631579D02*
X122829619Y-119679198D01*
X122829619Y-119679198D02*
X122924857Y-119679198D01*
X123162952Y-119203008D02*
X123829619Y-119203008D01*
X123258190Y-119203008D02*
X123210571Y-119155389D01*
X123210571Y-119155389D02*
X123162952Y-119060151D01*
X123162952Y-119060151D02*
X123162952Y-118917294D01*
X123162952Y-118917294D02*
X123210571Y-118822056D01*
X123210571Y-118822056D02*
X123305809Y-118774437D01*
X123305809Y-118774437D02*
X123829619Y-118774437D01*
X145986476Y-68714800D02*
X146129333Y-68762419D01*
X146129333Y-68762419D02*
X146367428Y-68762419D01*
X146367428Y-68762419D02*
X146462666Y-68714800D01*
X146462666Y-68714800D02*
X146510285Y-68667180D01*
X146510285Y-68667180D02*
X146557904Y-68571942D01*
X146557904Y-68571942D02*
X146557904Y-68476704D01*
X146557904Y-68476704D02*
X146510285Y-68381466D01*
X146510285Y-68381466D02*
X146462666Y-68333847D01*
X146462666Y-68333847D02*
X146367428Y-68286228D01*
X146367428Y-68286228D02*
X146176952Y-68238609D01*
X146176952Y-68238609D02*
X146081714Y-68190990D01*
X146081714Y-68190990D02*
X146034095Y-68143371D01*
X146034095Y-68143371D02*
X145986476Y-68048133D01*
X145986476Y-68048133D02*
X145986476Y-67952895D01*
X145986476Y-67952895D02*
X146034095Y-67857657D01*
X146034095Y-67857657D02*
X146081714Y-67810038D01*
X146081714Y-67810038D02*
X146176952Y-67762419D01*
X146176952Y-67762419D02*
X146415047Y-67762419D01*
X146415047Y-67762419D02*
X146557904Y-67810038D01*
X147557904Y-68667180D02*
X147510285Y-68714800D01*
X147510285Y-68714800D02*
X147367428Y-68762419D01*
X147367428Y-68762419D02*
X147272190Y-68762419D01*
X147272190Y-68762419D02*
X147129333Y-68714800D01*
X147129333Y-68714800D02*
X147034095Y-68619561D01*
X147034095Y-68619561D02*
X146986476Y-68524323D01*
X146986476Y-68524323D02*
X146938857Y-68333847D01*
X146938857Y-68333847D02*
X146938857Y-68190990D01*
X146938857Y-68190990D02*
X146986476Y-68000514D01*
X146986476Y-68000514D02*
X147034095Y-67905276D01*
X147034095Y-67905276D02*
X147129333Y-67810038D01*
X147129333Y-67810038D02*
X147272190Y-67762419D01*
X147272190Y-67762419D02*
X147367428Y-67762419D01*
X147367428Y-67762419D02*
X147510285Y-67810038D01*
X147510285Y-67810038D02*
X147557904Y-67857657D01*
X148462666Y-68762419D02*
X147986476Y-68762419D01*
X147986476Y-68762419D02*
X147986476Y-67762419D01*
X138874476Y-76172904D02*
X139350666Y-76172904D01*
X138779238Y-76458619D02*
X139112571Y-75458619D01*
X139112571Y-75458619D02*
X139445904Y-76458619D01*
X139779238Y-76458619D02*
X139779238Y-75791952D01*
X139779238Y-75458619D02*
X139731619Y-75506238D01*
X139731619Y-75506238D02*
X139779238Y-75553857D01*
X139779238Y-75553857D02*
X139826857Y-75506238D01*
X139826857Y-75506238D02*
X139779238Y-75458619D01*
X139779238Y-75458619D02*
X139779238Y-75553857D01*
X140255428Y-75791952D02*
X140255428Y-76458619D01*
X140255428Y-75887190D02*
X140303047Y-75839571D01*
X140303047Y-75839571D02*
X140398285Y-75791952D01*
X140398285Y-75791952D02*
X140541142Y-75791952D01*
X140541142Y-75791952D02*
X140636380Y-75839571D01*
X140636380Y-75839571D02*
X140683999Y-75934809D01*
X140683999Y-75934809D02*
X140683999Y-76458619D01*
X150634628Y-73217009D02*
X150777485Y-73264628D01*
X150777485Y-73264628D02*
X150825104Y-73312247D01*
X150825104Y-73312247D02*
X150872723Y-73407485D01*
X150872723Y-73407485D02*
X150872723Y-73550342D01*
X150872723Y-73550342D02*
X150825104Y-73645580D01*
X150825104Y-73645580D02*
X150777485Y-73693200D01*
X150777485Y-73693200D02*
X150682247Y-73740819D01*
X150682247Y-73740819D02*
X150301295Y-73740819D01*
X150301295Y-73740819D02*
X150301295Y-72740819D01*
X150301295Y-72740819D02*
X150634628Y-72740819D01*
X150634628Y-72740819D02*
X150729866Y-72788438D01*
X150729866Y-72788438D02*
X150777485Y-72836057D01*
X150777485Y-72836057D02*
X150825104Y-72931295D01*
X150825104Y-72931295D02*
X150825104Y-73026533D01*
X150825104Y-73026533D02*
X150777485Y-73121771D01*
X150777485Y-73121771D02*
X150729866Y-73169390D01*
X150729866Y-73169390D02*
X150634628Y-73217009D01*
X150634628Y-73217009D02*
X150301295Y-73217009D01*
X151729866Y-73074152D02*
X151729866Y-73740819D01*
X151301295Y-73074152D02*
X151301295Y-73597961D01*
X151301295Y-73597961D02*
X151348914Y-73693200D01*
X151348914Y-73693200D02*
X151444152Y-73740819D01*
X151444152Y-73740819D02*
X151587009Y-73740819D01*
X151587009Y-73740819D02*
X151682247Y-73693200D01*
X151682247Y-73693200D02*
X151729866Y-73645580D01*
X152063200Y-73074152D02*
X152444152Y-73074152D01*
X152206057Y-72740819D02*
X152206057Y-73597961D01*
X152206057Y-73597961D02*
X152253676Y-73693200D01*
X152253676Y-73693200D02*
X152348914Y-73740819D01*
X152348914Y-73740819D02*
X152444152Y-73740819D01*
X152729867Y-72836057D02*
X152777486Y-72788438D01*
X152777486Y-72788438D02*
X152872724Y-72740819D01*
X152872724Y-72740819D02*
X153110819Y-72740819D01*
X153110819Y-72740819D02*
X153206057Y-72788438D01*
X153206057Y-72788438D02*
X153253676Y-72836057D01*
X153253676Y-72836057D02*
X153301295Y-72931295D01*
X153301295Y-72931295D02*
X153301295Y-73026533D01*
X153301295Y-73026533D02*
X153253676Y-73169390D01*
X153253676Y-73169390D02*
X152682248Y-73740819D01*
X152682248Y-73740819D02*
X153301295Y-73740819D01*
X139445904Y-57218238D02*
X139350666Y-57170619D01*
X139350666Y-57170619D02*
X139207809Y-57170619D01*
X139207809Y-57170619D02*
X139064952Y-57218238D01*
X139064952Y-57218238D02*
X138969714Y-57313476D01*
X138969714Y-57313476D02*
X138922095Y-57408714D01*
X138922095Y-57408714D02*
X138874476Y-57599190D01*
X138874476Y-57599190D02*
X138874476Y-57742047D01*
X138874476Y-57742047D02*
X138922095Y-57932523D01*
X138922095Y-57932523D02*
X138969714Y-58027761D01*
X138969714Y-58027761D02*
X139064952Y-58123000D01*
X139064952Y-58123000D02*
X139207809Y-58170619D01*
X139207809Y-58170619D02*
X139303047Y-58170619D01*
X139303047Y-58170619D02*
X139445904Y-58123000D01*
X139445904Y-58123000D02*
X139493523Y-58075380D01*
X139493523Y-58075380D02*
X139493523Y-57742047D01*
X139493523Y-57742047D02*
X139303047Y-57742047D01*
X139922095Y-58170619D02*
X139922095Y-57170619D01*
X139922095Y-57170619D02*
X140493523Y-58170619D01*
X140493523Y-58170619D02*
X140493523Y-57170619D01*
X140969714Y-58170619D02*
X140969714Y-57170619D01*
X140969714Y-57170619D02*
X141207809Y-57170619D01*
X141207809Y-57170619D02*
X141350666Y-57218238D01*
X141350666Y-57218238D02*
X141445904Y-57313476D01*
X141445904Y-57313476D02*
X141493523Y-57408714D01*
X141493523Y-57408714D02*
X141541142Y-57599190D01*
X141541142Y-57599190D02*
X141541142Y-57742047D01*
X141541142Y-57742047D02*
X141493523Y-57932523D01*
X141493523Y-57932523D02*
X141445904Y-58027761D01*
X141445904Y-58027761D02*
X141350666Y-58123000D01*
X141350666Y-58123000D02*
X141207809Y-58170619D01*
X141207809Y-58170619D02*
X140969714Y-58170619D01*
X117173285Y-55630619D02*
X116697095Y-55630619D01*
X116697095Y-55630619D02*
X116697095Y-54630619D01*
X150825104Y-65168438D02*
X150729866Y-65120819D01*
X150729866Y-65120819D02*
X150587009Y-65120819D01*
X150587009Y-65120819D02*
X150444152Y-65168438D01*
X150444152Y-65168438D02*
X150348914Y-65263676D01*
X150348914Y-65263676D02*
X150301295Y-65358914D01*
X150301295Y-65358914D02*
X150253676Y-65549390D01*
X150253676Y-65549390D02*
X150253676Y-65692247D01*
X150253676Y-65692247D02*
X150301295Y-65882723D01*
X150301295Y-65882723D02*
X150348914Y-65977961D01*
X150348914Y-65977961D02*
X150444152Y-66073200D01*
X150444152Y-66073200D02*
X150587009Y-66120819D01*
X150587009Y-66120819D02*
X150682247Y-66120819D01*
X150682247Y-66120819D02*
X150825104Y-66073200D01*
X150825104Y-66073200D02*
X150872723Y-66025580D01*
X150872723Y-66025580D02*
X150872723Y-65692247D01*
X150872723Y-65692247D02*
X150682247Y-65692247D01*
X151301295Y-66120819D02*
X151301295Y-65120819D01*
X151301295Y-65120819D02*
X151872723Y-66120819D01*
X151872723Y-66120819D02*
X151872723Y-65120819D01*
X152348914Y-66120819D02*
X152348914Y-65120819D01*
X152348914Y-65120819D02*
X152587009Y-65120819D01*
X152587009Y-65120819D02*
X152729866Y-65168438D01*
X152729866Y-65168438D02*
X152825104Y-65263676D01*
X152825104Y-65263676D02*
X152872723Y-65358914D01*
X152872723Y-65358914D02*
X152920342Y-65549390D01*
X152920342Y-65549390D02*
X152920342Y-65692247D01*
X152920342Y-65692247D02*
X152872723Y-65882723D01*
X152872723Y-65882723D02*
X152825104Y-65977961D01*
X152825104Y-65977961D02*
X152729866Y-66073200D01*
X152729866Y-66073200D02*
X152587009Y-66120819D01*
X152587009Y-66120819D02*
X152348914Y-66120819D01*
X145938857Y-72791619D02*
X146557904Y-72791619D01*
X146557904Y-72791619D02*
X146224571Y-73172571D01*
X146224571Y-73172571D02*
X146367428Y-73172571D01*
X146367428Y-73172571D02*
X146462666Y-73220190D01*
X146462666Y-73220190D02*
X146510285Y-73267809D01*
X146510285Y-73267809D02*
X146557904Y-73363047D01*
X146557904Y-73363047D02*
X146557904Y-73601142D01*
X146557904Y-73601142D02*
X146510285Y-73696380D01*
X146510285Y-73696380D02*
X146462666Y-73744000D01*
X146462666Y-73744000D02*
X146367428Y-73791619D01*
X146367428Y-73791619D02*
X146081714Y-73791619D01*
X146081714Y-73791619D02*
X145986476Y-73744000D01*
X145986476Y-73744000D02*
X145938857Y-73696380D01*
X146843619Y-72791619D02*
X147176952Y-73791619D01*
X147176952Y-73791619D02*
X147510285Y-72791619D01*
X147748381Y-72791619D02*
X148367428Y-72791619D01*
X148367428Y-72791619D02*
X148034095Y-73172571D01*
X148034095Y-73172571D02*
X148176952Y-73172571D01*
X148176952Y-73172571D02*
X148272190Y-73220190D01*
X148272190Y-73220190D02*
X148319809Y-73267809D01*
X148319809Y-73267809D02*
X148367428Y-73363047D01*
X148367428Y-73363047D02*
X148367428Y-73601142D01*
X148367428Y-73601142D02*
X148319809Y-73696380D01*
X148319809Y-73696380D02*
X148272190Y-73744000D01*
X148272190Y-73744000D02*
X148176952Y-73791619D01*
X148176952Y-73791619D02*
X147891238Y-73791619D01*
X147891238Y-73791619D02*
X147796000Y-73744000D01*
X147796000Y-73744000D02*
X147748381Y-73696380D01*
X149250304Y-59834438D02*
X149155066Y-59786819D01*
X149155066Y-59786819D02*
X149012209Y-59786819D01*
X149012209Y-59786819D02*
X148869352Y-59834438D01*
X148869352Y-59834438D02*
X148774114Y-59929676D01*
X148774114Y-59929676D02*
X148726495Y-60024914D01*
X148726495Y-60024914D02*
X148678876Y-60215390D01*
X148678876Y-60215390D02*
X148678876Y-60358247D01*
X148678876Y-60358247D02*
X148726495Y-60548723D01*
X148726495Y-60548723D02*
X148774114Y-60643961D01*
X148774114Y-60643961D02*
X148869352Y-60739200D01*
X148869352Y-60739200D02*
X149012209Y-60786819D01*
X149012209Y-60786819D02*
X149107447Y-60786819D01*
X149107447Y-60786819D02*
X149250304Y-60739200D01*
X149250304Y-60739200D02*
X149297923Y-60691580D01*
X149297923Y-60691580D02*
X149297923Y-60358247D01*
X149297923Y-60358247D02*
X149107447Y-60358247D01*
X149726495Y-60786819D02*
X149726495Y-59786819D01*
X149726495Y-59786819D02*
X150297923Y-60786819D01*
X150297923Y-60786819D02*
X150297923Y-59786819D01*
X150774114Y-60786819D02*
X150774114Y-59786819D01*
X150774114Y-59786819D02*
X151012209Y-59786819D01*
X151012209Y-59786819D02*
X151155066Y-59834438D01*
X151155066Y-59834438D02*
X151250304Y-59929676D01*
X151250304Y-59929676D02*
X151297923Y-60024914D01*
X151297923Y-60024914D02*
X151345542Y-60215390D01*
X151345542Y-60215390D02*
X151345542Y-60358247D01*
X151345542Y-60358247D02*
X151297923Y-60548723D01*
X151297923Y-60548723D02*
X151250304Y-60643961D01*
X151250304Y-60643961D02*
X151155066Y-60739200D01*
X151155066Y-60739200D02*
X151012209Y-60786819D01*
X151012209Y-60786819D02*
X150774114Y-60786819D01*
X139445904Y-82618238D02*
X139350666Y-82570619D01*
X139350666Y-82570619D02*
X139207809Y-82570619D01*
X139207809Y-82570619D02*
X139064952Y-82618238D01*
X139064952Y-82618238D02*
X138969714Y-82713476D01*
X138969714Y-82713476D02*
X138922095Y-82808714D01*
X138922095Y-82808714D02*
X138874476Y-82999190D01*
X138874476Y-82999190D02*
X138874476Y-83142047D01*
X138874476Y-83142047D02*
X138922095Y-83332523D01*
X138922095Y-83332523D02*
X138969714Y-83427761D01*
X138969714Y-83427761D02*
X139064952Y-83523000D01*
X139064952Y-83523000D02*
X139207809Y-83570619D01*
X139207809Y-83570619D02*
X139303047Y-83570619D01*
X139303047Y-83570619D02*
X139445904Y-83523000D01*
X139445904Y-83523000D02*
X139493523Y-83475380D01*
X139493523Y-83475380D02*
X139493523Y-83142047D01*
X139493523Y-83142047D02*
X139303047Y-83142047D01*
X139922095Y-83570619D02*
X139922095Y-82570619D01*
X139922095Y-82570619D02*
X140493523Y-83570619D01*
X140493523Y-83570619D02*
X140493523Y-82570619D01*
X140969714Y-83570619D02*
X140969714Y-82570619D01*
X140969714Y-82570619D02*
X141207809Y-82570619D01*
X141207809Y-82570619D02*
X141350666Y-82618238D01*
X141350666Y-82618238D02*
X141445904Y-82713476D01*
X141445904Y-82713476D02*
X141493523Y-82808714D01*
X141493523Y-82808714D02*
X141541142Y-82999190D01*
X141541142Y-82999190D02*
X141541142Y-83142047D01*
X141541142Y-83142047D02*
X141493523Y-83332523D01*
X141493523Y-83332523D02*
X141445904Y-83427761D01*
X141445904Y-83427761D02*
X141350666Y-83523000D01*
X141350666Y-83523000D02*
X141207809Y-83570619D01*
X141207809Y-83570619D02*
X140969714Y-83570619D01*
X138906238Y-52090619D02*
X139239571Y-53090619D01*
X139239571Y-53090619D02*
X139572904Y-52090619D01*
X140239571Y-52566809D02*
X140382428Y-52614428D01*
X140382428Y-52614428D02*
X140430047Y-52662047D01*
X140430047Y-52662047D02*
X140477666Y-52757285D01*
X140477666Y-52757285D02*
X140477666Y-52900142D01*
X140477666Y-52900142D02*
X140430047Y-52995380D01*
X140430047Y-52995380D02*
X140382428Y-53043000D01*
X140382428Y-53043000D02*
X140287190Y-53090619D01*
X140287190Y-53090619D02*
X139906238Y-53090619D01*
X139906238Y-53090619D02*
X139906238Y-52090619D01*
X139906238Y-52090619D02*
X140239571Y-52090619D01*
X140239571Y-52090619D02*
X140334809Y-52138238D01*
X140334809Y-52138238D02*
X140382428Y-52185857D01*
X140382428Y-52185857D02*
X140430047Y-52281095D01*
X140430047Y-52281095D02*
X140430047Y-52376333D01*
X140430047Y-52376333D02*
X140382428Y-52471571D01*
X140382428Y-52471571D02*
X140334809Y-52519190D01*
X140334809Y-52519190D02*
X140239571Y-52566809D01*
X140239571Y-52566809D02*
X139906238Y-52566809D01*
X140906238Y-52090619D02*
X140906238Y-52900142D01*
X140906238Y-52900142D02*
X140953857Y-52995380D01*
X140953857Y-52995380D02*
X141001476Y-53043000D01*
X141001476Y-53043000D02*
X141096714Y-53090619D01*
X141096714Y-53090619D02*
X141287190Y-53090619D01*
X141287190Y-53090619D02*
X141382428Y-53043000D01*
X141382428Y-53043000D02*
X141430047Y-52995380D01*
X141430047Y-52995380D02*
X141477666Y-52900142D01*
X141477666Y-52900142D02*
X141477666Y-52090619D01*
X141906238Y-53043000D02*
X142049095Y-53090619D01*
X142049095Y-53090619D02*
X142287190Y-53090619D01*
X142287190Y-53090619D02*
X142382428Y-53043000D01*
X142382428Y-53043000D02*
X142430047Y-52995380D01*
X142430047Y-52995380D02*
X142477666Y-52900142D01*
X142477666Y-52900142D02*
X142477666Y-52804904D01*
X142477666Y-52804904D02*
X142430047Y-52709666D01*
X142430047Y-52709666D02*
X142382428Y-52662047D01*
X142382428Y-52662047D02*
X142287190Y-52614428D01*
X142287190Y-52614428D02*
X142096714Y-52566809D01*
X142096714Y-52566809D02*
X142001476Y-52519190D01*
X142001476Y-52519190D02*
X141953857Y-52471571D01*
X141953857Y-52471571D02*
X141906238Y-52376333D01*
X141906238Y-52376333D02*
X141906238Y-52281095D01*
X141906238Y-52281095D02*
X141953857Y-52185857D01*
X141953857Y-52185857D02*
X142001476Y-52138238D01*
X142001476Y-52138238D02*
X142096714Y-52090619D01*
X142096714Y-52090619D02*
X142334809Y-52090619D01*
X142334809Y-52090619D02*
X142477666Y-52138238D01*
X125144152Y-89401733D02*
X125810819Y-89401733D01*
X124763200Y-89639828D02*
X125477485Y-89877923D01*
X125477485Y-89877923D02*
X125477485Y-89258876D01*
X125763200Y-88449352D02*
X125810819Y-88544590D01*
X125810819Y-88544590D02*
X125810819Y-88735066D01*
X125810819Y-88735066D02*
X125763200Y-88830304D01*
X125763200Y-88830304D02*
X125715580Y-88877923D01*
X125715580Y-88877923D02*
X125620342Y-88925542D01*
X125620342Y-88925542D02*
X125334628Y-88925542D01*
X125334628Y-88925542D02*
X125239390Y-88877923D01*
X125239390Y-88877923D02*
X125191771Y-88830304D01*
X125191771Y-88830304D02*
X125144152Y-88735066D01*
X125144152Y-88735066D02*
X125144152Y-88544590D01*
X125144152Y-88544590D02*
X125191771Y-88449352D01*
X125810819Y-88020780D02*
X124810819Y-88020780D01*
X125810819Y-87592209D02*
X125287009Y-87592209D01*
X125287009Y-87592209D02*
X125191771Y-87639828D01*
X125191771Y-87639828D02*
X125144152Y-87735066D01*
X125144152Y-87735066D02*
X125144152Y-87877923D01*
X125144152Y-87877923D02*
X125191771Y-87973161D01*
X125191771Y-87973161D02*
X125239390Y-88020780D01*
X125810819Y-86354113D02*
X124810819Y-86354113D01*
X124810819Y-86354113D02*
X124810819Y-86116018D01*
X124810819Y-86116018D02*
X124858438Y-85973161D01*
X124858438Y-85973161D02*
X124953676Y-85877923D01*
X124953676Y-85877923D02*
X125048914Y-85830304D01*
X125048914Y-85830304D02*
X125239390Y-85782685D01*
X125239390Y-85782685D02*
X125382247Y-85782685D01*
X125382247Y-85782685D02*
X125572723Y-85830304D01*
X125572723Y-85830304D02*
X125667961Y-85877923D01*
X125667961Y-85877923D02*
X125763200Y-85973161D01*
X125763200Y-85973161D02*
X125810819Y-86116018D01*
X125810819Y-86116018D02*
X125810819Y-86354113D01*
X125525104Y-85401732D02*
X125525104Y-84925542D01*
X125810819Y-85496970D02*
X124810819Y-85163637D01*
X124810819Y-85163637D02*
X125810819Y-84830304D01*
X125715580Y-83925542D02*
X125763200Y-83973161D01*
X125763200Y-83973161D02*
X125810819Y-84116018D01*
X125810819Y-84116018D02*
X125810819Y-84211256D01*
X125810819Y-84211256D02*
X125763200Y-84354113D01*
X125763200Y-84354113D02*
X125667961Y-84449351D01*
X125667961Y-84449351D02*
X125572723Y-84496970D01*
X125572723Y-84496970D02*
X125382247Y-84544589D01*
X125382247Y-84544589D02*
X125239390Y-84544589D01*
X125239390Y-84544589D02*
X125048914Y-84496970D01*
X125048914Y-84496970D02*
X124953676Y-84449351D01*
X124953676Y-84449351D02*
X124858438Y-84354113D01*
X124858438Y-84354113D02*
X124810819Y-84211256D01*
X124810819Y-84211256D02*
X124810819Y-84116018D01*
X124810819Y-84116018D02*
X124858438Y-83973161D01*
X124858438Y-83973161D02*
X124906057Y-83925542D01*
X138922095Y-88650619D02*
X138922095Y-87650619D01*
X138922095Y-87650619D02*
X139303047Y-87650619D01*
X139303047Y-87650619D02*
X139398285Y-87698238D01*
X139398285Y-87698238D02*
X139445904Y-87745857D01*
X139445904Y-87745857D02*
X139493523Y-87841095D01*
X139493523Y-87841095D02*
X139493523Y-87983952D01*
X139493523Y-87983952D02*
X139445904Y-88079190D01*
X139445904Y-88079190D02*
X139398285Y-88126809D01*
X139398285Y-88126809D02*
X139303047Y-88174428D01*
X139303047Y-88174428D02*
X138922095Y-88174428D01*
X139826857Y-87650619D02*
X140064952Y-88650619D01*
X140064952Y-88650619D02*
X140255428Y-87936333D01*
X140255428Y-87936333D02*
X140445904Y-88650619D01*
X140445904Y-88650619D02*
X140684000Y-87650619D01*
X141064952Y-88650619D02*
X141064952Y-87650619D01*
X141064952Y-87650619D02*
X141398285Y-88364904D01*
X141398285Y-88364904D02*
X141731618Y-87650619D01*
X141731618Y-87650619D02*
X141731618Y-88650619D01*
X142160190Y-87745857D02*
X142207809Y-87698238D01*
X142207809Y-87698238D02*
X142303047Y-87650619D01*
X142303047Y-87650619D02*
X142541142Y-87650619D01*
X142541142Y-87650619D02*
X142636380Y-87698238D01*
X142636380Y-87698238D02*
X142683999Y-87745857D01*
X142683999Y-87745857D02*
X142731618Y-87841095D01*
X142731618Y-87841095D02*
X142731618Y-87936333D01*
X142731618Y-87936333D02*
X142683999Y-88079190D01*
X142683999Y-88079190D02*
X142112571Y-88650619D01*
X142112571Y-88650619D02*
X142731618Y-88650619D01*
X120391219Y-110874228D02*
X120391219Y-110683752D01*
X120391219Y-110683752D02*
X120438838Y-110588514D01*
X120438838Y-110588514D02*
X120534076Y-110493276D01*
X120534076Y-110493276D02*
X120724552Y-110445657D01*
X120724552Y-110445657D02*
X121057885Y-110445657D01*
X121057885Y-110445657D02*
X121248361Y-110493276D01*
X121248361Y-110493276D02*
X121343600Y-110588514D01*
X121343600Y-110588514D02*
X121391219Y-110683752D01*
X121391219Y-110683752D02*
X121391219Y-110874228D01*
X121391219Y-110874228D02*
X121343600Y-110969466D01*
X121343600Y-110969466D02*
X121248361Y-111064704D01*
X121248361Y-111064704D02*
X121057885Y-111112323D01*
X121057885Y-111112323D02*
X120724552Y-111112323D01*
X120724552Y-111112323D02*
X120534076Y-111064704D01*
X120534076Y-111064704D02*
X120438838Y-110969466D01*
X120438838Y-110969466D02*
X120391219Y-110874228D01*
X120724552Y-109588514D02*
X121391219Y-109588514D01*
X120724552Y-110017085D02*
X121248361Y-110017085D01*
X121248361Y-110017085D02*
X121343600Y-109969466D01*
X121343600Y-109969466D02*
X121391219Y-109874228D01*
X121391219Y-109874228D02*
X121391219Y-109731371D01*
X121391219Y-109731371D02*
X121343600Y-109636133D01*
X121343600Y-109636133D02*
X121295980Y-109588514D01*
X120724552Y-109255180D02*
X120724552Y-108874228D01*
X120391219Y-109112323D02*
X121248361Y-109112323D01*
X121248361Y-109112323D02*
X121343600Y-109064704D01*
X121343600Y-109064704D02*
X121391219Y-108969466D01*
X121391219Y-108969466D02*
X121391219Y-108874228D01*
X120391219Y-108112323D02*
X120391219Y-108302799D01*
X120391219Y-108302799D02*
X120438838Y-108398037D01*
X120438838Y-108398037D02*
X120486457Y-108445656D01*
X120486457Y-108445656D02*
X120629314Y-108540894D01*
X120629314Y-108540894D02*
X120819790Y-108588513D01*
X120819790Y-108588513D02*
X121200742Y-108588513D01*
X121200742Y-108588513D02*
X121295980Y-108540894D01*
X121295980Y-108540894D02*
X121343600Y-108493275D01*
X121343600Y-108493275D02*
X121391219Y-108398037D01*
X121391219Y-108398037D02*
X121391219Y-108207561D01*
X121391219Y-108207561D02*
X121343600Y-108112323D01*
X121343600Y-108112323D02*
X121295980Y-108064704D01*
X121295980Y-108064704D02*
X121200742Y-108017085D01*
X121200742Y-108017085D02*
X120962647Y-108017085D01*
X120962647Y-108017085D02*
X120867409Y-108064704D01*
X120867409Y-108064704D02*
X120819790Y-108112323D01*
X120819790Y-108112323D02*
X120772171Y-108207561D01*
X120772171Y-108207561D02*
X120772171Y-108398037D01*
X120772171Y-108398037D02*
X120819790Y-108493275D01*
X120819790Y-108493275D02*
X120867409Y-108540894D01*
X120867409Y-108540894D02*
X120962647Y-108588513D01*
X120391219Y-121542228D02*
X120391219Y-121351752D01*
X120391219Y-121351752D02*
X120438838Y-121256514D01*
X120438838Y-121256514D02*
X120534076Y-121161276D01*
X120534076Y-121161276D02*
X120724552Y-121113657D01*
X120724552Y-121113657D02*
X121057885Y-121113657D01*
X121057885Y-121113657D02*
X121248361Y-121161276D01*
X121248361Y-121161276D02*
X121343600Y-121256514D01*
X121343600Y-121256514D02*
X121391219Y-121351752D01*
X121391219Y-121351752D02*
X121391219Y-121542228D01*
X121391219Y-121542228D02*
X121343600Y-121637466D01*
X121343600Y-121637466D02*
X121248361Y-121732704D01*
X121248361Y-121732704D02*
X121057885Y-121780323D01*
X121057885Y-121780323D02*
X120724552Y-121780323D01*
X120724552Y-121780323D02*
X120534076Y-121732704D01*
X120534076Y-121732704D02*
X120438838Y-121637466D01*
X120438838Y-121637466D02*
X120391219Y-121542228D01*
X120724552Y-120256514D02*
X121391219Y-120256514D01*
X120724552Y-120685085D02*
X121248361Y-120685085D01*
X121248361Y-120685085D02*
X121343600Y-120637466D01*
X121343600Y-120637466D02*
X121391219Y-120542228D01*
X121391219Y-120542228D02*
X121391219Y-120399371D01*
X121391219Y-120399371D02*
X121343600Y-120304133D01*
X121343600Y-120304133D02*
X121295980Y-120256514D01*
X120724552Y-119923180D02*
X120724552Y-119542228D01*
X120391219Y-119780323D02*
X121248361Y-119780323D01*
X121248361Y-119780323D02*
X121343600Y-119732704D01*
X121343600Y-119732704D02*
X121391219Y-119637466D01*
X121391219Y-119637466D02*
X121391219Y-119542228D01*
X120391219Y-118732704D02*
X120391219Y-119208894D01*
X120391219Y-119208894D02*
X120867409Y-119256513D01*
X120867409Y-119256513D02*
X120819790Y-119208894D01*
X120819790Y-119208894D02*
X120772171Y-119113656D01*
X120772171Y-119113656D02*
X120772171Y-118875561D01*
X120772171Y-118875561D02*
X120819790Y-118780323D01*
X120819790Y-118780323D02*
X120867409Y-118732704D01*
X120867409Y-118732704D02*
X120962647Y-118685085D01*
X120962647Y-118685085D02*
X121200742Y-118685085D01*
X121200742Y-118685085D02*
X121295980Y-118732704D01*
X121295980Y-118732704D02*
X121343600Y-118780323D01*
X121343600Y-118780323D02*
X121391219Y-118875561D01*
X121391219Y-118875561D02*
X121391219Y-119113656D01*
X121391219Y-119113656D02*
X121343600Y-119208894D01*
X121343600Y-119208894D02*
X121295980Y-119256513D01*
D16*
X120250023Y-154134380D02*
X119000023Y-154134380D01*
X119000023Y-154134380D02*
X119000023Y-153836761D01*
X119000023Y-153836761D02*
X119059547Y-153658190D01*
X119059547Y-153658190D02*
X119178595Y-153539142D01*
X119178595Y-153539142D02*
X119297642Y-153479619D01*
X119297642Y-153479619D02*
X119535738Y-153420095D01*
X119535738Y-153420095D02*
X119714309Y-153420095D01*
X119714309Y-153420095D02*
X119952404Y-153479619D01*
X119952404Y-153479619D02*
X120071452Y-153539142D01*
X120071452Y-153539142D02*
X120190500Y-153658190D01*
X120190500Y-153658190D02*
X120250023Y-153836761D01*
X120250023Y-153836761D02*
X120250023Y-154134380D01*
X119892880Y-152943904D02*
X119892880Y-152348666D01*
X120250023Y-153062952D02*
X119000023Y-152646285D01*
X119000023Y-152646285D02*
X120250023Y-152229619D01*
X120130976Y-151098666D02*
X120190500Y-151158190D01*
X120190500Y-151158190D02*
X120250023Y-151336761D01*
X120250023Y-151336761D02*
X120250023Y-151455809D01*
X120250023Y-151455809D02*
X120190500Y-151634380D01*
X120190500Y-151634380D02*
X120071452Y-151753428D01*
X120071452Y-151753428D02*
X119952404Y-151812951D01*
X119952404Y-151812951D02*
X119714309Y-151872475D01*
X119714309Y-151872475D02*
X119535738Y-151872475D01*
X119535738Y-151872475D02*
X119297642Y-151812951D01*
X119297642Y-151812951D02*
X119178595Y-151753428D01*
X119178595Y-151753428D02*
X119059547Y-151634380D01*
X119059547Y-151634380D02*
X119000023Y-151455809D01*
X119000023Y-151455809D02*
X119000023Y-151336761D01*
X119000023Y-151336761D02*
X119059547Y-151158190D01*
X119059547Y-151158190D02*
X119119071Y-151098666D01*
X120250023Y-149610570D02*
X119000023Y-149610570D01*
X119476214Y-149610570D02*
X119416690Y-149491523D01*
X119416690Y-149491523D02*
X119416690Y-149253428D01*
X119416690Y-149253428D02*
X119476214Y-149134380D01*
X119476214Y-149134380D02*
X119535738Y-149074856D01*
X119535738Y-149074856D02*
X119654785Y-149015332D01*
X119654785Y-149015332D02*
X120011928Y-149015332D01*
X120011928Y-149015332D02*
X120130976Y-149074856D01*
X120130976Y-149074856D02*
X120190500Y-149134380D01*
X120190500Y-149134380D02*
X120250023Y-149253428D01*
X120250023Y-149253428D02*
X120250023Y-149491523D01*
X120250023Y-149491523D02*
X120190500Y-149610570D01*
X120250023Y-148301047D02*
X120190500Y-148420095D01*
X120190500Y-148420095D02*
X120130976Y-148479618D01*
X120130976Y-148479618D02*
X120011928Y-148539142D01*
X120011928Y-148539142D02*
X119654785Y-148539142D01*
X119654785Y-148539142D02*
X119535738Y-148479618D01*
X119535738Y-148479618D02*
X119476214Y-148420095D01*
X119476214Y-148420095D02*
X119416690Y-148301047D01*
X119416690Y-148301047D02*
X119416690Y-148122476D01*
X119416690Y-148122476D02*
X119476214Y-148003428D01*
X119476214Y-148003428D02*
X119535738Y-147943904D01*
X119535738Y-147943904D02*
X119654785Y-147884380D01*
X119654785Y-147884380D02*
X120011928Y-147884380D01*
X120011928Y-147884380D02*
X120130976Y-147943904D01*
X120130976Y-147943904D02*
X120190500Y-148003428D01*
X120190500Y-148003428D02*
X120250023Y-148122476D01*
X120250023Y-148122476D02*
X120250023Y-148301047D01*
X120250023Y-146812952D02*
X119595261Y-146812952D01*
X119595261Y-146812952D02*
X119476214Y-146872476D01*
X119476214Y-146872476D02*
X119416690Y-146991524D01*
X119416690Y-146991524D02*
X119416690Y-147229619D01*
X119416690Y-147229619D02*
X119476214Y-147348666D01*
X120190500Y-146812952D02*
X120250023Y-146932000D01*
X120250023Y-146932000D02*
X120250023Y-147229619D01*
X120250023Y-147229619D02*
X120190500Y-147348666D01*
X120190500Y-147348666D02*
X120071452Y-147408190D01*
X120071452Y-147408190D02*
X119952404Y-147408190D01*
X119952404Y-147408190D02*
X119833357Y-147348666D01*
X119833357Y-147348666D02*
X119773833Y-147229619D01*
X119773833Y-147229619D02*
X119773833Y-146932000D01*
X119773833Y-146932000D02*
X119714309Y-146812952D01*
X120250023Y-146217714D02*
X119416690Y-146217714D01*
X119654785Y-146217714D02*
X119535738Y-146158191D01*
X119535738Y-146158191D02*
X119476214Y-146098667D01*
X119476214Y-146098667D02*
X119416690Y-145979619D01*
X119416690Y-145979619D02*
X119416690Y-145860572D01*
X120250023Y-144908190D02*
X119000023Y-144908190D01*
X120190500Y-144908190D02*
X120250023Y-145027238D01*
X120250023Y-145027238D02*
X120250023Y-145265333D01*
X120250023Y-145265333D02*
X120190500Y-145384381D01*
X120190500Y-145384381D02*
X120130976Y-145443904D01*
X120130976Y-145443904D02*
X120011928Y-145503428D01*
X120011928Y-145503428D02*
X119654785Y-145503428D01*
X119654785Y-145503428D02*
X119535738Y-145443904D01*
X119535738Y-145443904D02*
X119476214Y-145384381D01*
X119476214Y-145384381D02*
X119416690Y-145265333D01*
X119416690Y-145265333D02*
X119416690Y-145027238D01*
X119416690Y-145027238D02*
X119476214Y-144908190D01*
X119416690Y-143539143D02*
X119416690Y-143062952D01*
X120250023Y-143360571D02*
X119178595Y-143360571D01*
X119178595Y-143360571D02*
X119059547Y-143301048D01*
X119059547Y-143301048D02*
X119000023Y-143182000D01*
X119000023Y-143182000D02*
X119000023Y-143062952D01*
X120250023Y-142467714D02*
X120190500Y-142586762D01*
X120190500Y-142586762D02*
X120130976Y-142646285D01*
X120130976Y-142646285D02*
X120011928Y-142705809D01*
X120011928Y-142705809D02*
X119654785Y-142705809D01*
X119654785Y-142705809D02*
X119535738Y-142646285D01*
X119535738Y-142646285D02*
X119476214Y-142586762D01*
X119476214Y-142586762D02*
X119416690Y-142467714D01*
X119416690Y-142467714D02*
X119416690Y-142289143D01*
X119416690Y-142289143D02*
X119476214Y-142170095D01*
X119476214Y-142170095D02*
X119535738Y-142110571D01*
X119535738Y-142110571D02*
X119654785Y-142051047D01*
X119654785Y-142051047D02*
X120011928Y-142051047D01*
X120011928Y-142051047D02*
X120130976Y-142110571D01*
X120130976Y-142110571D02*
X120190500Y-142170095D01*
X120190500Y-142170095D02*
X120250023Y-142289143D01*
X120250023Y-142289143D02*
X120250023Y-142467714D01*
X120250023Y-141515333D02*
X119416690Y-141515333D01*
X119654785Y-141515333D02*
X119535738Y-141455810D01*
X119535738Y-141455810D02*
X119476214Y-141396286D01*
X119476214Y-141396286D02*
X119416690Y-141277238D01*
X119416690Y-141277238D02*
X119416690Y-141158191D01*
X119595261Y-139789142D02*
X119595261Y-139372476D01*
X120250023Y-139193904D02*
X120250023Y-139789142D01*
X120250023Y-139789142D02*
X119000023Y-139789142D01*
X119000023Y-139789142D02*
X119000023Y-139193904D01*
X119416690Y-138122476D02*
X120250023Y-138122476D01*
X119416690Y-138658190D02*
X120071452Y-138658190D01*
X120071452Y-138658190D02*
X120190500Y-138598667D01*
X120190500Y-138598667D02*
X120250023Y-138479619D01*
X120250023Y-138479619D02*
X120250023Y-138301048D01*
X120250023Y-138301048D02*
X120190500Y-138182000D01*
X120190500Y-138182000D02*
X120130976Y-138122476D01*
X120250023Y-137527238D02*
X119416690Y-137527238D01*
X119654785Y-137527238D02*
X119535738Y-137467715D01*
X119535738Y-137467715D02*
X119476214Y-137408191D01*
X119476214Y-137408191D02*
X119416690Y-137289143D01*
X119416690Y-137289143D02*
X119416690Y-137170096D01*
X120250023Y-136574857D02*
X120190500Y-136693905D01*
X120190500Y-136693905D02*
X120130976Y-136753428D01*
X120130976Y-136753428D02*
X120011928Y-136812952D01*
X120011928Y-136812952D02*
X119654785Y-136812952D01*
X119654785Y-136812952D02*
X119535738Y-136753428D01*
X119535738Y-136753428D02*
X119476214Y-136693905D01*
X119476214Y-136693905D02*
X119416690Y-136574857D01*
X119416690Y-136574857D02*
X119416690Y-136396286D01*
X119416690Y-136396286D02*
X119476214Y-136277238D01*
X119476214Y-136277238D02*
X119535738Y-136217714D01*
X119535738Y-136217714D02*
X119654785Y-136158190D01*
X119654785Y-136158190D02*
X120011928Y-136158190D01*
X120011928Y-136158190D02*
X120130976Y-136217714D01*
X120130976Y-136217714D02*
X120190500Y-136277238D01*
X120190500Y-136277238D02*
X120250023Y-136396286D01*
X120250023Y-136396286D02*
X120250023Y-136574857D01*
X120250023Y-135622476D02*
X119000023Y-135622476D01*
X119000023Y-135622476D02*
X119000023Y-135146286D01*
X119000023Y-135146286D02*
X119059547Y-135027238D01*
X119059547Y-135027238D02*
X119119071Y-134967715D01*
X119119071Y-134967715D02*
X119238119Y-134908191D01*
X119238119Y-134908191D02*
X119416690Y-134908191D01*
X119416690Y-134908191D02*
X119535738Y-134967715D01*
X119535738Y-134967715D02*
X119595261Y-135027238D01*
X119595261Y-135027238D02*
X119654785Y-135146286D01*
X119654785Y-135146286D02*
X119654785Y-135622476D01*
X120250023Y-134372476D02*
X119416690Y-134372476D01*
X119000023Y-134372476D02*
X119059547Y-134432000D01*
X119059547Y-134432000D02*
X119119071Y-134372476D01*
X119119071Y-134372476D02*
X119059547Y-134312953D01*
X119059547Y-134312953D02*
X119000023Y-134372476D01*
X119000023Y-134372476D02*
X119119071Y-134372476D01*
X121441690Y-154253428D02*
X122275023Y-153955809D01*
X122275023Y-153955809D02*
X121441690Y-153658190D01*
X122275023Y-152527238D02*
X122275023Y-153241523D01*
X122275023Y-152884380D02*
X121025023Y-152884380D01*
X121025023Y-152884380D02*
X121203595Y-153003428D01*
X121203595Y-153003428D02*
X121322642Y-153122476D01*
X121322642Y-153122476D02*
X121382166Y-153241523D01*
X122155976Y-151991523D02*
X122215500Y-151932000D01*
X122215500Y-151932000D02*
X122275023Y-151991523D01*
X122275023Y-151991523D02*
X122215500Y-152051047D01*
X122215500Y-152051047D02*
X122155976Y-151991523D01*
X122155976Y-151991523D02*
X122275023Y-151991523D01*
X121025023Y-151158190D02*
X121025023Y-151039143D01*
X121025023Y-151039143D02*
X121084547Y-150920095D01*
X121084547Y-150920095D02*
X121144071Y-150860571D01*
X121144071Y-150860571D02*
X121263119Y-150801047D01*
X121263119Y-150801047D02*
X121501214Y-150741524D01*
X121501214Y-150741524D02*
X121798833Y-150741524D01*
X121798833Y-150741524D02*
X122036928Y-150801047D01*
X122036928Y-150801047D02*
X122155976Y-150860571D01*
X122155976Y-150860571D02*
X122215500Y-150920095D01*
X122215500Y-150920095D02*
X122275023Y-151039143D01*
X122275023Y-151039143D02*
X122275023Y-151158190D01*
X122275023Y-151158190D02*
X122215500Y-151277238D01*
X122215500Y-151277238D02*
X122155976Y-151336762D01*
X122155976Y-151336762D02*
X122036928Y-151396285D01*
X122036928Y-151396285D02*
X121798833Y-151455809D01*
X121798833Y-151455809D02*
X121501214Y-151455809D01*
X121501214Y-151455809D02*
X121263119Y-151396285D01*
X121263119Y-151396285D02*
X121144071Y-151336762D01*
X121144071Y-151336762D02*
X121084547Y-151277238D01*
X121084547Y-151277238D02*
X121025023Y-151158190D01*
D10*
X128011219Y-110874228D02*
X128011219Y-110683752D01*
X128011219Y-110683752D02*
X128058838Y-110588514D01*
X128058838Y-110588514D02*
X128154076Y-110493276D01*
X128154076Y-110493276D02*
X128344552Y-110445657D01*
X128344552Y-110445657D02*
X128677885Y-110445657D01*
X128677885Y-110445657D02*
X128868361Y-110493276D01*
X128868361Y-110493276D02*
X128963600Y-110588514D01*
X128963600Y-110588514D02*
X129011219Y-110683752D01*
X129011219Y-110683752D02*
X129011219Y-110874228D01*
X129011219Y-110874228D02*
X128963600Y-110969466D01*
X128963600Y-110969466D02*
X128868361Y-111064704D01*
X128868361Y-111064704D02*
X128677885Y-111112323D01*
X128677885Y-111112323D02*
X128344552Y-111112323D01*
X128344552Y-111112323D02*
X128154076Y-111064704D01*
X128154076Y-111064704D02*
X128058838Y-110969466D01*
X128058838Y-110969466D02*
X128011219Y-110874228D01*
X128344552Y-109588514D02*
X129011219Y-109588514D01*
X128344552Y-110017085D02*
X128868361Y-110017085D01*
X128868361Y-110017085D02*
X128963600Y-109969466D01*
X128963600Y-109969466D02*
X129011219Y-109874228D01*
X129011219Y-109874228D02*
X129011219Y-109731371D01*
X129011219Y-109731371D02*
X128963600Y-109636133D01*
X128963600Y-109636133D02*
X128915980Y-109588514D01*
X128344552Y-109255180D02*
X128344552Y-108874228D01*
X128011219Y-109112323D02*
X128868361Y-109112323D01*
X128868361Y-109112323D02*
X128963600Y-109064704D01*
X128963600Y-109064704D02*
X129011219Y-108969466D01*
X129011219Y-108969466D02*
X129011219Y-108874228D01*
X128011219Y-108636132D02*
X128011219Y-108017085D01*
X128011219Y-108017085D02*
X128392171Y-108350418D01*
X128392171Y-108350418D02*
X128392171Y-108207561D01*
X128392171Y-108207561D02*
X128439790Y-108112323D01*
X128439790Y-108112323D02*
X128487409Y-108064704D01*
X128487409Y-108064704D02*
X128582647Y-108017085D01*
X128582647Y-108017085D02*
X128820742Y-108017085D01*
X128820742Y-108017085D02*
X128915980Y-108064704D01*
X128915980Y-108064704D02*
X128963600Y-108112323D01*
X128963600Y-108112323D02*
X129011219Y-108207561D01*
X129011219Y-108207561D02*
X129011219Y-108493275D01*
X129011219Y-108493275D02*
X128963600Y-108588513D01*
X128963600Y-108588513D02*
X128915980Y-108636132D01*
X125471219Y-110874228D02*
X125471219Y-110683752D01*
X125471219Y-110683752D02*
X125518838Y-110588514D01*
X125518838Y-110588514D02*
X125614076Y-110493276D01*
X125614076Y-110493276D02*
X125804552Y-110445657D01*
X125804552Y-110445657D02*
X126137885Y-110445657D01*
X126137885Y-110445657D02*
X126328361Y-110493276D01*
X126328361Y-110493276D02*
X126423600Y-110588514D01*
X126423600Y-110588514D02*
X126471219Y-110683752D01*
X126471219Y-110683752D02*
X126471219Y-110874228D01*
X126471219Y-110874228D02*
X126423600Y-110969466D01*
X126423600Y-110969466D02*
X126328361Y-111064704D01*
X126328361Y-111064704D02*
X126137885Y-111112323D01*
X126137885Y-111112323D02*
X125804552Y-111112323D01*
X125804552Y-111112323D02*
X125614076Y-111064704D01*
X125614076Y-111064704D02*
X125518838Y-110969466D01*
X125518838Y-110969466D02*
X125471219Y-110874228D01*
X125804552Y-109588514D02*
X126471219Y-109588514D01*
X125804552Y-110017085D02*
X126328361Y-110017085D01*
X126328361Y-110017085D02*
X126423600Y-109969466D01*
X126423600Y-109969466D02*
X126471219Y-109874228D01*
X126471219Y-109874228D02*
X126471219Y-109731371D01*
X126471219Y-109731371D02*
X126423600Y-109636133D01*
X126423600Y-109636133D02*
X126375980Y-109588514D01*
X125804552Y-109255180D02*
X125804552Y-108874228D01*
X125471219Y-109112323D02*
X126328361Y-109112323D01*
X126328361Y-109112323D02*
X126423600Y-109064704D01*
X126423600Y-109064704D02*
X126471219Y-108969466D01*
X126471219Y-108969466D02*
X126471219Y-108874228D01*
X126471219Y-108017085D02*
X126471219Y-108588513D01*
X126471219Y-108302799D02*
X125471219Y-108302799D01*
X125471219Y-108302799D02*
X125614076Y-108398037D01*
X125614076Y-108398037D02*
X125709314Y-108493275D01*
X125709314Y-108493275D02*
X125756933Y-108588513D01*
X125471219Y-121542228D02*
X125471219Y-121351752D01*
X125471219Y-121351752D02*
X125518838Y-121256514D01*
X125518838Y-121256514D02*
X125614076Y-121161276D01*
X125614076Y-121161276D02*
X125804552Y-121113657D01*
X125804552Y-121113657D02*
X126137885Y-121113657D01*
X126137885Y-121113657D02*
X126328361Y-121161276D01*
X126328361Y-121161276D02*
X126423600Y-121256514D01*
X126423600Y-121256514D02*
X126471219Y-121351752D01*
X126471219Y-121351752D02*
X126471219Y-121542228D01*
X126471219Y-121542228D02*
X126423600Y-121637466D01*
X126423600Y-121637466D02*
X126328361Y-121732704D01*
X126328361Y-121732704D02*
X126137885Y-121780323D01*
X126137885Y-121780323D02*
X125804552Y-121780323D01*
X125804552Y-121780323D02*
X125614076Y-121732704D01*
X125614076Y-121732704D02*
X125518838Y-121637466D01*
X125518838Y-121637466D02*
X125471219Y-121542228D01*
X125804552Y-120256514D02*
X126471219Y-120256514D01*
X125804552Y-120685085D02*
X126328361Y-120685085D01*
X126328361Y-120685085D02*
X126423600Y-120637466D01*
X126423600Y-120637466D02*
X126471219Y-120542228D01*
X126471219Y-120542228D02*
X126471219Y-120399371D01*
X126471219Y-120399371D02*
X126423600Y-120304133D01*
X126423600Y-120304133D02*
X126375980Y-120256514D01*
X125804552Y-119923180D02*
X125804552Y-119542228D01*
X125471219Y-119780323D02*
X126328361Y-119780323D01*
X126328361Y-119780323D02*
X126423600Y-119732704D01*
X126423600Y-119732704D02*
X126471219Y-119637466D01*
X126471219Y-119637466D02*
X126471219Y-119542228D01*
X125566457Y-119256513D02*
X125518838Y-119208894D01*
X125518838Y-119208894D02*
X125471219Y-119113656D01*
X125471219Y-119113656D02*
X125471219Y-118875561D01*
X125471219Y-118875561D02*
X125518838Y-118780323D01*
X125518838Y-118780323D02*
X125566457Y-118732704D01*
X125566457Y-118732704D02*
X125661695Y-118685085D01*
X125661695Y-118685085D02*
X125756933Y-118685085D01*
X125756933Y-118685085D02*
X125899790Y-118732704D01*
X125899790Y-118732704D02*
X126471219Y-119304132D01*
X126471219Y-119304132D02*
X126471219Y-118685085D01*
X148964590Y-55532200D02*
X149107447Y-55579819D01*
X149107447Y-55579819D02*
X149345542Y-55579819D01*
X149345542Y-55579819D02*
X149440780Y-55532200D01*
X149440780Y-55532200D02*
X149488399Y-55484580D01*
X149488399Y-55484580D02*
X149536018Y-55389342D01*
X149536018Y-55389342D02*
X149536018Y-55294104D01*
X149536018Y-55294104D02*
X149488399Y-55198866D01*
X149488399Y-55198866D02*
X149440780Y-55151247D01*
X149440780Y-55151247D02*
X149345542Y-55103628D01*
X149345542Y-55103628D02*
X149155066Y-55056009D01*
X149155066Y-55056009D02*
X149059828Y-55008390D01*
X149059828Y-55008390D02*
X149012209Y-54960771D01*
X149012209Y-54960771D02*
X148964590Y-54865533D01*
X148964590Y-54865533D02*
X148964590Y-54770295D01*
X148964590Y-54770295D02*
X149012209Y-54675057D01*
X149012209Y-54675057D02*
X149059828Y-54627438D01*
X149059828Y-54627438D02*
X149155066Y-54579819D01*
X149155066Y-54579819D02*
X149393161Y-54579819D01*
X149393161Y-54579819D02*
X149536018Y-54627438D01*
X150536018Y-55484580D02*
X150488399Y-55532200D01*
X150488399Y-55532200D02*
X150345542Y-55579819D01*
X150345542Y-55579819D02*
X150250304Y-55579819D01*
X150250304Y-55579819D02*
X150107447Y-55532200D01*
X150107447Y-55532200D02*
X150012209Y-55436961D01*
X150012209Y-55436961D02*
X149964590Y-55341723D01*
X149964590Y-55341723D02*
X149916971Y-55151247D01*
X149916971Y-55151247D02*
X149916971Y-55008390D01*
X149916971Y-55008390D02*
X149964590Y-54817914D01*
X149964590Y-54817914D02*
X150012209Y-54722676D01*
X150012209Y-54722676D02*
X150107447Y-54627438D01*
X150107447Y-54627438D02*
X150250304Y-54579819D01*
X150250304Y-54579819D02*
X150345542Y-54579819D01*
X150345542Y-54579819D02*
X150488399Y-54627438D01*
X150488399Y-54627438D02*
X150536018Y-54675057D01*
X151440780Y-55579819D02*
X150964590Y-55579819D01*
X150964590Y-55579819D02*
X150964590Y-54579819D01*
X117268523Y-93762380D02*
X117220904Y-93810000D01*
X117220904Y-93810000D02*
X117078047Y-93857619D01*
X117078047Y-93857619D02*
X116982809Y-93857619D01*
X116982809Y-93857619D02*
X116839952Y-93810000D01*
X116839952Y-93810000D02*
X116744714Y-93714761D01*
X116744714Y-93714761D02*
X116697095Y-93619523D01*
X116697095Y-93619523D02*
X116649476Y-93429047D01*
X116649476Y-93429047D02*
X116649476Y-93286190D01*
X116649476Y-93286190D02*
X116697095Y-93095714D01*
X116697095Y-93095714D02*
X116744714Y-93000476D01*
X116744714Y-93000476D02*
X116839952Y-92905238D01*
X116839952Y-92905238D02*
X116982809Y-92857619D01*
X116982809Y-92857619D02*
X117078047Y-92857619D01*
X117078047Y-92857619D02*
X117220904Y-92905238D01*
X117220904Y-92905238D02*
X117268523Y-92952857D01*
X122931219Y-110874228D02*
X122931219Y-110683752D01*
X122931219Y-110683752D02*
X122978838Y-110588514D01*
X122978838Y-110588514D02*
X123074076Y-110493276D01*
X123074076Y-110493276D02*
X123264552Y-110445657D01*
X123264552Y-110445657D02*
X123597885Y-110445657D01*
X123597885Y-110445657D02*
X123788361Y-110493276D01*
X123788361Y-110493276D02*
X123883600Y-110588514D01*
X123883600Y-110588514D02*
X123931219Y-110683752D01*
X123931219Y-110683752D02*
X123931219Y-110874228D01*
X123931219Y-110874228D02*
X123883600Y-110969466D01*
X123883600Y-110969466D02*
X123788361Y-111064704D01*
X123788361Y-111064704D02*
X123597885Y-111112323D01*
X123597885Y-111112323D02*
X123264552Y-111112323D01*
X123264552Y-111112323D02*
X123074076Y-111064704D01*
X123074076Y-111064704D02*
X122978838Y-110969466D01*
X122978838Y-110969466D02*
X122931219Y-110874228D01*
X123264552Y-109588514D02*
X123931219Y-109588514D01*
X123264552Y-110017085D02*
X123788361Y-110017085D01*
X123788361Y-110017085D02*
X123883600Y-109969466D01*
X123883600Y-109969466D02*
X123931219Y-109874228D01*
X123931219Y-109874228D02*
X123931219Y-109731371D01*
X123931219Y-109731371D02*
X123883600Y-109636133D01*
X123883600Y-109636133D02*
X123835980Y-109588514D01*
X123264552Y-109255180D02*
X123264552Y-108874228D01*
X122931219Y-109112323D02*
X123788361Y-109112323D01*
X123788361Y-109112323D02*
X123883600Y-109064704D01*
X123883600Y-109064704D02*
X123931219Y-108969466D01*
X123931219Y-108969466D02*
X123931219Y-108874228D01*
X123264552Y-108112323D02*
X123931219Y-108112323D01*
X122883600Y-108350418D02*
X123597885Y-108588513D01*
X123597885Y-108588513D02*
X123597885Y-107969466D01*
X138906238Y-54630619D02*
X139239571Y-55630619D01*
X139239571Y-55630619D02*
X139572904Y-54630619D01*
X139858619Y-55583000D02*
X140001476Y-55630619D01*
X140001476Y-55630619D02*
X140239571Y-55630619D01*
X140239571Y-55630619D02*
X140334809Y-55583000D01*
X140334809Y-55583000D02*
X140382428Y-55535380D01*
X140382428Y-55535380D02*
X140430047Y-55440142D01*
X140430047Y-55440142D02*
X140430047Y-55344904D01*
X140430047Y-55344904D02*
X140382428Y-55249666D01*
X140382428Y-55249666D02*
X140334809Y-55202047D01*
X140334809Y-55202047D02*
X140239571Y-55154428D01*
X140239571Y-55154428D02*
X140049095Y-55106809D01*
X140049095Y-55106809D02*
X139953857Y-55059190D01*
X139953857Y-55059190D02*
X139906238Y-55011571D01*
X139906238Y-55011571D02*
X139858619Y-54916333D01*
X139858619Y-54916333D02*
X139858619Y-54821095D01*
X139858619Y-54821095D02*
X139906238Y-54725857D01*
X139906238Y-54725857D02*
X139953857Y-54678238D01*
X139953857Y-54678238D02*
X140049095Y-54630619D01*
X140049095Y-54630619D02*
X140287190Y-54630619D01*
X140287190Y-54630619D02*
X140430047Y-54678238D01*
X141049095Y-55154428D02*
X141049095Y-55630619D01*
X140715762Y-54630619D02*
X141049095Y-55154428D01*
X141049095Y-55154428D02*
X141382428Y-54630619D01*
X141668143Y-55583000D02*
X141811000Y-55630619D01*
X141811000Y-55630619D02*
X142049095Y-55630619D01*
X142049095Y-55630619D02*
X142144333Y-55583000D01*
X142144333Y-55583000D02*
X142191952Y-55535380D01*
X142191952Y-55535380D02*
X142239571Y-55440142D01*
X142239571Y-55440142D02*
X142239571Y-55344904D01*
X142239571Y-55344904D02*
X142191952Y-55249666D01*
X142191952Y-55249666D02*
X142144333Y-55202047D01*
X142144333Y-55202047D02*
X142049095Y-55154428D01*
X142049095Y-55154428D02*
X141858619Y-55106809D01*
X141858619Y-55106809D02*
X141763381Y-55059190D01*
X141763381Y-55059190D02*
X141715762Y-55011571D01*
X141715762Y-55011571D02*
X141668143Y-54916333D01*
X141668143Y-54916333D02*
X141668143Y-54821095D01*
X141668143Y-54821095D02*
X141715762Y-54725857D01*
X141715762Y-54725857D02*
X141763381Y-54678238D01*
X141763381Y-54678238D02*
X141858619Y-54630619D01*
X141858619Y-54630619D02*
X142096714Y-54630619D01*
X142096714Y-54630619D02*
X142239571Y-54678238D01*
X128858819Y-125390304D02*
X127858819Y-125390304D01*
X127858819Y-125390304D02*
X127858819Y-125152209D01*
X127858819Y-125152209D02*
X127906438Y-125009352D01*
X127906438Y-125009352D02*
X128001676Y-124914114D01*
X128001676Y-124914114D02*
X128096914Y-124866495D01*
X128096914Y-124866495D02*
X128287390Y-124818876D01*
X128287390Y-124818876D02*
X128430247Y-124818876D01*
X128430247Y-124818876D02*
X128620723Y-124866495D01*
X128620723Y-124866495D02*
X128715961Y-124914114D01*
X128715961Y-124914114D02*
X128811200Y-125009352D01*
X128811200Y-125009352D02*
X128858819Y-125152209D01*
X128858819Y-125152209D02*
X128858819Y-125390304D01*
X128858819Y-124390304D02*
X128192152Y-124390304D01*
X127858819Y-124390304D02*
X127906438Y-124437923D01*
X127906438Y-124437923D02*
X127954057Y-124390304D01*
X127954057Y-124390304D02*
X127906438Y-124342685D01*
X127906438Y-124342685D02*
X127858819Y-124390304D01*
X127858819Y-124390304D02*
X127954057Y-124390304D01*
X128192152Y-123485543D02*
X129001676Y-123485543D01*
X129001676Y-123485543D02*
X129096914Y-123533162D01*
X129096914Y-123533162D02*
X129144533Y-123580781D01*
X129144533Y-123580781D02*
X129192152Y-123676019D01*
X129192152Y-123676019D02*
X129192152Y-123818876D01*
X129192152Y-123818876D02*
X129144533Y-123914114D01*
X128811200Y-123485543D02*
X128858819Y-123580781D01*
X128858819Y-123580781D02*
X128858819Y-123771257D01*
X128858819Y-123771257D02*
X128811200Y-123866495D01*
X128811200Y-123866495D02*
X128763580Y-123914114D01*
X128763580Y-123914114D02*
X128668342Y-123961733D01*
X128668342Y-123961733D02*
X128382628Y-123961733D01*
X128382628Y-123961733D02*
X128287390Y-123914114D01*
X128287390Y-123914114D02*
X128239771Y-123866495D01*
X128239771Y-123866495D02*
X128192152Y-123771257D01*
X128192152Y-123771257D02*
X128192152Y-123580781D01*
X128192152Y-123580781D02*
X128239771Y-123485543D01*
X128858819Y-123009352D02*
X128192152Y-123009352D01*
X127858819Y-123009352D02*
X127906438Y-123056971D01*
X127906438Y-123056971D02*
X127954057Y-123009352D01*
X127954057Y-123009352D02*
X127906438Y-122961733D01*
X127906438Y-122961733D02*
X127858819Y-123009352D01*
X127858819Y-123009352D02*
X127954057Y-123009352D01*
X128192152Y-122676019D02*
X128192152Y-122295067D01*
X127858819Y-122533162D02*
X128715961Y-122533162D01*
X128715961Y-122533162D02*
X128811200Y-122485543D01*
X128811200Y-122485543D02*
X128858819Y-122390305D01*
X128858819Y-122390305D02*
X128858819Y-122295067D01*
X128858819Y-121533162D02*
X128335009Y-121533162D01*
X128335009Y-121533162D02*
X128239771Y-121580781D01*
X128239771Y-121580781D02*
X128192152Y-121676019D01*
X128192152Y-121676019D02*
X128192152Y-121866495D01*
X128192152Y-121866495D02*
X128239771Y-121961733D01*
X128811200Y-121533162D02*
X128858819Y-121628400D01*
X128858819Y-121628400D02*
X128858819Y-121866495D01*
X128858819Y-121866495D02*
X128811200Y-121961733D01*
X128811200Y-121961733D02*
X128715961Y-122009352D01*
X128715961Y-122009352D02*
X128620723Y-122009352D01*
X128620723Y-122009352D02*
X128525485Y-121961733D01*
X128525485Y-121961733D02*
X128477866Y-121866495D01*
X128477866Y-121866495D02*
X128477866Y-121628400D01*
X128477866Y-121628400D02*
X128430247Y-121533162D01*
X128858819Y-120914114D02*
X128811200Y-121009352D01*
X128811200Y-121009352D02*
X128715961Y-121056971D01*
X128715961Y-121056971D02*
X127858819Y-121056971D01*
X128858819Y-119771256D02*
X128192152Y-119771256D01*
X127858819Y-119771256D02*
X127906438Y-119818875D01*
X127906438Y-119818875D02*
X127954057Y-119771256D01*
X127954057Y-119771256D02*
X127906438Y-119723637D01*
X127906438Y-119723637D02*
X127858819Y-119771256D01*
X127858819Y-119771256D02*
X127954057Y-119771256D01*
X128192152Y-119295066D02*
X128858819Y-119295066D01*
X128287390Y-119295066D02*
X128239771Y-119247447D01*
X128239771Y-119247447D02*
X128192152Y-119152209D01*
X128192152Y-119152209D02*
X128192152Y-119009352D01*
X128192152Y-119009352D02*
X128239771Y-118914114D01*
X128239771Y-118914114D02*
X128335009Y-118866495D01*
X128335009Y-118866495D02*
X128858819Y-118866495D01*
X116649476Y-98651904D02*
X117125666Y-98651904D01*
X116554238Y-98937619D02*
X116887571Y-97937619D01*
X116887571Y-97937619D02*
X117220904Y-98937619D01*
X150253676Y-68664000D02*
X150396533Y-68711619D01*
X150396533Y-68711619D02*
X150634628Y-68711619D01*
X150634628Y-68711619D02*
X150729866Y-68664000D01*
X150729866Y-68664000D02*
X150777485Y-68616380D01*
X150777485Y-68616380D02*
X150825104Y-68521142D01*
X150825104Y-68521142D02*
X150825104Y-68425904D01*
X150825104Y-68425904D02*
X150777485Y-68330666D01*
X150777485Y-68330666D02*
X150729866Y-68283047D01*
X150729866Y-68283047D02*
X150634628Y-68235428D01*
X150634628Y-68235428D02*
X150444152Y-68187809D01*
X150444152Y-68187809D02*
X150348914Y-68140190D01*
X150348914Y-68140190D02*
X150301295Y-68092571D01*
X150301295Y-68092571D02*
X150253676Y-67997333D01*
X150253676Y-67997333D02*
X150253676Y-67902095D01*
X150253676Y-67902095D02*
X150301295Y-67806857D01*
X150301295Y-67806857D02*
X150348914Y-67759238D01*
X150348914Y-67759238D02*
X150444152Y-67711619D01*
X150444152Y-67711619D02*
X150682247Y-67711619D01*
X150682247Y-67711619D02*
X150825104Y-67759238D01*
X151253676Y-68711619D02*
X151253676Y-67711619D01*
X151253676Y-67711619D02*
X151491771Y-67711619D01*
X151491771Y-67711619D02*
X151634628Y-67759238D01*
X151634628Y-67759238D02*
X151729866Y-67854476D01*
X151729866Y-67854476D02*
X151777485Y-67949714D01*
X151777485Y-67949714D02*
X151825104Y-68140190D01*
X151825104Y-68140190D02*
X151825104Y-68283047D01*
X151825104Y-68283047D02*
X151777485Y-68473523D01*
X151777485Y-68473523D02*
X151729866Y-68568761D01*
X151729866Y-68568761D02*
X151634628Y-68664000D01*
X151634628Y-68664000D02*
X151491771Y-68711619D01*
X151491771Y-68711619D02*
X151253676Y-68711619D01*
X152206057Y-68425904D02*
X152682247Y-68425904D01*
X152110819Y-68711619D02*
X152444152Y-67711619D01*
X152444152Y-67711619D02*
X152777485Y-68711619D01*
X148916971Y-52992200D02*
X149059828Y-53039819D01*
X149059828Y-53039819D02*
X149297923Y-53039819D01*
X149297923Y-53039819D02*
X149393161Y-52992200D01*
X149393161Y-52992200D02*
X149440780Y-52944580D01*
X149440780Y-52944580D02*
X149488399Y-52849342D01*
X149488399Y-52849342D02*
X149488399Y-52754104D01*
X149488399Y-52754104D02*
X149440780Y-52658866D01*
X149440780Y-52658866D02*
X149393161Y-52611247D01*
X149393161Y-52611247D02*
X149297923Y-52563628D01*
X149297923Y-52563628D02*
X149107447Y-52516009D01*
X149107447Y-52516009D02*
X149012209Y-52468390D01*
X149012209Y-52468390D02*
X148964590Y-52420771D01*
X148964590Y-52420771D02*
X148916971Y-52325533D01*
X148916971Y-52325533D02*
X148916971Y-52230295D01*
X148916971Y-52230295D02*
X148964590Y-52135057D01*
X148964590Y-52135057D02*
X149012209Y-52087438D01*
X149012209Y-52087438D02*
X149107447Y-52039819D01*
X149107447Y-52039819D02*
X149345542Y-52039819D01*
X149345542Y-52039819D02*
X149488399Y-52087438D01*
X149916971Y-53039819D02*
X149916971Y-52039819D01*
X149916971Y-52039819D02*
X150155066Y-52039819D01*
X150155066Y-52039819D02*
X150297923Y-52087438D01*
X150297923Y-52087438D02*
X150393161Y-52182676D01*
X150393161Y-52182676D02*
X150440780Y-52277914D01*
X150440780Y-52277914D02*
X150488399Y-52468390D01*
X150488399Y-52468390D02*
X150488399Y-52611247D01*
X150488399Y-52611247D02*
X150440780Y-52801723D01*
X150440780Y-52801723D02*
X150393161Y-52896961D01*
X150393161Y-52896961D02*
X150297923Y-52992200D01*
X150297923Y-52992200D02*
X150155066Y-53039819D01*
X150155066Y-53039819D02*
X149916971Y-53039819D01*
X150869352Y-52754104D02*
X151345542Y-52754104D01*
X150774114Y-53039819D02*
X151107447Y-52039819D01*
X151107447Y-52039819D02*
X151440780Y-53039819D01*
X138922095Y-81030619D02*
X138922095Y-80030619D01*
X138922095Y-80030619D02*
X139160190Y-80030619D01*
X139160190Y-80030619D02*
X139303047Y-80078238D01*
X139303047Y-80078238D02*
X139398285Y-80173476D01*
X139398285Y-80173476D02*
X139445904Y-80268714D01*
X139445904Y-80268714D02*
X139493523Y-80459190D01*
X139493523Y-80459190D02*
X139493523Y-80602047D01*
X139493523Y-80602047D02*
X139445904Y-80792523D01*
X139445904Y-80792523D02*
X139398285Y-80887761D01*
X139398285Y-80887761D02*
X139303047Y-80983000D01*
X139303047Y-80983000D02*
X139160190Y-81030619D01*
X139160190Y-81030619D02*
X138922095Y-81030619D01*
X139922095Y-81030619D02*
X139922095Y-80363952D01*
X139922095Y-80030619D02*
X139874476Y-80078238D01*
X139874476Y-80078238D02*
X139922095Y-80125857D01*
X139922095Y-80125857D02*
X139969714Y-80078238D01*
X139969714Y-80078238D02*
X139922095Y-80030619D01*
X139922095Y-80030619D02*
X139922095Y-80125857D01*
X140398285Y-80363952D02*
X140398285Y-81030619D01*
X140398285Y-80459190D02*
X140445904Y-80411571D01*
X140445904Y-80411571D02*
X140541142Y-80363952D01*
X140541142Y-80363952D02*
X140683999Y-80363952D01*
X140683999Y-80363952D02*
X140779237Y-80411571D01*
X140779237Y-80411571D02*
X140826856Y-80506809D01*
X140826856Y-80506809D02*
X140826856Y-81030619D01*
D14*
X133762000Y-140293285D02*
X133762000Y-139379000D01*
X134219142Y-139836142D02*
X133304857Y-139836142D01*
X134219142Y-138179000D02*
X134219142Y-138864714D01*
X134219142Y-138521857D02*
X133019142Y-138521857D01*
X133019142Y-138521857D02*
X133190571Y-138636143D01*
X133190571Y-138636143D02*
X133304857Y-138750428D01*
X133304857Y-138750428D02*
X133362000Y-138864714D01*
X133133428Y-137721857D02*
X133076285Y-137664714D01*
X133076285Y-137664714D02*
X133019142Y-137550429D01*
X133019142Y-137550429D02*
X133019142Y-137264714D01*
X133019142Y-137264714D02*
X133076285Y-137150429D01*
X133076285Y-137150429D02*
X133133428Y-137093286D01*
X133133428Y-137093286D02*
X133247714Y-137036143D01*
X133247714Y-137036143D02*
X133362000Y-137036143D01*
X133362000Y-137036143D02*
X133533428Y-137093286D01*
X133533428Y-137093286D02*
X134219142Y-137779000D01*
X134219142Y-137779000D02*
X134219142Y-137036143D01*
X133019142Y-136693286D02*
X134219142Y-136293286D01*
X134219142Y-136293286D02*
X133019142Y-135893286D01*
D10*
X116649476Y-52804904D02*
X117125666Y-52804904D01*
X116554238Y-53090619D02*
X116887571Y-52090619D01*
X116887571Y-52090619D02*
X117220904Y-53090619D01*
D13*
%TO.C,J6*%
X130018981Y-130556000D02*
X130018981Y-138236000D01*
X127358981Y-129286000D02*
X127358981Y-127956000D01*
X127358981Y-138236000D02*
X130018981Y-138236000D01*
X127358981Y-130556000D02*
X130018981Y-130556000D01*
X127358981Y-127956000D02*
X128688981Y-127956000D01*
X127358981Y-130556000D02*
X127358981Y-138236000D01*
%TO.C,R3*%
X125858000Y-92906641D02*
X125858000Y-92599359D01*
X126618000Y-92906641D02*
X126618000Y-92599359D01*
%TO.C,C4*%
X133457836Y-100659000D02*
X133242164Y-100659000D01*
X133457836Y-99939000D02*
X133242164Y-99939000D01*
%TO.C,U1*%
X131572000Y-67981000D02*
X133247000Y-67981000D01*
X131572000Y-67981000D02*
X130922000Y-67981000D01*
X131572000Y-64861000D02*
X132222000Y-64861000D01*
X131572000Y-64861000D02*
X130922000Y-64861000D01*
%TO.C,C25*%
X137354081Y-131170000D02*
X138776585Y-131170000D01*
X137354081Y-132990000D02*
X138776585Y-132990000D01*
%TO.C,C20*%
X137370414Y-128376000D02*
X138792918Y-128376000D01*
X137370414Y-130196000D02*
X138792918Y-130196000D01*
%TO.C,R27*%
X133376641Y-76072000D02*
X133069359Y-76072000D01*
X133376641Y-75312000D02*
X133069359Y-75312000D01*
%TO.C,C24*%
X137464748Y-147680000D02*
X138887252Y-147680000D01*
X137464748Y-149500000D02*
X138887252Y-149500000D01*
%TO.C,D1*%
X133283600Y-78447000D02*
X133283600Y-76747000D01*
X133283600Y-78447000D02*
X130623600Y-78447000D01*
X133283600Y-76747000D02*
X130623600Y-76747000D01*
%TO.C,D4*%
X135841000Y-139574000D02*
X135841000Y-142874000D01*
X135841000Y-139574000D02*
X141351000Y-139574000D01*
X135841000Y-142874000D02*
X141351000Y-142874000D01*
%TO.C,R4*%
X127128000Y-92904641D02*
X127128000Y-92597359D01*
X127888000Y-92904641D02*
X127888000Y-92597359D01*
%TO.C,R33*%
X133196359Y-101169200D02*
X133503641Y-101169200D01*
X133196359Y-101929200D02*
X133503641Y-101929200D01*
%TO.C,R22*%
X146838641Y-103504000D02*
X146531359Y-103504000D01*
X146838641Y-102744000D02*
X146531359Y-102744000D01*
%TO.C,Q1*%
X130189800Y-72821800D02*
X130189800Y-74496800D01*
X130189800Y-72821800D02*
X130189800Y-72171800D01*
X133309800Y-72821800D02*
X133309800Y-73471800D01*
X133309800Y-72821800D02*
X133309800Y-72171800D01*
%TO.C,C10*%
X141585836Y-112120000D02*
X141370164Y-112120000D01*
X141585836Y-111400000D02*
X141370164Y-111400000D01*
%TO.C,R24*%
X143585200Y-61923959D02*
X143585200Y-62231241D01*
X142825200Y-61923959D02*
X142825200Y-62231241D01*
%TO.C,RPI1*%
X117655000Y-51395000D02*
X137975000Y-51395000D01*
X137975000Y-51395000D02*
X137975000Y-102195000D01*
X137975000Y-102195000D02*
X117655000Y-102195000D01*
X117655000Y-102195000D02*
X117655000Y-51395000D01*
X125275000Y-51395000D02*
X130355000Y-51395000D01*
X130355000Y-51395000D02*
X130355000Y-55205000D01*
X130355000Y-55205000D02*
X125275000Y-55205000D01*
X125275000Y-55205000D02*
X125275000Y-51395000D01*
G36*
X125275000Y-51395000D02*
G01*
X130355000Y-51395000D01*
X130355000Y-55205000D01*
X125275000Y-55205000D01*
X125275000Y-51395000D01*
G37*
%TO.C,C22*%
X137386747Y-136758000D02*
X138809251Y-136758000D01*
X137386747Y-138578000D02*
X138809251Y-138578000D01*
%TO.C,U5*%
X146623000Y-96881000D02*
X143173000Y-96881000D01*
X146623000Y-96881000D02*
X148573000Y-96881000D01*
X146623000Y-102001000D02*
X144673000Y-102001000D01*
X146623000Y-102001000D02*
X148573000Y-102001000D01*
%TO.C,R2*%
X141631641Y-113410000D02*
X141324359Y-113410000D01*
X141631641Y-112650000D02*
X141324359Y-112650000D01*
%TO.C,R30*%
X140969000Y-114654359D02*
X140969000Y-114961641D01*
X140209000Y-114654359D02*
X140209000Y-114961641D01*
%TO.C,R21*%
X150877000Y-107468641D02*
X150877000Y-107161359D01*
X151637000Y-107468641D02*
X151637000Y-107161359D01*
%TO.C,R39*%
X132512800Y-103633241D02*
X132512800Y-103325959D01*
X133272800Y-103633241D02*
X133272800Y-103325959D01*
%TO.C,U4*%
X128268000Y-95864000D02*
X124818000Y-95864000D01*
X128268000Y-95864000D02*
X130218000Y-95864000D01*
X128268000Y-104734000D02*
X126318000Y-104734000D01*
X128268000Y-104734000D02*
X130218000Y-104734000D01*
%TO.C,C8*%
X131424000Y-85083764D02*
X131424000Y-85299436D01*
X130704000Y-85083764D02*
X130704000Y-85299436D01*
%TO.C,R38*%
X123267200Y-103633241D02*
X123267200Y-103325959D01*
X124027200Y-103633241D02*
X124027200Y-103325959D01*
%TO.C,C13*%
X129390000Y-106105164D02*
X129390000Y-106320836D01*
X128670000Y-106105164D02*
X128670000Y-106320836D01*
%TO.C,C2*%
X129239600Y-64588564D02*
X129239600Y-64804236D01*
X128519600Y-64588564D02*
X128519600Y-64804236D01*
%TO.C,R34*%
X133196359Y-97396000D02*
X133503641Y-97396000D01*
X133196359Y-98156000D02*
X133503641Y-98156000D01*
%TO.C,R26*%
X131062759Y-79223600D02*
X131370041Y-79223600D01*
X131062759Y-79983600D02*
X131370041Y-79983600D01*
%TO.C,R36*%
X141606000Y-114961641D02*
X141606000Y-114654359D01*
X142366000Y-114961641D02*
X142366000Y-114654359D01*
%TO.C,R29*%
X140209000Y-106196641D02*
X140209000Y-105889359D01*
X140969000Y-106196641D02*
X140969000Y-105889359D01*
%TO.C,C5*%
X151617000Y-110867364D02*
X151617000Y-111083036D01*
X150897000Y-110867364D02*
X150897000Y-111083036D01*
%TO.C,C9*%
X141585836Y-109453000D02*
X141370164Y-109453000D01*
X141585836Y-108733000D02*
X141370164Y-108733000D01*
%TO.C,D5*%
X135777000Y-124080000D02*
X135777000Y-127380000D01*
X135777000Y-124080000D02*
X141287000Y-124080000D01*
X135777000Y-127380000D02*
X141287000Y-127380000D01*
%TO.C,D3*%
X142861000Y-146811000D02*
X142861000Y-143511000D01*
X142861000Y-146811000D02*
X137351000Y-146811000D01*
X142861000Y-143511000D02*
X137351000Y-143511000D01*
%TO.C,R6*%
X129668000Y-92904641D02*
X129668000Y-92597359D01*
X130428000Y-92904641D02*
X130428000Y-92597359D01*
%TO.C,C1*%
X132919800Y-62084852D02*
X132919800Y-61562348D01*
X134389800Y-62084852D02*
X134389800Y-61562348D01*
%TO.C,R28*%
X152147000Y-108510041D02*
X152147000Y-108202759D01*
X152907000Y-108510041D02*
X152907000Y-108202759D01*
%TO.C,FB1*%
X141299000Y-130447622D02*
X141299000Y-129648378D01*
X142419000Y-130447622D02*
X142419000Y-129648378D01*
%TO.C,J1*%
X154667000Y-147820000D02*
X154667000Y-146820000D01*
X154667000Y-146820000D02*
X153667000Y-147320000D01*
X153667000Y-147320000D02*
X154667000Y-147820000D01*
X153277000Y-152530000D02*
X144157000Y-152530000D01*
X153277000Y-140480000D02*
X151967000Y-140480000D01*
X153277000Y-124330000D02*
X153277000Y-152530000D01*
X151967000Y-151230000D02*
X145467000Y-151230000D01*
X151967000Y-140480000D02*
X151967000Y-151230000D01*
X151967000Y-136380000D02*
X153277000Y-136380000D01*
X151967000Y-136380000D02*
X151967000Y-136380000D01*
X151967000Y-125630000D02*
X151967000Y-136380000D01*
X145467000Y-151230000D02*
X145467000Y-125630000D01*
X145467000Y-125630000D02*
X151967000Y-125630000D01*
X144157000Y-152530000D02*
X144157000Y-124330000D01*
X144157000Y-124330000D02*
X153277000Y-124330000D01*
%TO.C,C6*%
X141370164Y-110130000D02*
X141585836Y-110130000D01*
X141370164Y-110850000D02*
X141585836Y-110850000D01*
%TO.C,C23*%
X137464748Y-150474000D02*
X138887252Y-150474000D01*
X137464748Y-152294000D02*
X138887252Y-152294000D01*
%TO.C,R32*%
X123214641Y-101929200D02*
X122907359Y-101929200D01*
X123214641Y-101169200D02*
X122907359Y-101169200D01*
%TO.C,FB2*%
X142419000Y-136506378D02*
X142419000Y-137305622D01*
X141299000Y-136506378D02*
X141299000Y-137305622D01*
%TO.C,R31*%
X123216641Y-98170000D02*
X122909359Y-98170000D01*
X123216641Y-97410000D02*
X122909359Y-97410000D01*
%TO.C,D2*%
X146430000Y-53640000D02*
X143130000Y-53640000D01*
X146430000Y-53640000D02*
X146430000Y-59150000D01*
X143130000Y-53640000D02*
X143130000Y-59150000D01*
%TO.C,C14*%
X130958000Y-92858836D02*
X130958000Y-92643164D01*
X131678000Y-92858836D02*
X131678000Y-92643164D01*
%TO.C,R40*%
X133503641Y-96773000D02*
X133196359Y-96773000D01*
X133503641Y-96013000D02*
X133196359Y-96013000D01*
%TO.C,C3*%
X123192836Y-100659000D02*
X122977164Y-100659000D01*
X123192836Y-99939000D02*
X122977164Y-99939000D01*
%TO.C,R5*%
X128398000Y-92902641D02*
X128398000Y-92595359D01*
X129158000Y-92902641D02*
X129158000Y-92595359D01*
%TO.C,C7*%
X148697836Y-95991000D02*
X148482164Y-95991000D01*
X148697836Y-95271000D02*
X148482164Y-95271000D01*
D10*
%TO.C,U2*%
X130056000Y-85234000D02*
X129831000Y-85234000D01*
X130056000Y-85234000D02*
X130056000Y-88584000D01*
X129831000Y-85234000D02*
X129831000Y-84009000D01*
X126706000Y-85234000D02*
X127006000Y-85234000D01*
X126706000Y-85234000D02*
X126706000Y-88584000D01*
X130056000Y-88584000D02*
X129756000Y-88584000D01*
X126706000Y-88584000D02*
X127006000Y-88584000D01*
D13*
%TO.C,C21*%
X137337748Y-133964000D02*
X138760252Y-133964000D01*
X137337748Y-135784000D02*
X138760252Y-135784000D01*
%TO.C,J4*%
X152340000Y-51375000D02*
X153670000Y-51375000D01*
X152340000Y-52705000D02*
X152340000Y-51375000D01*
X152340000Y-53975000D02*
X152340000Y-61655000D01*
X152340000Y-53975000D02*
X155000000Y-53975000D01*
X152340000Y-61655000D02*
X155000000Y-61655000D01*
X155000000Y-53975000D02*
X155000000Y-61655000D01*
%TO.C,FB3*%
X141299000Y-150259622D02*
X141299000Y-149460378D01*
X142419000Y-150259622D02*
X142419000Y-149460378D01*
%TO.C,U3*%
X146608800Y-114925000D02*
X150058800Y-114925000D01*
X146608800Y-114925000D02*
X144658800Y-114925000D01*
X146608800Y-106055000D02*
X148558800Y-106055000D01*
X146608800Y-106055000D02*
X144658800Y-106055000D01*
%TO.C,C12*%
X127868000Y-106105164D02*
X127868000Y-106320836D01*
X127148000Y-106105164D02*
X127148000Y-106320836D01*
%TO.C,R1*%
X141631641Y-108203000D02*
X141324359Y-108203000D01*
X141631641Y-107443000D02*
X141324359Y-107443000D01*
%TO.C,R23*%
X141352000Y-98324641D02*
X141352000Y-98017359D01*
X142112000Y-98324641D02*
X142112000Y-98017359D01*
%TO.C,R37*%
X122909359Y-96013000D02*
X123216641Y-96013000D01*
X122909359Y-96773000D02*
X123216641Y-96773000D01*
%TO.C,R25*%
X143636000Y-76706759D02*
X143636000Y-77014041D01*
X142876000Y-76706759D02*
X142876000Y-77014041D01*
%TO.C,R35*%
X142366000Y-105889359D02*
X142366000Y-106196641D01*
X141606000Y-105889359D02*
X141606000Y-106196641D01*
%TO.C,C11*%
X124608000Y-92858836D02*
X124608000Y-92643164D01*
X125328000Y-92858836D02*
X125328000Y-92643164D01*
%TD*%
%LPC*%
D17*
%TO.C,J6*%
X128688981Y-129286000D03*
D18*
X128688981Y-131826000D03*
X128688981Y-134366000D03*
X128688981Y-136906000D03*
%TD*%
D19*
%TO.C,R3*%
X126238000Y-93263000D03*
X126238000Y-92243000D03*
%TD*%
D20*
%TO.C,C4*%
X133830000Y-100299000D03*
X132870000Y-100299000D03*
%TD*%
D21*
%TO.C,U1*%
X132509500Y-67371000D03*
X132509500Y-65471000D03*
X130634500Y-66421000D03*
%TD*%
D22*
%TO.C,C25*%
X136590333Y-132080000D03*
X139540333Y-132080000D03*
%TD*%
%TO.C,C20*%
X136606666Y-129286000D03*
X139556666Y-129286000D03*
%TD*%
D23*
%TO.C,R27*%
X133733000Y-75692000D03*
X132713000Y-75692000D03*
%TD*%
D22*
%TO.C,C24*%
X136701000Y-148590000D03*
X139651000Y-148590000D03*
%TD*%
D24*
%TO.C,D1*%
X132723600Y-77597000D03*
X130623600Y-77597000D03*
%TD*%
D25*
%TO.C,D4*%
X137351000Y-141224000D03*
X141351000Y-141224000D03*
%TD*%
D19*
%TO.C,R4*%
X127508000Y-93261000D03*
X127508000Y-92241000D03*
%TD*%
D26*
%TO.C,R33*%
X132840000Y-101549200D03*
X133860000Y-101549200D03*
%TD*%
D23*
%TO.C,R22*%
X147195000Y-103124000D03*
X146175000Y-103124000D03*
%TD*%
D27*
%TO.C,Q1*%
X130799800Y-73759300D03*
X132699800Y-73759300D03*
X131749800Y-71884300D03*
%TD*%
D20*
%TO.C,C10*%
X141958000Y-111760000D03*
X140998000Y-111760000D03*
%TD*%
D28*
%TO.C,R24*%
X143205200Y-61567600D03*
X143205200Y-62587600D03*
%TD*%
D29*
%TO.C,RPI1*%
X118925000Y-52665000D03*
X118925000Y-55205000D03*
X118925000Y-57745000D03*
X118925000Y-60285000D03*
X118925000Y-62825000D03*
X118925000Y-65365000D03*
X118925000Y-67905000D03*
X118925000Y-70445000D03*
X118925000Y-72985000D03*
X118925000Y-75525000D03*
X118925000Y-78065000D03*
X118925000Y-80605000D03*
X118925000Y-83145000D03*
X118925000Y-85685000D03*
X118925000Y-88225000D03*
X118925000Y-90765000D03*
X118925000Y-93305000D03*
X118925000Y-95845000D03*
X118925000Y-98385000D03*
X118925000Y-100925000D03*
X136705000Y-100925000D03*
X136705000Y-98385000D03*
X136705000Y-95845000D03*
X136705000Y-93305000D03*
X136705000Y-90765000D03*
X136705000Y-88225000D03*
X136705000Y-85685000D03*
X136705000Y-83145000D03*
X136705000Y-80605000D03*
X136705000Y-78065000D03*
X136705000Y-75525000D03*
X136705000Y-72985000D03*
X136705000Y-70445000D03*
X136705000Y-67905000D03*
X136705000Y-65365000D03*
X136705000Y-62825000D03*
X136705000Y-60285000D03*
X136705000Y-57745000D03*
X136705000Y-55205000D03*
X136705000Y-52665000D03*
%TD*%
D22*
%TO.C,C22*%
X136622999Y-137668000D03*
X139572999Y-137668000D03*
%TD*%
D30*
%TO.C,U5*%
X144148000Y-97536000D03*
X144148000Y-98806000D03*
X144148000Y-100076000D03*
X144148000Y-101346000D03*
X149098000Y-101346000D03*
X149098000Y-100076000D03*
X149098000Y-98806000D03*
X149098000Y-97536000D03*
%TD*%
D23*
%TO.C,R2*%
X141988000Y-113030000D03*
X140968000Y-113030000D03*
%TD*%
D28*
%TO.C,R30*%
X140589000Y-114298000D03*
X140589000Y-115318000D03*
%TD*%
D19*
%TO.C,R21*%
X151257000Y-107825000D03*
X151257000Y-106805000D03*
%TD*%
%TO.C,R39*%
X132892800Y-103989600D03*
X132892800Y-102969600D03*
%TD*%
D30*
%TO.C,U4*%
X125793000Y-96489000D03*
X125793000Y-97759000D03*
X125793000Y-99029000D03*
X125793000Y-100299000D03*
X125793000Y-101569000D03*
X125793000Y-102839000D03*
X125793000Y-104109000D03*
X130743000Y-104109000D03*
X130743000Y-102839000D03*
X130743000Y-101569000D03*
X130743000Y-100299000D03*
X130743000Y-99029000D03*
X130743000Y-97759000D03*
X130743000Y-96489000D03*
%TD*%
D31*
%TO.C,C8*%
X131064000Y-84711600D03*
X131064000Y-85671600D03*
%TD*%
D19*
%TO.C,R38*%
X123647200Y-103989600D03*
X123647200Y-102969600D03*
%TD*%
D31*
%TO.C,C13*%
X129030000Y-105733000D03*
X129030000Y-106693000D03*
%TD*%
%TO.C,C2*%
X128879600Y-64216400D03*
X128879600Y-65176400D03*
%TD*%
D26*
%TO.C,R34*%
X132840000Y-97776000D03*
X133860000Y-97776000D03*
%TD*%
%TO.C,R26*%
X130706400Y-79603600D03*
X131726400Y-79603600D03*
%TD*%
D19*
%TO.C,R36*%
X141986000Y-115318000D03*
X141986000Y-114298000D03*
%TD*%
%TO.C,R29*%
X140589000Y-106553000D03*
X140589000Y-105533000D03*
%TD*%
D31*
%TO.C,C5*%
X151257000Y-110495200D03*
X151257000Y-111455200D03*
%TD*%
D20*
%TO.C,C9*%
X141958000Y-109093000D03*
X140998000Y-109093000D03*
%TD*%
D25*
%TO.C,D5*%
X137287000Y-125730000D03*
X141287000Y-125730000D03*
%TD*%
D32*
%TO.C,D3*%
X141351000Y-145161000D03*
X137351000Y-145161000D03*
%TD*%
D19*
%TO.C,R6*%
X130048000Y-93261000D03*
X130048000Y-92241000D03*
%TD*%
D33*
%TO.C,C1*%
X133654800Y-62773600D03*
X133654800Y-60873600D03*
%TD*%
D19*
%TO.C,R28*%
X152527000Y-108866400D03*
X152527000Y-107846400D03*
%TD*%
D34*
%TO.C,FB1*%
X141859000Y-131110500D03*
X141859000Y-128985500D03*
%TD*%
D35*
%TO.C,J1*%
X149987000Y-147320000D03*
D36*
X147447000Y-147320000D03*
X149987000Y-144780000D03*
X147447000Y-144780000D03*
X149987000Y-142240000D03*
X147447000Y-142240000D03*
X149987000Y-139700000D03*
X147447000Y-139700000D03*
X149987000Y-137160000D03*
X147447000Y-137160000D03*
X149987000Y-134620000D03*
X147447000Y-134620000D03*
X149987000Y-132080000D03*
X147447000Y-132080000D03*
X149987000Y-129540000D03*
X147447000Y-129540000D03*
%TD*%
D37*
%TO.C,C6*%
X140998000Y-110490000D03*
X141958000Y-110490000D03*
%TD*%
D22*
%TO.C,C23*%
X136701000Y-151384000D03*
X139651000Y-151384000D03*
%TD*%
D23*
%TO.C,R32*%
X123571000Y-101549200D03*
X122551000Y-101549200D03*
%TD*%
D38*
%TO.C,FB2*%
X141859000Y-135843500D03*
X141859000Y-137968500D03*
%TD*%
D23*
%TO.C,R31*%
X123573000Y-97790000D03*
X122553000Y-97790000D03*
%TD*%
D39*
%TO.C,D2*%
X144780000Y-55150000D03*
X144780000Y-59150000D03*
%TD*%
D40*
%TO.C,C14*%
X131318000Y-93231000D03*
X131318000Y-92271000D03*
%TD*%
D23*
%TO.C,R40*%
X133860000Y-96393000D03*
X132840000Y-96393000D03*
%TD*%
D20*
%TO.C,C3*%
X123565000Y-100299000D03*
X122605000Y-100299000D03*
%TD*%
D19*
%TO.C,R5*%
X128778000Y-93259000D03*
X128778000Y-92239000D03*
%TD*%
D20*
%TO.C,C7*%
X149070000Y-95631000D03*
X148110000Y-95631000D03*
%TD*%
D41*
%TO.C,U2*%
X129381000Y-84709000D03*
X128881000Y-84709000D03*
X128381000Y-84709000D03*
X127881000Y-84709000D03*
X127381000Y-84709000D03*
X127381000Y-89109000D03*
X127881000Y-89109000D03*
X128381000Y-89109000D03*
X128881000Y-89109000D03*
X129381000Y-89109000D03*
%TD*%
D22*
%TO.C,C21*%
X136574000Y-134874000D03*
X139524000Y-134874000D03*
%TD*%
D17*
%TO.C,J4*%
X153670000Y-52705000D03*
D18*
X153670000Y-55245000D03*
X153670000Y-57785000D03*
X153670000Y-60325000D03*
%TD*%
D34*
%TO.C,FB3*%
X141859000Y-150922500D03*
X141859000Y-148797500D03*
%TD*%
D42*
%TO.C,U3*%
X149083800Y-114300000D03*
X149083800Y-113030000D03*
X149083800Y-111760000D03*
X149083800Y-110490000D03*
X149083800Y-109220000D03*
X149083800Y-107950000D03*
X149083800Y-106680000D03*
X144133800Y-106680000D03*
X144133800Y-107950000D03*
X144133800Y-109220000D03*
X144133800Y-110490000D03*
X144133800Y-111760000D03*
X144133800Y-113030000D03*
X144133800Y-114300000D03*
%TD*%
D31*
%TO.C,C12*%
X127508000Y-105733000D03*
X127508000Y-106693000D03*
%TD*%
D23*
%TO.C,R1*%
X141988000Y-107823000D03*
X140968000Y-107823000D03*
%TD*%
D19*
%TO.C,R23*%
X141732000Y-98681000D03*
X141732000Y-97661000D03*
%TD*%
D26*
%TO.C,R37*%
X122553000Y-96393000D03*
X123573000Y-96393000D03*
%TD*%
D28*
%TO.C,R25*%
X143256000Y-76350400D03*
X143256000Y-77370400D03*
%TD*%
%TO.C,R35*%
X141986000Y-105533000D03*
X141986000Y-106553000D03*
%TD*%
D40*
%TO.C,C11*%
X124968000Y-93231000D03*
X124968000Y-92271000D03*
%TD*%
D17*
%TO.C,J3*%
X121015000Y-113625000D03*
D18*
X121015000Y-116165000D03*
X123555000Y-113625000D03*
X123555000Y-116165000D03*
X126095000Y-113625000D03*
X126095000Y-116165000D03*
X128635000Y-113625000D03*
X128635000Y-116165000D03*
%TD*%
D17*
%TO.C,J2*%
X143235000Y-65725000D03*
D18*
X140695000Y-65725000D03*
X143235000Y-68265000D03*
X140695000Y-68265000D03*
X143235000Y-70805000D03*
X140695000Y-70805000D03*
X143235000Y-73345000D03*
X140695000Y-73345000D03*
%TD*%
D17*
%TO.C,J5*%
X127381000Y-78232000D03*
D18*
X124841000Y-78232000D03*
%TD*%
%LPD*%
M02*
